<svg width="330" height="630" viewBox="0 0 330 630" fill="none" xmlns="http://www.w3.org/2000/svg">
<g filter="url(#filter0_d_8_79)">
<rect x="15" y="15" width="300" height="600" rx="30" fill="white"/>
</g>
<rect x="40.7142" y="47" width="25.7143" height="2" rx="1" fill="#18181B"/>
<rect x="40.7142" y="53" width="25.7143" height="2" rx="1" fill="#18181B"/>
<rect x="40.7142" y="59" width="19.4196" height="2" rx="1" fill="#18181B"/>
<path d="M251.283 50.768C251.123 50.5867 250.936 50.4267 250.723 50.288C250.509 50.1387 250.269 50.0107 250.003 49.904C249.736 49.7973 249.448 49.712 249.139 49.648C248.84 49.584 248.52 49.552 248.179 49.552C247.187 49.552 246.456 49.744 245.987 50.128C245.528 50.5013 245.299 51.0133 245.299 51.664C245.299 52.112 245.405 52.464 245.619 52.72C245.843 52.976 246.189 53.184 246.659 53.344C247.128 53.504 247.725 53.6693 248.451 53.84C249.261 54.0107 249.96 54.2133 250.547 54.448C251.133 54.6827 251.587 55.0027 251.907 55.408C252.227 55.8027 252.387 56.3413 252.387 57.024C252.387 57.5467 252.285 58 252.083 58.384C251.88 58.768 251.597 59.088 251.235 59.344C250.872 59.6 250.44 59.792 249.939 59.92C249.437 60.0373 248.888 60.096 248.291 60.096C247.704 60.096 247.139 60.0373 246.595 59.92C246.061 59.792 245.555 59.6107 245.075 59.376C244.595 59.1307 244.147 58.8213 243.731 58.448L244.291 57.536C244.493 57.7493 244.733 57.952 245.011 58.144C245.299 58.3253 245.613 58.4907 245.955 58.64C246.307 58.7893 246.68 58.9067 247.075 58.992C247.48 59.0667 247.896 59.104 248.323 59.104C249.229 59.104 249.933 58.9387 250.435 58.608C250.947 58.2773 251.203 57.7867 251.203 57.136C251.203 56.6667 251.075 56.2933 250.819 56.016C250.563 55.728 250.179 55.4933 249.667 55.312C249.155 55.1307 248.525 54.9547 247.779 54.784C246.989 54.6027 246.323 54.4 245.779 54.176C245.235 53.952 244.824 53.6587 244.547 53.296C244.28 52.9227 244.147 52.432 244.147 51.824C244.147 51.12 244.317 50.528 244.659 50.048C245.011 49.5573 245.491 49.1893 246.099 48.944C246.707 48.688 247.405 48.56 248.195 48.56C248.696 48.56 249.16 48.6133 249.587 48.72C250.024 48.816 250.424 48.96 250.787 49.152C251.16 49.344 251.507 49.584 251.827 49.872L251.283 50.768ZM260.09 60L257.002 55.728L255.226 57.392V60H254.138V48.32H255.226V56.224L259.946 51.68H261.146L257.738 55.088L261.274 60H260.09ZM262.622 60V51.664H263.71V60H262.622ZM262.622 49.92V48.32H263.71V49.92H262.622ZM270.362 60.16C269.669 60.16 269.045 59.9787 268.49 59.616C267.946 59.2533 267.514 58.8053 267.194 58.272V63.408H266.106V51.664H267.082V53.28C267.413 52.7573 267.856 52.336 268.41 52.016C268.965 51.6853 269.557 51.52 270.186 51.52C270.762 51.52 271.29 51.6427 271.77 51.888C272.25 52.1227 272.666 52.4427 273.018 52.848C273.37 53.2533 273.642 53.7173 273.834 54.24C274.037 54.752 274.138 55.2853 274.138 55.84C274.138 56.6187 273.978 57.3387 273.658 58C273.349 58.6507 272.912 59.1733 272.346 59.568C271.781 59.9627 271.12 60.16 270.362 60.16ZM270.058 59.2C270.517 59.2 270.928 59.1093 271.29 58.928C271.653 58.736 271.962 58.48 272.218 58.16C272.485 57.84 272.688 57.4827 272.826 57.088C272.965 56.6827 273.034 56.2667 273.034 55.84C273.034 55.392 272.954 54.9653 272.794 54.56C272.645 54.1547 272.426 53.7973 272.138 53.488C271.85 53.1787 271.52 52.9333 271.146 52.752C270.773 52.5707 270.368 52.48 269.93 52.48C269.653 52.48 269.365 52.5333 269.066 52.64C268.768 52.7467 268.48 52.9013 268.202 53.104C267.936 53.296 267.712 53.5147 267.53 53.76C267.349 54.0053 267.237 54.2667 267.194 54.544V57.104C267.365 57.4987 267.594 57.856 267.882 58.176C268.17 58.4853 268.501 58.736 268.874 58.928C269.258 59.1093 269.653 59.2 270.058 59.2Z" fill="#18181B"/>
<g clip-path="url(#clip0_8_79)">
<path d="M139.037 170.101H138.143V145.234C138.143 143.344 137.776 141.472 137.064 139.726C136.352 137.98 135.308 136.393 133.992 135.056C132.676 133.72 131.114 132.66 129.395 131.936C127.676 131.213 125.833 130.841 123.972 130.841H72.0979C68.3395 130.841 64.735 132.357 62.0774 135.056C59.4198 137.756 57.9268 141.416 57.9268 145.234V281.659C57.9268 283.549 58.2934 285.421 59.0055 287.167C59.7177 288.913 60.7615 290.5 62.0774 291.836C63.3933 293.173 64.9555 294.233 66.6748 294.956C68.3941 295.679 70.2369 296.052 72.0978 296.052H123.972C127.73 296.052 131.335 294.535 133.992 291.836C136.65 289.137 138.143 285.476 138.143 281.659V187.802H139.037V170.101Z" fill="#3F3D56"/>
<path d="M124.544 134.585H117.772C118.084 135.361 118.203 136.202 118.119 137.035C118.034 137.868 117.75 138.667 117.29 139.362C116.83 140.057 116.209 140.627 115.481 141.021C114.754 141.414 113.942 141.62 113.117 141.62H83.3994C82.5749 141.62 81.7631 141.414 81.0354 141.021C80.3078 140.627 79.6866 140.057 79.2267 139.362C78.7668 138.667 78.4823 137.868 78.3981 137.035C78.314 136.202 78.4329 135.361 78.7443 134.585H72.4199C71.0301 134.585 69.654 134.863 68.37 135.404C67.0861 135.944 65.9194 136.735 64.9367 137.733C63.954 138.732 63.1745 139.916 62.6427 141.22C62.1108 142.525 61.8371 143.922 61.8371 145.334V281.559C61.8371 282.97 62.1108 284.368 62.6427 285.672C63.1745 286.976 63.954 288.161 64.9367 289.159C65.9194 290.157 67.0861 290.949 68.37 291.489C69.654 292.029 71.0301 292.307 72.4199 292.307H124.544C125.933 292.307 127.31 292.029 128.594 291.489C129.878 290.949 131.044 290.157 132.027 289.159C133.01 288.161 133.789 286.976 134.321 285.672C134.853 284.368 135.127 282.97 135.127 281.559V145.334C135.127 143.922 134.853 142.525 134.321 141.22C133.789 139.916 133.01 138.732 132.027 137.733C131.044 136.735 129.878 135.944 128.594 135.404C127.31 134.863 125.933 134.585 124.544 134.585Z" fill="white"/>
<path d="M155.663 296.075H41.3002C41.2206 296.075 41.1442 296.043 41.0879 295.986C41.0316 295.929 41 295.851 41 295.77C41 295.689 41.0316 295.612 41.0879 295.555C41.1442 295.498 41.2206 295.465 41.3002 295.465H155.663C155.743 295.465 155.819 295.498 155.876 295.555C155.932 295.612 155.964 295.689 155.964 295.77C155.964 295.851 155.932 295.929 155.876 295.986C155.819 296.043 155.743 296.075 155.663 296.075Z" fill="#CBCBCB"/>
<path d="M98.4818 236.225C112.481 236.225 123.83 224.699 123.83 210.481C123.83 196.262 112.481 184.736 98.4818 184.736C84.4825 184.736 73.1339 196.262 73.1339 210.481C73.1339 224.699 84.4825 236.225 98.4818 236.225Z" fill="#0FA5E9"/>
<path d="M95.9699 220.301C95.3996 220.302 94.8445 220.115 94.3883 219.767L94.36 219.746L88.4029 215.118C88.127 214.903 87.8955 214.635 87.7215 214.329C87.5476 214.024 87.4346 213.686 87.3891 213.336C87.3435 212.986 87.3663 212.63 87.4562 212.289C87.546 211.948 87.7011 211.628 87.9126 211.348C88.1241 211.068 88.3879 210.833 88.6889 210.656C88.9899 210.479 89.3222 210.365 89.6669 210.318C90.0115 210.272 90.3618 210.295 90.6976 210.387C91.0335 210.478 91.3483 210.635 91.6242 210.85L95.4827 213.855L104.601 201.774C104.812 201.494 105.076 201.259 105.377 201.082C105.677 200.906 106.01 200.791 106.354 200.745C106.699 200.698 107.049 200.722 107.384 200.813C107.72 200.904 108.035 201.062 108.311 201.276L108.311 201.277L108.255 201.357L108.313 201.277C108.869 201.711 109.233 202.352 109.325 203.058C109.417 203.765 109.229 204.48 108.802 205.046L98.0778 219.25C97.8297 219.577 97.5107 219.842 97.1455 220.024C96.7804 220.205 96.3789 220.299 95.9722 220.298L95.9699 220.301Z" fill="white"/>
<path d="M249.389 298.605C249.697 298.099 250.06 297.629 250.471 297.205C250.64 297.026 250.819 296.858 251.003 296.694C252.124 295.681 253.49 294.989 254.962 294.69C256.433 294.391 257.956 294.495 259.374 294.992C260.793 295.489 262.055 296.361 263.032 297.518C264.009 298.675 264.664 300.075 264.932 301.574C266.17 296.924 262.947 292.344 259.707 288.826C256.465 285.309 252.76 281.451 252.779 276.632C252.788 273.951 254.079 271.559 256.029 269.785C256.09 269.731 256.15 269.678 256.211 269.626C258.568 267.574 261.6 266.501 264.702 266.621C270.465 266.934 275.497 270.868 278.991 275.534C284.616 283.042 287.081 293.581 283.143 302.127C279.68 309.644 272.293 314.108 264.754 317.696C263.701 318.197 262.65 318.683 261.602 319.154C261.595 319.156 261.587 319.161 261.58 319.163C261.53 319.186 261.479 319.208 261.432 319.231C261.216 319.328 260.999 319.425 260.785 319.521L260.884 319.587L261.194 319.791C261.086 319.725 260.98 319.661 260.873 319.595C260.841 319.575 260.807 319.556 260.775 319.536C257.072 317.279 253.318 314.892 250.76 311.369C248.107 307.711 247.04 302.472 249.389 298.605Z" fill="#F1F1F1"/>
<path d="M274.093 290.111C274.913 292.005 275.457 294.011 275.707 296.065C275.903 297.896 275.83 299.747 275.487 301.556C274.752 305.274 273.148 308.758 270.812 311.715C269.048 313.96 267.013 315.97 264.754 317.696C263.701 318.197 262.65 318.683 261.602 319.154C261.595 319.156 261.587 319.161 261.58 319.163C261.53 319.186 261.479 319.208 261.432 319.231C261.216 319.328 260.999 319.425 260.785 319.521L260.884 319.587L261.194 319.791C261.087 319.725 260.98 319.661 260.873 319.595C260.841 319.575 260.807 319.556 260.775 319.536C261.59 316.641 261.71 313.59 261.124 310.638C260.539 307.686 259.266 304.92 257.411 302.571C255.546 300.252 253.168 298.413 250.471 297.205C250.64 297.026 250.819 296.858 251.003 296.694C252.042 297.179 253.037 297.756 253.976 298.418C257.334 300.776 259.856 304.168 261.168 308.094C262.339 311.656 262.485 315.484 261.589 319.127C261.775 319.003 261.962 318.877 262.143 318.751C265.593 316.388 268.772 313.551 271.167 310.071C273.232 307.13 274.554 303.719 275.015 300.137C275.474 296.225 274.51 292.378 272.79 288.886C270.891 285.152 268.498 281.698 265.678 278.622C262.845 275.461 259.641 272.663 256.139 270.292C256.061 270.238 256.005 270.156 255.985 270.061C255.964 269.967 255.98 269.868 256.029 269.785C256.067 269.71 256.132 269.653 256.211 269.626C256.251 269.616 256.293 269.615 256.334 269.623C256.374 269.631 256.412 269.649 256.445 269.674C256.878 269.967 257.306 270.263 257.73 270.567C261.256 273.103 264.459 276.075 267.264 279.413C269.975 282.631 272.442 286.206 274.093 290.111Z" fill="white"/>
<path d="M198.6 142.795C201.573 142.795 203.983 140.347 203.983 137.327C203.983 134.308 201.573 131.86 198.6 131.86C195.627 131.86 193.217 134.308 193.217 137.327C193.217 140.347 195.627 142.795 198.6 142.795Z" fill="#F1F1F1"/>
<path d="M265.537 215.961C267.349 215.961 268.819 214.469 268.819 212.628C268.819 210.787 267.349 209.294 265.537 209.294C263.724 209.294 262.255 210.787 262.255 212.628C262.255 214.469 263.724 215.961 265.537 215.961Z" fill="#F1F1F1"/>
<path d="M169.483 225.107C171.296 225.107 172.765 223.615 172.765 221.774C172.765 219.933 171.296 218.44 169.483 218.44C167.671 218.44 166.201 219.933 166.201 221.774C166.201 223.615 167.671 225.107 169.483 225.107Z" fill="#F1F1F1"/>
<path d="M171.337 320.159H285.7C285.779 320.159 285.856 320.127 285.912 320.07C285.968 320.013 286 319.935 286 319.854C286 319.773 285.968 319.696 285.912 319.639C285.856 319.581 285.779 319.549 285.7 319.549H171.337C171.257 319.549 171.181 319.581 171.124 319.639C171.068 319.696 171.036 319.773 171.036 319.854C171.036 319.935 171.068 320.013 171.124 320.07C171.181 320.127 171.257 320.159 171.337 320.159Z" fill="#CBCBCB"/>
<path d="M273.079 160.301C273.229 159.218 272.983 158.117 272.387 157.206C271.792 156.295 270.888 155.638 269.846 155.359C268.805 155.08 267.7 155.199 266.739 155.692C265.778 156.186 265.029 157.02 264.634 158.037L255.353 168.843L258.076 176.567L267.409 163.941C268.018 164.139 268.663 164.199 269.297 164.117C269.931 164.035 270.54 163.812 271.081 163.465C271.622 163.118 272.081 162.655 272.426 162.108C272.771 161.562 272.994 160.945 273.079 160.301Z" fill="#FFB7B7"/>
<path d="M234.611 202.346L265.417 168.955L261.262 162.245L222.623 195.433L234.611 202.346Z" fill="#3F3D56"/>
<path d="M227.735 182.057C233.703 182.057 238.541 177.144 238.541 171.082C238.541 165.021 233.703 160.107 227.735 160.107C221.767 160.107 216.929 165.021 216.929 171.082C216.929 177.144 221.767 182.057 227.735 182.057Z" fill="#2F2E41"/>
<path d="M228.604 164.883C230.929 162.488 233.743 160.64 236.848 159.469C238.84 158.719 241.009 158.255 243.093 158.681C245.176 159.107 247.146 160.571 247.727 162.647C248.202 164.344 247.712 166.172 246.974 167.77C246.237 169.368 245.252 170.85 244.656 172.508C244.047 174.199 243.864 176.018 244.123 177.799C244.382 179.581 245.075 181.268 246.139 182.709C247.204 184.149 248.605 185.297 250.217 186.047C251.828 186.798 253.599 187.128 255.368 187.008C253.321 187.286 251.434 188.263 249.434 188.783C247.433 189.303 245.071 189.268 243.585 187.812C242.011 186.272 241.98 183.768 242.056 181.55C242.169 178.253 242.282 174.956 242.395 171.658C242.453 169.977 242.502 168.242 241.905 166.672C241.308 165.103 239.889 163.729 238.233 163.743C236.977 163.754 235.866 164.526 234.859 165.288C233.852 166.05 232.787 166.863 231.536 166.976C230.286 167.089 228.858 166.149 228.951 164.878L228.604 164.883Z" fill="#2F2E41"/>
<path d="M186.694 244.774C185.656 245.067 184.549 244.963 183.582 244.482C182.615 244.001 181.856 243.177 181.447 242.165C181.039 241.153 181.01 240.024 181.366 238.992C181.722 237.96 182.439 237.097 183.38 236.566L192.715 225.809L200.611 227.542L189.506 238.589C189.779 239.177 189.922 239.818 189.924 240.467C189.927 241.117 189.79 241.759 189.522 242.349C189.253 242.938 188.861 243.461 188.373 243.88C187.884 244.299 187.311 244.604 186.694 244.774H186.694Z" fill="#FFB7B7"/>
<path d="M217.407 206.265L194.14 235.928L187.047 232.621L214.395 189.378L217.407 206.265Z" fill="#3F3D56"/>
<path d="M198.842 295.835L193.296 295.746L193.963 314.942H198.841L198.842 295.835Z" fill="#FFB7B7"/>
<path d="M200.085 313.325L190.479 313.324H190.479C188.855 313.324 187.298 313.979 186.15 315.145C185.003 316.311 184.358 317.893 184.357 319.541V319.743L200.085 319.744L200.085 313.325Z" fill="#2F2E41"/>
<path d="M235.557 290.743L229.499 294.693L241.616 309.499L245.721 306.822L235.557 290.743Z" fill="#FFB7B7"/>
<path d="M245.908 304.779L237.824 310.049L237.824 310.049C236.458 310.94 235.496 312.346 235.15 313.957C234.805 315.568 235.103 317.253 235.98 318.64L236.088 318.81L249.322 310.181L245.908 304.779Z" fill="#2F2E41"/>
<path d="M237.715 232.128C237.715 232.128 224.256 186.726 219.93 186.112C215.605 185.499 208.636 197.762 208.636 197.762C199.6 209.471 190.282 247.399 190.282 247.399C190.282 247.399 205.815 248.386 217.169 254.522C228.524 260.657 241.923 254.211 241.923 254.211L237.715 232.128Z" fill="#3F3D56"/>
<path opacity="0.1" d="M237.715 232.128C237.715 232.128 224.256 186.726 219.93 186.112C215.605 185.499 210.406 197.886 210.406 197.886C205.903 216.788 190.282 247.399 190.282 247.399C190.282 247.399 205.815 248.387 217.169 254.522C228.524 260.657 241.923 254.211 241.923 254.211L237.715 232.128Z" fill="black"/>
<path d="M226.673 218.544V241.358L229.316 274.406L242.524 299.405L236.22 303.977L218.21 280.198L211.087 256.587L199.9 308.855L191.495 308.245L197.332 235.777L208.409 215.379L226.673 218.544Z" fill="#2F2E41"/>
<path d="M213.102 196.477C208.9 200.745 212.802 205.318 212.802 205.318L208 216.293L226.91 221.476L233.518 191.484L229.016 186.606C220.011 186.302 220.006 186.112 220.006 186.112C218.428 187.68 213.102 196.477 213.102 196.477Z" fill="#0FA5E9"/>
<path d="M234.28 188.377C233.421 187.733 232.445 187.269 231.408 187.011C230.371 186.753 229.294 186.706 228.24 186.874C227.185 187.041 226.174 187.42 225.264 187.987C224.354 188.555 223.565 189.3 222.941 190.18C218.187 196.903 213.791 207.758 219.848 221.297C229.573 243.037 238.036 254.166 241.476 254.164C241.626 254.166 241.776 254.142 241.918 254.094C244.036 253.364 247.098 249.725 247.652 246.517C247.851 245.369 247.803 243.77 246.452 242.672C242.569 239.518 235.598 229.697 233.424 216.77C232.222 209.627 234.553 203.121 236.719 198.921C237.634 197.183 237.902 195.168 237.473 193.246C237.044 191.324 235.948 189.623 234.385 188.455L234.28 188.377Z" fill="#3F3D56"/>
<path d="M228.291 180.979C232.146 178.839 233.563 173.93 231.456 170.015C229.348 166.1 224.515 164.661 220.66 166.802C216.806 168.942 215.389 173.85 217.496 177.766C219.603 181.681 224.437 183.119 228.291 180.979Z" fill="#FFB7B7"/>
<path d="M213.289 173.28H224.775L224.893 171.605L225.482 173.28H227.251L227.484 169.96L228.651 173.28H232.073V173.115C232.071 170.804 231.166 168.589 229.557 166.954C227.948 165.32 225.766 164.401 223.491 164.399H221.872C219.596 164.401 217.415 165.32 215.806 166.954C214.197 168.589 213.292 170.804 213.289 173.115V173.28Z" fill="#2F2E41"/>
<path d="M230.338 179.3L235.24 177.684V165.595H225.981L226.21 165.827C229.4 169.062 232.946 180.539 230.338 179.3Z" fill="#2F2E41"/>
</g>
<rect x="40.7142" y="538" width="248.571" height="47" rx="16" fill="#0FA5E9"/>
<path d="M131.774 561.24C131.774 560.547 131.891 559.869 132.126 559.208C132.371 558.536 132.723 557.928 133.182 557.384C133.64 556.829 134.206 556.392 134.878 556.072C135.55 555.741 136.312 555.576 137.166 555.576C138.179 555.576 139.043 555.811 139.758 556.28C140.483 556.739 141.016 557.331 141.358 558.056L140.478 558.6C140.232 558.099 139.923 557.704 139.55 557.416C139.176 557.117 138.776 556.904 138.35 556.776C137.934 556.648 137.518 556.584 137.102 556.584C136.419 556.584 135.816 556.723 135.294 557C134.771 557.267 134.328 557.629 133.966 558.088C133.614 558.536 133.347 559.043 133.166 559.608C132.984 560.163 132.894 560.728 132.894 561.304C132.894 561.933 133 562.536 133.214 563.112C133.427 563.688 133.726 564.2 134.11 564.648C134.494 565.085 134.942 565.437 135.454 565.704C135.976 565.96 136.542 566.088 137.15 566.088C137.576 566.088 138.014 566.013 138.462 565.864C138.91 565.715 139.326 565.485 139.71 565.176C140.104 564.867 140.419 564.467 140.654 563.976L141.582 564.456C141.347 565.021 140.984 565.501 140.494 565.896C140.003 566.291 139.454 566.589 138.846 566.792C138.248 566.995 137.662 567.096 137.086 567.096C136.307 567.096 135.592 566.931 134.942 566.6C134.291 566.259 133.726 565.811 133.246 565.256C132.776 564.691 132.414 564.061 132.158 563.368C131.902 562.664 131.774 561.955 131.774 561.24ZM146.822 567.16C146.225 567.16 145.67 567.048 145.158 566.824C144.657 566.589 144.22 566.275 143.846 565.88C143.484 565.475 143.201 565.016 142.998 564.504C142.796 563.981 142.694 563.432 142.694 562.856C142.694 562.259 142.796 561.704 142.998 561.192C143.201 560.669 143.489 560.211 143.862 559.816C144.236 559.411 144.673 559.096 145.174 558.872C145.686 558.637 146.241 558.52 146.838 558.52C147.436 558.52 147.985 558.637 148.486 558.872C148.988 559.096 149.425 559.411 149.798 559.816C150.172 560.211 150.46 560.669 150.662 561.192C150.865 561.704 150.966 562.259 150.966 562.856C150.966 563.432 150.865 563.981 150.662 564.504C150.46 565.016 150.172 565.475 149.798 565.88C149.436 566.275 148.998 566.589 148.486 566.824C147.985 567.048 147.43 567.16 146.822 567.16ZM143.798 562.872C143.798 563.491 143.932 564.056 144.198 564.568C144.476 565.069 144.844 565.469 145.302 565.768C145.761 566.056 146.268 566.2 146.822 566.2C147.377 566.2 147.884 566.051 148.342 565.752C148.801 565.453 149.169 565.048 149.446 564.536C149.724 564.013 149.862 563.448 149.862 562.84C149.862 562.221 149.724 561.656 149.446 561.144C149.169 560.632 148.801 560.227 148.342 559.928C147.884 559.629 147.377 559.48 146.822 559.48C146.268 559.48 145.761 559.635 145.302 559.944C144.854 560.253 144.492 560.664 144.214 561.176C143.937 561.677 143.798 562.243 143.798 562.872ZM159.794 567H158.706V562.344C158.706 561.363 158.562 560.648 158.274 560.2C157.986 559.741 157.533 559.512 156.914 559.512C156.487 559.512 156.066 559.619 155.65 559.832C155.234 560.035 154.866 560.317 154.546 560.68C154.237 561.032 154.013 561.437 153.874 561.896V567H152.786V558.664H153.778V560.552C154.002 560.147 154.295 559.795 154.658 559.496C155.021 559.187 155.431 558.947 155.89 558.776C156.349 558.605 156.823 558.52 157.314 558.52C157.773 558.52 158.162 558.605 158.482 558.776C158.802 558.947 159.058 559.192 159.25 559.512C159.442 559.821 159.581 560.2 159.666 560.648C159.751 561.085 159.794 561.576 159.794 562.12V567ZM166.036 566.6C165.951 566.632 165.817 566.691 165.636 566.776C165.455 566.861 165.236 566.936 164.98 567C164.724 567.064 164.447 567.096 164.148 567.096C163.839 567.096 163.545 567.037 163.268 566.92C163.001 566.803 162.788 566.627 162.628 566.392C162.468 566.147 162.388 565.848 162.388 565.496V559.528H161.236V558.664H162.388V555.848H163.476V558.664H165.396V559.528H163.476V565.192C163.497 565.491 163.604 565.715 163.796 565.864C163.999 566.013 164.228 566.088 164.484 566.088C164.783 566.088 165.055 566.04 165.3 565.944C165.545 565.837 165.695 565.763 165.748 565.72L166.036 566.6ZM167.395 567V558.664H168.483V567H167.395ZM167.395 556.92V555.32H168.483V556.92H167.395ZM177.888 567H176.8V562.344C176.8 561.363 176.656 560.648 176.368 560.2C176.08 559.741 175.626 559.512 175.008 559.512C174.581 559.512 174.16 559.619 173.744 559.832C173.328 560.035 172.96 560.317 172.64 560.68C172.33 561.032 172.106 561.437 171.968 561.896V567H170.88V558.664H171.872V560.552C172.096 560.147 172.389 559.795 172.752 559.496C173.114 559.187 173.525 558.947 173.984 558.776C174.442 558.605 174.917 558.52 175.408 558.52C175.866 558.52 176.256 558.605 176.576 558.776C176.896 558.947 177.152 559.192 177.344 559.512C177.536 559.821 177.674 560.2 177.76 560.648C177.845 561.085 177.888 561.576 177.888 562.12V567ZM180.128 563.56V558.664H181.216V563.368C181.216 564.317 181.376 565.027 181.696 565.496C182.026 565.965 182.512 566.2 183.152 566.2C183.578 566.2 183.989 566.109 184.384 565.928C184.789 565.736 185.146 565.469 185.456 565.128C185.765 564.776 186 564.371 186.16 563.912V558.664H187.248V565.688C187.248 565.837 187.28 565.949 187.344 566.024C187.408 566.088 187.504 566.125 187.632 566.136V567C187.504 567.011 187.402 567.016 187.328 567.016C187.253 567.027 187.184 567.032 187.12 567.032C186.906 567.011 186.72 566.925 186.56 566.776C186.41 566.627 186.33 566.445 186.32 566.232L186.288 565.112C185.925 565.752 185.429 566.253 184.8 566.616C184.181 566.979 183.509 567.16 182.784 567.16C181.909 567.16 181.248 566.856 180.8 566.248C180.352 565.64 180.128 564.744 180.128 563.56ZM193.308 567.16C192.71 567.16 192.156 567.048 191.644 566.824C191.132 566.589 190.689 566.275 190.316 565.88C189.942 565.475 189.649 565.011 189.436 564.488C189.233 563.965 189.132 563.405 189.132 562.808C189.132 562.029 189.308 561.315 189.66 560.664C190.022 560.013 190.518 559.496 191.148 559.112C191.777 558.717 192.492 558.52 193.292 558.52C194.113 558.52 194.828 558.717 195.436 559.112C196.054 559.507 196.54 560.029 196.892 560.68C197.244 561.32 197.42 562.024 197.42 562.792C197.42 562.877 197.42 562.963 197.42 563.048C197.42 563.123 197.414 563.181 197.404 563.224H190.268C190.321 563.821 190.486 564.355 190.764 564.824C191.052 565.283 191.42 565.651 191.868 565.928C192.326 566.195 192.822 566.328 193.356 566.328C193.9 566.328 194.412 566.189 194.892 565.912C195.382 565.635 195.724 565.272 195.916 564.824L196.86 565.08C196.689 565.475 196.428 565.832 196.076 566.152C195.724 566.472 195.308 566.723 194.828 566.904C194.358 567.075 193.852 567.16 193.308 567.16ZM190.236 562.44H196.396C196.353 561.832 196.188 561.299 195.9 560.84C195.622 560.381 195.254 560.024 194.796 559.768C194.348 559.501 193.852 559.368 193.308 559.368C192.764 559.368 192.268 559.501 191.82 559.768C191.372 560.024 191.004 560.387 190.716 560.856C190.438 561.315 190.278 561.843 190.236 562.44Z" fill="white"/>
<path d="M63.4712 405.686H57.5692V421H54.0072V405.686H48.1052V402.54H63.4712V405.686ZM62.2545 416.97C62.2545 416.086 62.4972 415.315 62.9825 414.656C63.4852 413.98 64.1785 413.46 65.0625 413.096C65.9465 412.732 66.9605 412.55 68.1045 412.55C68.6765 412.55 69.2572 412.593 69.8465 412.68C70.4358 412.767 70.9472 412.905 71.3805 413.096V412.368C71.3805 411.501 71.1205 410.834 70.6005 410.366C70.0978 409.898 69.3438 409.664 68.3385 409.664C67.5932 409.664 66.8825 409.794 66.2065 410.054C65.5305 410.314 64.8198 410.695 64.0745 411.198L62.9565 408.91C63.8578 408.321 64.7765 407.879 65.7125 407.584C66.6658 407.289 67.6625 407.142 68.7025 407.142C70.6438 407.142 72.1518 407.627 73.2265 408.598C74.3185 409.569 74.8645 410.955 74.8645 412.758V417.1C74.8645 417.464 74.9252 417.724 75.0465 417.88C75.1852 418.036 75.4018 418.131 75.6965 418.166V421C75.3845 421.052 75.0985 421.095 74.8385 421.13C74.5958 421.165 74.3878 421.182 74.2145 421.182C73.5212 421.182 72.9925 421.026 72.6285 420.714C72.2818 420.402 72.0652 420.021 71.9785 419.57L71.9005 418.868C71.3112 419.631 70.5745 420.22 69.6905 420.636C68.8065 421.052 67.9052 421.26 66.9865 421.26C66.0852 421.26 65.2705 421.078 64.5425 420.714C63.8318 420.333 63.2685 419.821 62.8525 419.18C62.4538 418.521 62.2545 417.785 62.2545 416.97ZM70.7305 417.672C70.9212 417.464 71.0772 417.256 71.1985 417.048C71.3198 416.84 71.3805 416.649 71.3805 416.476V415.098C70.9645 414.925 70.5138 414.795 70.0285 414.708C69.5432 414.604 69.0838 414.552 68.6505 414.552C67.7492 414.552 67.0038 414.751 66.4145 415.15C65.8425 415.531 65.5565 416.043 65.5565 416.684C65.5565 417.031 65.6518 417.36 65.8425 417.672C66.0332 417.984 66.3105 418.235 66.6745 418.426C67.0385 418.617 67.4718 418.712 67.9745 418.712C68.4945 418.712 69.0058 418.617 69.5085 418.426C70.0112 418.218 70.4185 417.967 70.7305 417.672ZM87.4282 421L83.4502 415.124L81.6042 416.944V421H78.1202V402.02H81.6042V413.512L87.0902 407.402H90.7822L85.7122 413.174L91.1462 421H87.4282ZM98.2253 421.26C97.1333 421.26 96.1453 421.078 95.2613 420.714C94.3773 420.333 93.6233 419.821 92.9993 419.18C92.3753 418.521 91.89 417.776 91.5433 416.944C91.214 416.095 91.0493 415.202 91.0493 414.266C91.0493 412.966 91.3353 411.779 91.9073 410.704C92.4966 409.629 93.3286 408.771 94.4033 408.13C95.4953 407.471 96.778 407.142 98.2513 407.142C99.742 407.142 101.016 407.471 102.073 408.13C103.131 408.771 103.937 409.629 104.491 410.704C105.063 411.761 105.349 412.905 105.349 414.136C105.349 414.344 105.341 414.561 105.323 414.786C105.306 414.994 105.289 415.167 105.271 415.306H94.7413C94.8106 415.999 95.01 416.606 95.3393 417.126C95.686 417.646 96.1193 418.045 96.6393 418.322C97.1766 418.582 97.7486 418.712 98.3553 418.712C99.0486 418.712 99.6986 418.547 100.305 418.218C100.929 417.871 101.354 417.421 101.579 416.866L104.569 417.698C104.24 418.391 103.763 419.007 103.139 419.544C102.533 420.081 101.813 420.506 100.981 420.818C100.149 421.113 99.2306 421.26 98.2253 421.26ZM94.6633 413.096H101.787C101.718 412.403 101.519 411.805 101.189 411.302C100.877 410.782 100.461 410.383 99.9413 410.106C99.4213 409.811 98.8406 409.664 98.1993 409.664C97.5753 409.664 97.0033 409.811 96.4833 410.106C95.9806 410.383 95.5646 410.782 95.2353 411.302C94.9233 411.805 94.7326 412.403 94.6633 413.096ZM113.293 423.652C113.605 423.721 113.891 423.782 114.151 423.834C114.428 423.886 114.662 423.912 114.853 423.912C115.182 423.912 115.451 423.825 115.659 423.652C115.884 423.496 116.101 423.201 116.309 422.768C116.517 422.352 116.734 421.763 116.959 421L111.577 407.376H115.191L118.857 417.438L122.081 407.376H125.409L119.689 423.704C119.481 424.311 119.16 424.857 118.727 425.342C118.311 425.845 117.782 426.235 117.141 426.512C116.517 426.807 115.815 426.954 115.035 426.954C114.758 426.954 114.48 426.928 114.203 426.876C113.926 426.841 113.622 426.772 113.293 426.668V423.652ZM133.137 421.26C132.027 421.26 131.031 421.078 130.147 420.714C129.263 420.333 128.509 419.813 127.885 419.154C127.278 418.495 126.81 417.741 126.481 416.892C126.151 416.043 125.987 415.15 125.987 414.214C125.987 413.261 126.151 412.359 126.481 411.51C126.81 410.661 127.278 409.907 127.885 409.248C128.509 408.589 129.263 408.078 130.147 407.714C131.031 407.333 132.027 407.142 133.137 407.142C134.246 407.142 135.234 407.333 136.101 407.714C136.985 408.078 137.739 408.589 138.363 409.248C138.987 409.907 139.455 410.661 139.767 411.51C140.096 412.359 140.261 413.261 140.261 414.214C140.261 415.15 140.096 416.043 139.767 416.892C139.455 417.741 138.987 418.495 138.363 419.154C137.756 419.813 137.011 420.333 136.127 420.714C135.243 421.078 134.246 421.26 133.137 421.26ZM129.575 414.214C129.575 415.011 129.731 415.722 130.043 416.346C130.355 416.953 130.779 417.429 131.317 417.776C131.854 418.123 132.461 418.296 133.137 418.296C133.795 418.296 134.393 418.123 134.931 417.776C135.468 417.412 135.893 416.927 136.205 416.32C136.534 415.696 136.699 414.985 136.699 414.188C136.699 413.408 136.534 412.706 136.205 412.082C135.893 411.458 135.468 410.973 134.931 410.626C134.393 410.279 133.795 410.106 133.137 410.106C132.461 410.106 131.854 410.288 131.317 410.652C130.779 410.999 130.355 411.484 130.043 412.108C129.731 412.715 129.575 413.417 129.575 414.214ZM142.482 415.904V407.376H145.966V415.15C145.966 416.19 146.157 416.979 146.538 417.516C146.92 418.036 147.483 418.296 148.228 418.296C148.679 418.296 149.121 418.209 149.554 418.036C150.005 417.845 150.412 417.568 150.776 417.204C151.158 416.84 151.478 416.381 151.738 415.826V407.376H155.222V417.1C155.222 417.464 155.283 417.724 155.404 417.88C155.543 418.036 155.76 418.131 156.054 418.166V421C155.708 421.052 155.413 421.087 155.17 421.104C154.945 421.139 154.737 421.156 154.546 421.156C153.922 421.156 153.411 421.017 153.012 420.74C152.631 420.445 152.406 420.047 152.336 419.544L152.258 418.452C151.652 419.371 150.872 420.073 149.918 420.558C148.965 421.026 147.916 421.26 146.772 421.26C145.368 421.26 144.302 420.809 143.574 419.908C142.846 418.989 142.482 417.655 142.482 415.904ZM166.797 410.392C165.739 410.392 164.795 410.6 163.963 411.016C163.131 411.415 162.533 411.995 162.169 412.758V421H158.685V407.376H161.883V410.288C162.368 409.352 162.983 408.615 163.729 408.078C164.474 407.541 165.263 407.246 166.095 407.194C166.285 407.194 166.433 407.194 166.537 407.194C166.641 407.194 166.727 407.203 166.797 407.22V410.392ZM175.233 410.756H173.439V408.104H175.233V407.272C175.233 406.509 175.355 405.799 175.597 405.14C175.857 404.481 176.221 403.901 176.689 403.398C177.175 402.878 177.755 402.479 178.431 402.202C179.125 401.907 179.905 401.76 180.771 401.76C181.43 401.76 182.045 401.829 182.617 401.968C183.207 402.107 183.761 402.306 184.281 402.566C184.819 402.826 185.33 403.121 185.815 403.45L184.437 406.05C183.987 405.651 183.458 405.331 182.851 405.088C182.245 404.845 181.629 404.724 181.005 404.724C180.503 404.724 180.078 404.837 179.731 405.062C179.385 405.287 179.125 405.582 178.951 405.946C178.795 406.31 178.717 406.709 178.717 407.142V408.104H186.023V421H182.539V410.756H178.717V421H175.233V410.756ZM197.291 410.392C196.233 410.392 195.289 410.6 194.457 411.016C193.625 411.415 193.027 411.995 192.663 412.758V421H189.179V407.376H192.377V410.288C192.862 409.352 193.477 408.615 194.223 408.078C194.968 407.541 195.757 407.246 196.589 407.194C196.779 407.194 196.927 407.194 197.031 407.194C197.135 407.194 197.221 407.203 197.291 407.22V410.392ZM204.251 421.26C203.09 421.26 201.981 421.069 200.923 420.688C199.866 420.307 198.956 419.743 198.193 418.998L199.441 416.736C200.256 417.395 201.053 417.88 201.833 418.192C202.631 418.504 203.393 418.66 204.121 418.66C204.797 418.66 205.335 418.539 205.733 418.296C206.149 418.053 206.357 417.689 206.357 417.204C206.357 416.875 206.245 416.623 206.019 416.45C205.794 416.259 205.465 416.095 205.031 415.956C204.615 415.817 204.104 415.661 203.497 415.488C202.492 415.159 201.651 414.838 200.975 414.526C200.299 414.214 199.788 413.824 199.441 413.356C199.112 412.871 198.947 412.255 198.947 411.51C198.947 410.609 199.173 409.837 199.623 409.196C200.091 408.537 200.733 408.026 201.547 407.662C202.379 407.298 203.35 407.116 204.459 407.116C205.43 407.116 206.349 407.272 207.215 407.584C208.082 407.879 208.871 408.364 209.581 409.04L208.177 411.25C207.484 410.713 206.825 410.323 206.201 410.08C205.577 409.82 204.945 409.69 204.303 409.69C203.939 409.69 203.593 409.733 203.263 409.82C202.951 409.907 202.691 410.054 202.483 410.262C202.293 410.453 202.197 410.73 202.197 411.094C202.197 411.423 202.284 411.683 202.457 411.874C202.648 412.047 202.925 412.203 203.289 412.342C203.671 412.481 204.13 412.637 204.667 412.81C205.759 413.122 206.678 413.443 207.423 413.772C208.186 414.101 208.758 414.509 209.139 414.994C209.521 415.462 209.711 416.112 209.711 416.944C209.711 418.296 209.217 419.353 208.229 420.116C207.241 420.879 205.915 421.26 204.251 421.26ZM220.169 420.298C219.874 420.419 219.519 420.558 219.103 420.714C218.687 420.87 218.236 420.991 217.751 421.078C217.283 421.182 216.806 421.234 216.321 421.234C215.68 421.234 215.09 421.121 214.553 420.896C214.016 420.671 213.582 420.315 213.253 419.83C212.941 419.327 212.785 418.677 212.785 417.88V410.054H210.991V407.376H212.785V402.956H216.269V407.376H219.129V410.054H216.269V416.71C216.286 417.178 216.416 417.516 216.659 417.724C216.902 417.932 217.205 418.036 217.569 418.036C217.933 418.036 218.288 417.975 218.635 417.854C218.982 417.733 219.259 417.629 219.467 417.542L220.169 420.298ZM233.248 421.26C232.086 421.26 230.977 421.069 229.92 420.688C228.862 420.307 227.952 419.743 227.19 418.998L228.438 416.736C229.252 417.395 230.05 417.88 230.83 418.192C231.627 418.504 232.39 418.66 233.118 418.66C233.794 418.66 234.331 418.539 234.73 418.296C235.146 418.053 235.354 417.689 235.354 417.204C235.354 416.875 235.241 416.623 235.016 416.45C234.79 416.259 234.461 416.095 234.028 415.956C233.612 415.817 233.1 415.661 232.494 415.488C231.488 415.159 230.648 414.838 229.972 414.526C229.296 414.214 228.784 413.824 228.438 413.356C228.108 412.871 227.944 412.255 227.944 411.51C227.944 410.609 228.169 409.837 228.62 409.196C229.088 408.537 229.729 408.026 230.544 407.662C231.376 407.298 232.346 407.116 233.456 407.116C234.426 407.116 235.345 407.272 236.212 407.584C237.078 407.879 237.867 408.364 238.578 409.04L237.174 411.25C236.48 410.713 235.822 410.323 235.198 410.08C234.574 409.82 233.941 409.69 233.3 409.69C232.936 409.69 232.589 409.733 232.26 409.82C231.948 409.907 231.688 410.054 231.48 410.262C231.289 410.453 231.194 410.73 231.194 411.094C231.194 411.423 231.28 411.683 231.454 411.874C231.644 412.047 231.922 412.203 232.286 412.342C232.667 412.481 233.126 412.637 233.664 412.81C234.756 413.122 235.674 413.443 236.42 413.772C237.182 414.101 237.754 414.509 238.136 414.994C238.517 415.462 238.708 416.112 238.708 416.944C238.708 418.296 238.214 419.353 237.226 420.116C236.238 420.879 234.912 421.26 233.248 421.26ZM249.165 420.298C248.87 420.419 248.515 420.558 248.099 420.714C247.683 420.87 247.232 420.991 246.747 421.078C246.279 421.182 245.802 421.234 245.317 421.234C244.676 421.234 244.086 421.121 243.549 420.896C243.012 420.671 242.578 420.315 242.249 419.83C241.937 419.327 241.781 418.677 241.781 417.88V410.054H239.987V407.376H241.781V402.956H245.265V407.376H248.125V410.054H245.265V416.71C245.282 417.178 245.412 417.516 245.655 417.724C245.898 417.932 246.201 418.036 246.565 418.036C246.929 418.036 247.284 417.975 247.631 417.854C247.978 417.733 248.255 417.629 248.463 417.542L249.165 420.298ZM257.12 421.26C256.028 421.26 255.04 421.078 254.156 420.714C253.272 420.333 252.518 419.821 251.894 419.18C251.27 418.521 250.784 417.776 250.438 416.944C250.108 416.095 249.944 415.202 249.944 414.266C249.944 412.966 250.23 411.779 250.802 410.704C251.391 409.629 252.223 408.771 253.298 408.13C254.39 407.471 255.672 407.142 257.146 407.142C258.636 407.142 259.91 407.471 260.968 408.13C262.025 408.771 262.831 409.629 263.386 410.704C263.958 411.761 264.244 412.905 264.244 414.136C264.244 414.344 264.235 414.561 264.218 414.786C264.2 414.994 264.183 415.167 264.166 415.306H253.636C253.705 415.999 253.904 416.606 254.234 417.126C254.58 417.646 255.014 418.045 255.534 418.322C256.071 418.582 256.643 418.712 257.25 418.712C257.943 418.712 258.593 418.547 259.2 418.218C259.824 417.871 260.248 417.421 260.474 416.866L263.464 417.698C263.134 418.391 262.658 419.007 262.034 419.544C261.427 420.081 260.708 420.506 259.876 420.818C259.044 421.113 258.125 421.26 257.12 421.26ZM253.558 413.096H260.682C260.612 412.403 260.413 411.805 260.084 411.302C259.772 410.782 259.356 410.383 258.836 410.106C258.316 409.811 257.735 409.664 257.094 409.664C256.47 409.664 255.898 409.811 255.378 410.106C254.875 410.383 254.459 410.782 254.13 411.302C253.818 411.805 253.627 412.403 253.558 413.096ZM274.53 421.26C273.473 421.26 272.537 421.026 271.722 420.558C270.925 420.073 270.301 419.423 269.85 418.608V426.538H266.366V407.376H269.408V409.716C269.928 408.919 270.587 408.295 271.384 407.844C272.182 407.376 273.092 407.142 274.114 407.142C275.033 407.142 275.874 407.324 276.636 407.688C277.416 408.052 278.092 408.563 278.664 409.222C279.236 409.863 279.678 410.609 279.99 411.458C280.32 412.29 280.484 413.191 280.484 414.162C280.484 415.479 280.224 416.675 279.704 417.75C279.202 418.825 278.5 419.683 277.598 420.324C276.714 420.948 275.692 421.26 274.53 421.26ZM273.36 418.296C273.898 418.296 274.383 418.183 274.816 417.958C275.25 417.733 275.622 417.429 275.934 417.048C276.264 416.649 276.506 416.207 276.662 415.722C276.836 415.219 276.922 414.699 276.922 414.162C276.922 413.59 276.827 413.061 276.636 412.576C276.463 412.091 276.203 411.666 275.856 411.302C275.51 410.921 275.102 410.626 274.634 410.418C274.184 410.21 273.69 410.106 273.152 410.106C272.823 410.106 272.485 410.167 272.138 410.288C271.809 410.392 271.488 410.548 271.176 410.756C270.864 410.964 270.587 411.207 270.344 411.484C270.119 411.761 269.954 412.065 269.85 412.394V415.592C270.058 416.095 270.336 416.554 270.682 416.97C271.046 417.386 271.462 417.715 271.93 417.958C272.398 418.183 272.875 418.296 273.36 418.296Z" fill="#18181B"/>
<path opacity="0.7" d="M49.2279 463V453.622H50.4519V463H49.2279ZM49.2279 451.66V449.86H50.4519V451.66H49.2279ZM57.6479 462.55C57.5519 462.586 57.4019 462.652 57.1979 462.748C56.9939 462.844 56.7479 462.928 56.4599 463C56.1719 463.072 55.8599 463.108 55.5239 463.108C55.1759 463.108 54.8459 463.042 54.5339 462.91C54.2339 462.778 53.9939 462.58 53.8139 462.316C53.6339 462.04 53.5439 461.704 53.5439 461.308V454.594H52.2479V453.622H53.5439V450.454H54.7679V453.622H56.9279V454.594H54.7679V460.966C54.7919 461.302 54.9119 461.554 55.1279 461.722C55.3559 461.89 55.6139 461.974 55.9019 461.974C56.2379 461.974 56.5439 461.92 56.8199 461.812C57.0959 461.692 57.2639 461.608 57.3239 461.56L57.6479 462.55ZM77.715 463H76.491V457.762C76.491 456.67 76.317 455.866 75.969 455.35C75.621 454.834 75.105 454.576 74.421 454.576C73.713 454.576 73.077 454.828 72.513 455.332C71.961 455.836 71.571 456.484 71.343 457.276V463H70.119V457.762C70.119 456.658 69.951 455.854 69.615 455.35C69.279 454.834 68.763 454.576 68.067 454.576C67.371 454.576 66.741 454.822 66.177 455.314C65.613 455.806 65.217 456.454 64.989 457.258V463H63.765V453.622H64.881V455.746C65.277 455.014 65.781 454.45 66.393 454.054C67.017 453.658 67.707 453.46 68.463 453.46C69.243 453.46 69.873 453.682 70.353 454.126C70.833 454.57 71.127 455.152 71.235 455.872C71.667 455.08 72.183 454.48 72.783 454.072C73.395 453.664 74.085 453.46 74.853 453.46C75.381 453.46 75.825 453.556 76.185 453.748C76.557 453.94 76.851 454.216 77.067 454.576C77.295 454.924 77.457 455.35 77.553 455.854C77.661 456.346 77.715 456.898 77.715 457.51V463ZM80.3061 463V453.622H81.5301V463H80.3061ZM80.3061 451.66V449.86H81.5301V451.66H80.3061ZM87.988 463.126C87.352 463.126 86.764 462.994 86.224 462.73C85.684 462.466 85.216 462.112 84.82 461.668C84.436 461.212 84.136 460.696 83.92 460.12C83.704 459.544 83.596 458.95 83.596 458.338C83.596 457.678 83.698 457.06 83.902 456.484C84.118 455.896 84.418 455.374 84.802 454.918C85.198 454.462 85.66 454.108 86.188 453.856C86.716 453.592 87.304 453.46 87.952 453.46C88.756 453.46 89.452 453.664 90.04 454.072C90.64 454.48 91.144 454.984 91.552 455.584V453.622H92.65V463.036C92.65 463.9 92.44 464.626 92.02 465.214C91.612 465.814 91.054 466.264 90.346 466.564C89.65 466.864 88.888 467.014 88.06 467.014C86.992 467.014 86.128 466.822 85.468 466.438C84.808 466.054 84.268 465.538 83.848 464.89L84.604 464.296C84.976 464.884 85.468 465.322 86.08 465.61C86.704 465.898 87.364 466.042 88.06 466.042C88.672 466.042 89.23 465.928 89.734 465.7C90.25 465.484 90.658 465.154 90.958 464.71C91.27 464.266 91.426 463.708 91.426 463.036V461.182C91.066 461.77 90.574 462.244 89.95 462.604C89.326 462.952 88.672 463.126 87.988 463.126ZM88.33 462.1C88.702 462.1 89.056 462.034 89.392 461.902C89.74 461.77 90.058 461.596 90.346 461.38C90.634 461.152 90.874 460.9 91.066 460.624C91.258 460.348 91.378 460.066 91.426 459.778V456.88C91.246 456.424 90.988 456.022 90.652 455.674C90.316 455.314 89.932 455.038 89.5 454.846C89.08 454.642 88.642 454.54 88.186 454.54C87.658 454.54 87.184 454.654 86.764 454.882C86.356 455.098 86.008 455.392 85.72 455.764C85.444 456.124 85.228 456.532 85.072 456.988C84.916 457.444 84.838 457.9 84.838 458.356C84.838 458.86 84.928 459.34 85.108 459.796C85.288 460.24 85.534 460.642 85.846 461.002C86.17 461.35 86.542 461.62 86.962 461.812C87.394 462.004 87.85 462.1 88.33 462.1ZM103.237 463H102.013V457.762C102.013 456.706 101.827 455.914 101.455 455.386C101.083 454.846 100.549 454.576 99.8529 454.576C99.3969 454.576 98.9409 454.696 98.4849 454.936C98.0409 455.164 97.6449 455.482 97.2969 455.89C96.9609 456.286 96.7209 456.742 96.5769 457.258V463H95.3529V449.86H96.5769V455.746C96.9489 455.05 97.4649 454.498 98.1249 454.09C98.7969 453.67 99.5109 453.46 100.267 453.46C100.807 453.46 101.263 453.556 101.635 453.748C102.019 453.94 102.325 454.222 102.553 454.594C102.793 454.954 102.967 455.38 103.075 455.872C103.183 456.352 103.237 456.898 103.237 457.51V463ZM110.259 462.55C110.163 462.586 110.013 462.652 109.809 462.748C109.605 462.844 109.359 462.928 109.071 463C108.783 463.072 108.471 463.108 108.135 463.108C107.787 463.108 107.457 463.042 107.145 462.91C106.845 462.778 106.605 462.58 106.425 462.316C106.245 462.04 106.155 461.704 106.155 461.308V454.594H104.859V453.622H106.155V450.454H107.379V453.622H109.539V454.594H107.379V460.966C107.403 461.302 107.523 461.554 107.739 461.722C107.967 461.89 108.225 461.974 108.513 461.974C108.849 461.974 109.155 461.92 109.431 461.812C109.707 461.692 109.875 461.608 109.935 461.56L110.259 462.55ZM120.876 462.55C120.78 462.586 120.63 462.652 120.426 462.748C120.222 462.844 119.976 462.928 119.688 463C119.4 463.072 119.088 463.108 118.752 463.108C118.404 463.108 118.074 463.042 117.762 462.91C117.462 462.778 117.222 462.58 117.042 462.316C116.862 462.04 116.772 461.704 116.772 461.308V454.594H115.476V453.622H116.772V450.454H117.996V453.622H120.156V454.594H117.996V460.966C118.02 461.302 118.14 461.554 118.356 461.722C118.584 461.89 118.842 461.974 119.13 461.974C119.466 461.974 119.772 461.92 120.048 461.812C120.324 461.692 120.492 461.608 120.552 461.56L120.876 462.55ZM121.65 460.3C121.65 459.712 121.818 459.208 122.154 458.788C122.49 458.356 122.952 458.026 123.54 457.798C124.14 457.558 124.83 457.438 125.61 457.438C126.066 457.438 126.54 457.474 127.032 457.546C127.524 457.618 127.962 457.726 128.346 457.87V457.078C128.346 456.286 128.112 455.656 127.644 455.188C127.176 454.72 126.528 454.486 125.7 454.486C125.196 454.486 124.698 454.582 124.206 454.774C123.726 454.954 123.222 455.224 122.694 455.584L122.226 454.72C122.838 454.3 123.438 453.988 124.026 453.784C124.614 453.568 125.214 453.46 125.826 453.46C126.978 453.46 127.89 453.79 128.562 454.45C129.234 455.11 129.57 456.022 129.57 457.186V461.524C129.57 461.692 129.606 461.818 129.678 461.902C129.75 461.974 129.864 462.016 130.02 462.028V463C129.888 463.012 129.774 463.024 129.678 463.036C129.582 463.048 129.51 463.048 129.462 463.036C129.162 463.024 128.934 462.928 128.778 462.748C128.622 462.568 128.538 462.376 128.526 462.172L128.508 461.488C128.088 462.028 127.542 462.448 126.87 462.748C126.198 463.036 125.514 463.18 124.818 463.18C124.218 463.18 123.672 463.054 123.18 462.802C122.7 462.538 122.322 462.19 122.046 461.758C121.782 461.314 121.65 460.828 121.65 460.3ZM127.932 461.02C128.064 460.852 128.166 460.69 128.238 460.534C128.31 460.378 128.346 460.24 128.346 460.12V458.752C127.938 458.596 127.512 458.476 127.068 458.392C126.636 458.308 126.198 458.266 125.754 458.266C124.878 458.266 124.17 458.44 123.63 458.788C123.09 459.136 122.82 459.61 122.82 460.21C122.82 460.558 122.91 460.888 123.09 461.2C123.27 461.5 123.534 461.752 123.882 461.956C124.23 462.148 124.638 462.244 125.106 462.244C125.694 462.244 126.24 462.13 126.744 461.902C127.26 461.674 127.656 461.38 127.932 461.02ZM138.91 463L135.436 458.194L133.438 460.066V463H132.214V449.86H133.438V458.752L138.748 453.64H140.098L136.264 457.474L140.242 463H138.91ZM145.317 463.18C144.645 463.18 144.021 463.054 143.445 462.802C142.869 462.538 142.371 462.184 141.951 461.74C141.531 461.284 141.201 460.762 140.961 460.174C140.733 459.586 140.619 458.956 140.619 458.284C140.619 457.408 140.817 456.604 141.213 455.872C141.621 455.14 142.179 454.558 142.887 454.126C143.595 453.682 144.399 453.46 145.299 453.46C146.223 453.46 147.027 453.682 147.711 454.126C148.407 454.57 148.953 455.158 149.349 455.89C149.745 456.61 149.943 457.402 149.943 458.266C149.943 458.362 149.943 458.458 149.943 458.554C149.943 458.638 149.937 458.704 149.925 458.752H141.897C141.957 459.424 142.143 460.024 142.455 460.552C142.779 461.068 143.193 461.482 143.697 461.794C144.213 462.094 144.771 462.244 145.371 462.244C145.983 462.244 146.559 462.088 147.099 461.776C147.651 461.464 148.035 461.056 148.251 460.552L149.313 460.84C149.121 461.284 148.827 461.686 148.431 462.046C148.035 462.406 147.567 462.688 147.027 462.892C146.499 463.084 145.929 463.18 145.317 463.18ZM141.861 457.87H148.791C148.743 457.186 148.557 456.586 148.233 456.07C147.921 455.554 147.507 455.152 146.991 454.864C146.487 454.564 145.929 454.414 145.317 454.414C144.705 454.414 144.147 454.564 143.643 454.864C143.139 455.152 142.725 455.56 142.401 456.088C142.089 456.604 141.909 457.198 141.861 457.87ZM155.663 460.3C155.663 459.712 155.831 459.208 156.167 458.788C156.503 458.356 156.965 458.026 157.553 457.798C158.153 457.558 158.843 457.438 159.623 457.438C160.079 457.438 160.553 457.474 161.045 457.546C161.537 457.618 161.975 457.726 162.359 457.87V457.078C162.359 456.286 162.125 455.656 161.657 455.188C161.189 454.72 160.541 454.486 159.713 454.486C159.209 454.486 158.711 454.582 158.219 454.774C157.739 454.954 157.235 455.224 156.707 455.584L156.239 454.72C156.851 454.3 157.451 453.988 158.039 453.784C158.627 453.568 159.227 453.46 159.839 453.46C160.991 453.46 161.903 453.79 162.575 454.45C163.247 455.11 163.583 456.022 163.583 457.186V461.524C163.583 461.692 163.619 461.818 163.691 461.902C163.763 461.974 163.877 462.016 164.033 462.028V463C163.901 463.012 163.787 463.024 163.691 463.036C163.595 463.048 163.523 463.048 163.475 463.036C163.175 463.024 162.947 462.928 162.791 462.748C162.635 462.568 162.551 462.376 162.539 462.172L162.521 461.488C162.101 462.028 161.555 462.448 160.883 462.748C160.211 463.036 159.527 463.18 158.831 463.18C158.231 463.18 157.685 463.054 157.193 462.802C156.713 462.538 156.335 462.19 156.059 461.758C155.795 461.314 155.663 460.828 155.663 460.3ZM161.945 461.02C162.077 460.852 162.179 460.69 162.251 460.534C162.323 460.378 162.359 460.24 162.359 460.12V458.752C161.951 458.596 161.525 458.476 161.081 458.392C160.649 458.308 160.211 458.266 159.767 458.266C158.891 458.266 158.183 458.44 157.643 458.788C157.103 459.136 156.833 459.61 156.833 460.21C156.833 460.558 156.923 460.888 157.103 461.2C157.283 461.5 157.547 461.752 157.895 461.956C158.243 462.148 158.651 462.244 159.119 462.244C159.707 462.244 160.253 462.13 160.757 461.902C161.273 461.674 161.669 461.38 161.945 461.02ZM182.114 453.622H183.32L179.288 463H178.226L176.264 458.338L174.32 463H173.258L169.226 453.622H170.414L173.834 461.74L175.562 457.51L173.978 453.64H175.076L176.264 456.682L177.47 453.64H178.55L176.984 457.51L178.712 461.74L182.114 453.622ZM192.833 463H191.609V457.762C191.609 456.706 191.423 455.914 191.051 455.386C190.679 454.846 190.145 454.576 189.449 454.576C188.993 454.576 188.537 454.696 188.081 454.936C187.637 455.164 187.241 455.482 186.893 455.89C186.557 456.286 186.317 456.742 186.173 457.258V463H184.949V449.86H186.173V455.746C186.545 455.05 187.061 454.498 187.721 454.09C188.393 453.67 189.107 453.46 189.863 453.46C190.403 453.46 190.859 453.556 191.231 453.748C191.615 453.94 191.921 454.222 192.149 454.594C192.389 454.954 192.563 455.38 192.671 455.872C192.779 456.352 192.833 456.898 192.833 457.51V463ZM195.443 463V453.622H196.667V463H195.443ZM195.443 451.66V449.86H196.667V451.66H195.443ZM199.417 449.86H200.641V460.876C200.641 461.344 200.725 461.65 200.893 461.794C201.061 461.938 201.265 462.01 201.505 462.01C201.721 462.01 201.937 461.986 202.153 461.938C202.369 461.89 202.555 461.842 202.711 461.794L202.927 462.784C202.699 462.88 202.417 462.958 202.081 463.018C201.757 463.078 201.475 463.108 201.235 463.108C200.683 463.108 200.239 462.946 199.903 462.622C199.579 462.298 199.417 461.854 199.417 461.29V449.86ZM208.317 463.18C207.645 463.18 207.021 463.054 206.445 462.802C205.869 462.538 205.371 462.184 204.951 461.74C204.531 461.284 204.201 460.762 203.961 460.174C203.733 459.586 203.619 458.956 203.619 458.284C203.619 457.408 203.817 456.604 204.213 455.872C204.621 455.14 205.179 454.558 205.887 454.126C206.595 453.682 207.399 453.46 208.299 453.46C209.223 453.46 210.027 453.682 210.711 454.126C211.407 454.57 211.953 455.158 212.349 455.89C212.745 456.61 212.943 457.402 212.943 458.266C212.943 458.362 212.943 458.458 212.943 458.554C212.943 458.638 212.937 458.704 212.925 458.752H204.897C204.957 459.424 205.143 460.024 205.455 460.552C205.779 461.068 206.193 461.482 206.697 461.794C207.213 462.094 207.771 462.244 208.371 462.244C208.983 462.244 209.559 462.088 210.099 461.776C210.651 461.464 211.035 461.056 211.251 460.552L212.313 460.84C212.121 461.284 211.827 461.686 211.431 462.046C211.035 462.406 210.567 462.688 210.027 462.892C209.499 463.084 208.929 463.18 208.317 463.18ZM204.861 457.87H211.791C211.743 457.186 211.557 456.586 211.233 456.07C210.921 455.554 210.507 455.152 209.991 454.864C209.487 454.564 208.929 454.414 208.317 454.414C207.705 454.414 207.147 454.564 206.643 454.864C206.139 455.152 205.725 455.56 205.401 456.088C205.089 456.604 204.909 457.198 204.861 457.87ZM219.869 463V454.594H218.573V453.622H219.869V453.37C219.869 452.602 219.977 451.942 220.193 451.39C220.421 450.838 220.739 450.418 221.147 450.13C221.567 449.83 222.059 449.68 222.623 449.68C222.995 449.68 223.355 449.734 223.703 449.842C224.051 449.95 224.351 450.094 224.603 450.274L224.225 451.156C224.069 451.024 223.865 450.922 223.613 450.85C223.361 450.778 223.109 450.742 222.857 450.742C222.293 450.742 221.855 450.964 221.543 451.408C221.243 451.852 221.093 452.494 221.093 453.334V453.622H223.685V454.594H221.093V463H219.869ZM229.075 463.18C228.403 463.18 227.779 463.054 227.203 462.802C226.639 462.538 226.147 462.184 225.727 461.74C225.319 461.284 225.001 460.768 224.773 460.192C224.545 459.604 224.431 458.986 224.431 458.338C224.431 457.666 224.545 457.042 224.773 456.466C225.001 455.878 225.325 455.362 225.745 454.918C226.165 454.462 226.657 454.108 227.221 453.856C227.797 453.592 228.421 453.46 229.093 453.46C229.765 453.46 230.383 453.592 230.947 453.856C231.511 454.108 232.003 454.462 232.423 454.918C232.843 455.362 233.167 455.878 233.395 456.466C233.623 457.042 233.737 457.666 233.737 458.338C233.737 458.986 233.623 459.604 233.395 460.192C233.167 460.768 232.843 461.284 232.423 461.74C232.015 462.184 231.523 462.538 230.947 462.802C230.383 463.054 229.759 463.18 229.075 463.18ZM225.673 458.356C225.673 459.052 225.823 459.688 226.123 460.264C226.435 460.828 226.849 461.278 227.365 461.614C227.881 461.938 228.451 462.1 229.075 462.1C229.699 462.1 230.269 461.932 230.785 461.596C231.301 461.26 231.715 460.804 232.027 460.228C232.339 459.64 232.495 459.004 232.495 458.32C232.495 457.624 232.339 456.988 232.027 456.412C231.715 455.836 231.301 455.38 230.785 455.044C230.269 454.708 229.699 454.54 229.075 454.54C228.451 454.54 227.881 454.714 227.365 455.062C226.861 455.41 226.453 455.872 226.141 456.448C225.829 457.012 225.673 457.648 225.673 458.356ZM240.465 454.702C239.649 454.726 238.929 454.954 238.305 455.386C237.693 455.818 237.261 456.412 237.009 457.168V463H235.785V453.622H236.937V455.872C237.261 455.212 237.687 454.678 238.215 454.27C238.755 453.862 239.325 453.634 239.925 453.586C240.045 453.574 240.147 453.568 240.231 453.568C240.327 453.568 240.405 453.574 240.465 453.586V454.702ZM246.309 465.88C246.477 465.892 246.639 465.898 246.795 465.898C246.951 465.91 247.065 465.904 247.137 465.88C247.281 465.856 247.419 465.772 247.551 465.628C247.683 465.484 247.839 465.208 248.019 464.8C248.199 464.392 248.451 463.792 248.775 463L244.689 453.622H245.985L249.423 461.74L252.591 453.622H253.815L248.955 465.718C248.871 465.946 248.745 466.156 248.577 466.348C248.409 466.552 248.199 466.708 247.947 466.816C247.707 466.936 247.407 467.002 247.047 467.014C246.939 467.026 246.825 467.026 246.705 467.014C246.597 467.014 246.465 467.002 246.309 466.978V465.88ZM259.187 463.18C258.515 463.18 257.891 463.054 257.315 462.802C256.751 462.538 256.259 462.184 255.839 461.74C255.431 461.284 255.113 460.768 254.885 460.192C254.657 459.604 254.543 458.986 254.543 458.338C254.543 457.666 254.657 457.042 254.885 456.466C255.113 455.878 255.437 455.362 255.857 454.918C256.277 454.462 256.769 454.108 257.333 453.856C257.909 453.592 258.533 453.46 259.205 453.46C259.877 453.46 260.495 453.592 261.059 453.856C261.623 454.108 262.115 454.462 262.535 454.918C262.955 455.362 263.279 455.878 263.507 456.466C263.735 457.042 263.849 457.666 263.849 458.338C263.849 458.986 263.735 459.604 263.507 460.192C263.279 460.768 262.955 461.284 262.535 461.74C262.127 462.184 261.635 462.538 261.059 462.802C260.495 463.054 259.871 463.18 259.187 463.18ZM255.785 458.356C255.785 459.052 255.935 459.688 256.235 460.264C256.547 460.828 256.961 461.278 257.477 461.614C257.993 461.938 258.563 462.1 259.187 462.1C259.811 462.1 260.381 461.932 260.897 461.596C261.413 461.26 261.827 460.804 262.139 460.228C262.451 459.64 262.607 459.004 262.607 458.32C262.607 457.624 262.451 456.988 262.139 456.412C261.827 455.836 261.413 455.38 260.897 455.044C260.381 454.708 259.811 454.54 259.187 454.54C258.563 454.54 257.993 454.714 257.477 455.062C256.973 455.41 256.565 455.872 256.253 456.448C255.941 457.012 255.785 457.648 255.785 458.356ZM265.806 459.13V453.622H267.03V458.914C267.03 459.982 267.21 460.78 267.57 461.308C267.942 461.836 268.488 462.1 269.208 462.1C269.688 462.1 270.15 461.998 270.594 461.794C271.05 461.578 271.452 461.278 271.8 460.894C272.148 460.498 272.412 460.042 272.592 459.526V453.622H273.816V461.524C273.816 461.692 273.852 461.818 273.924 461.902C273.996 461.974 274.104 462.016 274.248 462.028V463C274.104 463.012 273.99 463.018 273.906 463.018C273.822 463.03 273.744 463.036 273.672 463.036C273.432 463.012 273.222 462.916 273.042 462.748C272.874 462.58 272.784 462.376 272.772 462.136L272.736 460.876C272.328 461.596 271.77 462.16 271.062 462.568C270.366 462.976 269.61 463.18 268.794 463.18C267.81 463.18 267.066 462.838 266.562 462.154C266.058 461.47 265.806 460.462 265.806 459.13ZM281.263 454.702C280.447 454.726 279.727 454.954 279.103 455.386C278.491 455.818 278.059 456.412 277.807 457.168V463H276.583V453.622H277.735V455.872C278.059 455.212 278.485 454.678 279.013 454.27C279.553 453.862 280.123 453.634 280.723 453.586C280.843 453.574 280.945 453.568 281.029 453.568C281.125 453.568 281.203 453.574 281.263 453.586V454.702ZM67.808 483.55C67.712 483.586 67.562 483.652 67.358 483.748C67.154 483.844 66.908 483.928 66.62 484C66.332 484.072 66.02 484.108 65.684 484.108C65.336 484.108 65.006 484.042 64.694 483.91C64.394 483.778 64.154 483.58 63.974 483.316C63.794 483.04 63.704 482.704 63.704 482.308V475.594H62.408V474.622H63.704V471.454H64.928V474.622H67.088V475.594H64.928V481.966C64.952 482.302 65.072 482.554 65.288 482.722C65.516 482.89 65.774 482.974 66.062 482.974C66.398 482.974 66.704 482.92 66.98 482.812C67.256 482.692 67.424 482.608 67.484 482.56L67.808 483.55ZM74.0173 475.702C73.2013 475.726 72.4813 475.954 71.8573 476.386C71.2453 476.818 70.8133 477.412 70.5613 478.168V484H69.3373V474.622H70.4893V476.872C70.8133 476.212 71.2393 475.678 71.7673 475.27C72.3073 474.862 72.8773 474.634 73.4773 474.586C73.5973 474.574 73.6993 474.568 73.7833 474.568C73.8793 474.568 73.9573 474.574 74.0173 474.586V475.702ZM74.8567 481.3C74.8567 480.712 75.0247 480.208 75.3607 479.788C75.6967 479.356 76.1587 479.026 76.7467 478.798C77.3467 478.558 78.0367 478.438 78.8167 478.438C79.2727 478.438 79.7467 478.474 80.2387 478.546C80.7307 478.618 81.1687 478.726 81.5527 478.87V478.078C81.5527 477.286 81.3187 476.656 80.8507 476.188C80.3827 475.72 79.7347 475.486 78.9067 475.486C78.4027 475.486 77.9047 475.582 77.4127 475.774C76.9327 475.954 76.4287 476.224 75.9007 476.584L75.4327 475.72C76.0447 475.3 76.6447 474.988 77.2327 474.784C77.8207 474.568 78.4207 474.46 79.0327 474.46C80.1847 474.46 81.0967 474.79 81.7687 475.45C82.4407 476.11 82.7767 477.022 82.7767 478.186V482.524C82.7767 482.692 82.8127 482.818 82.8847 482.902C82.9567 482.974 83.0707 483.016 83.2267 483.028V484C83.0947 484.012 82.9807 484.024 82.8847 484.036C82.7887 484.048 82.7167 484.048 82.6687 484.036C82.3687 484.024 82.1407 483.928 81.9847 483.748C81.8287 483.568 81.7447 483.376 81.7327 483.172L81.7147 482.488C81.2947 483.028 80.7487 483.448 80.0767 483.748C79.4047 484.036 78.7207 484.18 78.0247 484.18C77.4247 484.18 76.8787 484.054 76.3867 483.802C75.9067 483.538 75.5287 483.19 75.2527 482.758C74.9887 482.314 74.8567 481.828 74.8567 481.3ZM81.1387 482.02C81.2707 481.852 81.3727 481.69 81.4447 481.534C81.5167 481.378 81.5527 481.24 81.5527 481.12V479.752C81.1447 479.596 80.7187 479.476 80.2747 479.392C79.8427 479.308 79.4047 479.266 78.9607 479.266C78.0847 479.266 77.3767 479.44 76.8367 479.788C76.2967 480.136 76.0267 480.61 76.0267 481.21C76.0267 481.558 76.1167 481.888 76.2967 482.2C76.4767 482.5 76.7407 482.752 77.0887 482.956C77.4367 483.148 77.8447 483.244 78.3127 483.244C78.9007 483.244 79.4467 483.13 79.9507 482.902C80.4667 482.674 80.8627 482.38 81.1387 482.02ZM93.3053 484H92.0813V478.762C92.0813 477.658 91.9193 476.854 91.5953 476.35C91.2713 475.834 90.7613 475.576 90.0653 475.576C89.5853 475.576 89.1113 475.696 88.6433 475.936C88.1753 476.164 87.7613 476.482 87.4013 476.89C87.0533 477.286 86.8013 477.742 86.6453 478.258V484H85.4213V474.622H86.5373V476.746C86.7893 476.29 87.1193 475.894 87.5273 475.558C87.9353 475.21 88.3973 474.94 88.9133 474.748C89.4293 474.556 89.9633 474.46 90.5153 474.46C91.0313 474.46 91.4693 474.556 91.8293 474.748C92.1893 474.94 92.4773 475.216 92.6933 475.576C92.9093 475.924 93.0653 476.35 93.1613 476.854C93.2573 477.346 93.3053 477.898 93.3053 478.51V484ZM98.9934 484.18C98.2254 484.18 97.5114 484.054 96.8514 483.802C96.1914 483.55 95.6214 483.166 95.1414 482.65L95.6454 481.786C96.1734 482.278 96.7014 482.638 97.2294 482.866C97.7694 483.082 98.3394 483.19 98.9394 483.19C99.6714 483.19 100.265 483.046 100.721 482.758C101.177 482.458 101.405 482.032 101.405 481.48C101.405 481.108 101.291 480.826 101.063 480.634C100.847 480.43 100.529 480.268 100.109 480.148C99.7014 480.016 99.2094 479.878 98.6334 479.734C97.9854 479.554 97.4394 479.368 96.9954 479.176C96.5634 478.972 96.2334 478.72 96.0054 478.42C95.7894 478.108 95.6814 477.706 95.6814 477.214C95.6814 476.602 95.8314 476.098 96.1314 475.702C96.4434 475.294 96.8634 474.988 97.3914 474.784C97.9314 474.568 98.5314 474.46 99.1914 474.46C99.9114 474.46 100.547 474.574 101.099 474.802C101.651 475.03 102.101 475.348 102.449 475.756L101.855 476.584C101.519 476.2 101.117 475.918 100.649 475.738C100.193 475.546 99.6834 475.45 99.1194 475.45C98.7354 475.45 98.3694 475.504 98.0214 475.612C97.6734 475.708 97.3854 475.876 97.1574 476.116C96.9414 476.344 96.8334 476.662 96.8334 477.07C96.8334 477.406 96.9174 477.67 97.0854 477.862C97.2534 478.042 97.5054 478.198 97.8414 478.33C98.1774 478.45 98.5914 478.582 99.0834 478.726C99.7914 478.918 100.409 479.116 100.937 479.32C101.465 479.512 101.873 479.764 102.161 480.076C102.449 480.388 102.593 480.826 102.593 481.39C102.593 482.266 102.263 482.95 101.603 483.442C100.943 483.934 100.073 484.18 98.9934 484.18ZM103.861 481.3C103.861 480.712 104.029 480.208 104.365 479.788C104.701 479.356 105.163 479.026 105.751 478.798C106.351 478.558 107.041 478.438 107.821 478.438C108.277 478.438 108.751 478.474 109.243 478.546C109.735 478.618 110.173 478.726 110.557 478.87V478.078C110.557 477.286 110.323 476.656 109.855 476.188C109.387 475.72 108.739 475.486 107.911 475.486C107.407 475.486 106.909 475.582 106.417 475.774C105.937 475.954 105.433 476.224 104.905 476.584L104.437 475.72C105.049 475.3 105.649 474.988 106.237 474.784C106.825 474.568 107.425 474.46 108.037 474.46C109.189 474.46 110.101 474.79 110.773 475.45C111.445 476.11 111.781 477.022 111.781 478.186V482.524C111.781 482.692 111.817 482.818 111.889 482.902C111.961 482.974 112.075 483.016 112.231 483.028V484C112.099 484.012 111.985 484.024 111.889 484.036C111.793 484.048 111.721 484.048 111.673 484.036C111.373 484.024 111.145 483.928 110.989 483.748C110.833 483.568 110.749 483.376 110.737 483.172L110.719 482.488C110.299 483.028 109.753 483.448 109.081 483.748C108.409 484.036 107.725 484.18 107.029 484.18C106.429 484.18 105.883 484.054 105.391 483.802C104.911 483.538 104.533 483.19 104.257 482.758C103.993 482.314 103.861 481.828 103.861 481.3ZM110.143 482.02C110.275 481.852 110.377 481.69 110.449 481.534C110.521 481.378 110.557 481.24 110.557 481.12V479.752C110.149 479.596 109.723 479.476 109.279 479.392C108.847 479.308 108.409 479.266 107.965 479.266C107.089 479.266 106.381 479.44 105.841 479.788C105.301 480.136 105.031 480.61 105.031 481.21C105.031 481.558 105.121 481.888 105.301 482.2C105.481 482.5 105.745 482.752 106.093 482.956C106.441 483.148 106.849 483.244 107.317 483.244C107.905 483.244 108.451 483.13 108.955 482.902C109.471 482.674 109.867 482.38 110.143 482.02ZM118.493 484.18C117.809 484.18 117.179 484.054 116.603 483.802C116.039 483.538 115.541 483.178 115.109 482.722C114.689 482.266 114.359 481.744 114.119 481.156C113.891 480.568 113.777 479.944 113.777 479.284C113.777 478.396 113.975 477.586 114.371 476.854C114.767 476.122 115.319 475.54 116.027 475.108C116.735 474.676 117.551 474.46 118.475 474.46C119.351 474.46 120.125 474.664 120.797 475.072C121.469 475.468 121.967 476.008 122.291 476.692L121.103 477.07C120.839 476.59 120.467 476.218 119.987 475.954C119.519 475.678 118.997 475.54 118.421 475.54C117.797 475.54 117.227 475.702 116.711 476.026C116.195 476.35 115.781 476.794 115.469 477.358C115.169 477.922 115.019 478.564 115.019 479.284C115.019 479.992 115.175 480.634 115.487 481.21C115.799 481.786 116.213 482.248 116.729 482.596C117.245 482.932 117.815 483.1 118.439 483.1C118.847 483.1 119.237 483.028 119.609 482.884C119.993 482.74 120.323 482.548 120.599 482.308C120.887 482.056 121.079 481.786 121.175 481.498L122.381 481.858C122.213 482.302 121.931 482.704 121.535 483.064C121.151 483.412 120.695 483.688 120.167 483.892C119.651 484.084 119.093 484.18 118.493 484.18ZM128.804 483.55C128.708 483.586 128.558 483.652 128.354 483.748C128.15 483.844 127.904 483.928 127.616 484C127.328 484.072 127.016 484.108 126.68 484.108C126.332 484.108 126.002 484.042 125.69 483.91C125.39 483.778 125.15 483.58 124.97 483.316C124.79 483.04 124.7 482.704 124.7 482.308V475.594H123.404V474.622H124.7V471.454H125.924V474.622H128.084V475.594H125.924V481.966C125.948 482.302 126.068 482.554 126.284 482.722C126.512 482.89 126.77 482.974 127.058 482.974C127.394 482.974 127.7 482.92 127.976 482.812C128.252 482.692 128.42 482.608 128.48 482.56L128.804 483.55ZM130.333 484V474.622H131.557V484H130.333ZM130.333 472.66V470.86H131.557V472.66H130.333ZM138.249 484.18C137.577 484.18 136.953 484.054 136.377 483.802C135.813 483.538 135.321 483.184 134.901 482.74C134.493 482.284 134.175 481.768 133.947 481.192C133.719 480.604 133.605 479.986 133.605 479.338C133.605 478.666 133.719 478.042 133.947 477.466C134.175 476.878 134.499 476.362 134.919 475.918C135.339 475.462 135.831 475.108 136.395 474.856C136.971 474.592 137.595 474.46 138.267 474.46C138.939 474.46 139.557 474.592 140.121 474.856C140.685 475.108 141.177 475.462 141.597 475.918C142.017 476.362 142.341 476.878 142.569 477.466C142.797 478.042 142.911 478.666 142.911 479.338C142.911 479.986 142.797 480.604 142.569 481.192C142.341 481.768 142.017 482.284 141.597 482.74C141.189 483.184 140.697 483.538 140.121 483.802C139.557 484.054 138.933 484.18 138.249 484.18ZM134.847 479.356C134.847 480.052 134.997 480.688 135.297 481.264C135.609 481.828 136.023 482.278 136.539 482.614C137.055 482.938 137.625 483.1 138.249 483.1C138.873 483.1 139.443 482.932 139.959 482.596C140.475 482.26 140.889 481.804 141.201 481.228C141.513 480.64 141.669 480.004 141.669 479.32C141.669 478.624 141.513 477.988 141.201 477.412C140.889 476.836 140.475 476.38 139.959 476.044C139.443 475.708 138.873 475.54 138.249 475.54C137.625 475.54 137.055 475.714 136.539 476.062C136.035 476.41 135.627 476.872 135.315 477.448C135.003 478.012 134.847 478.648 134.847 479.356ZM152.842 484H151.618V478.762C151.618 477.658 151.456 476.854 151.132 476.35C150.808 475.834 150.298 475.576 149.602 475.576C149.122 475.576 148.648 475.696 148.18 475.936C147.712 476.164 147.298 476.482 146.938 476.89C146.59 477.286 146.338 477.742 146.182 478.258V484H144.958V474.622H146.074V476.746C146.326 476.29 146.656 475.894 147.064 475.558C147.472 475.21 147.934 474.94 148.45 474.748C148.966 474.556 149.5 474.46 150.052 474.46C150.568 474.46 151.006 474.556 151.366 474.748C151.726 474.94 152.014 475.216 152.23 475.576C152.446 475.924 152.602 476.35 152.698 476.854C152.794 477.346 152.842 477.898 152.842 478.51V484ZM158.531 484.18C157.763 484.18 157.049 484.054 156.389 483.802C155.729 483.55 155.159 483.166 154.679 482.65L155.183 481.786C155.711 482.278 156.239 482.638 156.767 482.866C157.307 483.082 157.877 483.19 158.477 483.19C159.209 483.19 159.803 483.046 160.259 482.758C160.715 482.458 160.943 482.032 160.943 481.48C160.943 481.108 160.829 480.826 160.601 480.634C160.385 480.43 160.067 480.268 159.647 480.148C159.239 480.016 158.747 479.878 158.171 479.734C157.523 479.554 156.977 479.368 156.533 479.176C156.101 478.972 155.771 478.72 155.543 478.42C155.327 478.108 155.219 477.706 155.219 477.214C155.219 476.602 155.369 476.098 155.669 475.702C155.981 475.294 156.401 474.988 156.929 474.784C157.469 474.568 158.069 474.46 158.729 474.46C159.449 474.46 160.085 474.574 160.637 474.802C161.189 475.03 161.639 475.348 161.987 475.756L161.393 476.584C161.057 476.2 160.655 475.918 160.187 475.738C159.731 475.546 159.221 475.45 158.657 475.45C158.273 475.45 157.907 475.504 157.559 475.612C157.211 475.708 156.923 475.876 156.695 476.116C156.479 476.344 156.371 476.662 156.371 477.07C156.371 477.406 156.455 477.67 156.623 477.862C156.791 478.042 157.043 478.198 157.379 478.33C157.715 478.45 158.129 478.582 158.621 478.726C159.329 478.918 159.947 479.116 160.475 479.32C161.003 479.512 161.411 479.764 161.699 480.076C161.987 480.388 162.131 480.826 162.131 481.39C162.131 482.266 161.801 482.95 161.141 483.442C160.481 483.934 159.611 484.18 158.531 484.18ZM173.242 483.55C173.146 483.586 172.996 483.652 172.792 483.748C172.588 483.844 172.342 483.928 172.054 484C171.766 484.072 171.454 484.108 171.118 484.108C170.77 484.108 170.44 484.042 170.128 483.91C169.828 483.778 169.588 483.58 169.408 483.316C169.228 483.04 169.138 482.704 169.138 482.308V475.594H167.842V474.622H169.138V471.454H170.362V474.622H172.522V475.594H170.362V481.966C170.386 482.302 170.506 482.554 170.722 482.722C170.95 482.89 171.208 482.974 171.496 482.974C171.832 482.974 172.138 482.92 172.414 482.812C172.69 482.692 172.858 482.608 172.918 482.56L173.242 483.55ZM178.609 484.18C177.937 484.18 177.313 484.054 176.737 483.802C176.173 483.538 175.681 483.184 175.261 482.74C174.853 482.284 174.535 481.768 174.307 481.192C174.079 480.604 173.965 479.986 173.965 479.338C173.965 478.666 174.079 478.042 174.307 477.466C174.535 476.878 174.859 476.362 175.279 475.918C175.699 475.462 176.191 475.108 176.755 474.856C177.331 474.592 177.955 474.46 178.627 474.46C179.299 474.46 179.917 474.592 180.481 474.856C181.045 475.108 181.537 475.462 181.957 475.918C182.377 476.362 182.701 476.878 182.929 477.466C183.157 478.042 183.271 478.666 183.271 479.338C183.271 479.986 183.157 480.604 182.929 481.192C182.701 481.768 182.377 482.284 181.957 482.74C181.549 483.184 181.057 483.538 180.481 483.802C179.917 484.054 179.293 484.18 178.609 484.18ZM175.207 479.356C175.207 480.052 175.357 480.688 175.657 481.264C175.969 481.828 176.383 482.278 176.899 482.614C177.415 482.938 177.985 483.1 178.609 483.1C179.233 483.1 179.803 482.932 180.319 482.596C180.835 482.26 181.249 481.804 181.561 481.228C181.873 480.64 182.029 480.004 182.029 479.32C182.029 478.624 181.873 477.988 181.561 477.412C181.249 476.836 180.835 476.38 180.319 476.044C179.803 475.708 179.233 475.54 178.609 475.54C177.985 475.54 177.415 475.714 176.899 476.062C176.395 476.41 175.987 476.872 175.675 477.448C175.363 478.012 175.207 478.648 175.207 479.356ZM194.496 484.18C193.764 484.18 193.086 483.994 192.462 483.622C191.838 483.238 191.352 482.758 191.004 482.182V484H189.906V470.86H191.13V476.584C191.55 475.948 192.054 475.438 192.642 475.054C193.23 474.658 193.914 474.46 194.694 474.46C195.354 474.46 195.942 474.598 196.458 474.874C196.986 475.15 197.436 475.522 197.808 475.99C198.18 476.446 198.462 476.968 198.654 477.556C198.846 478.132 198.942 478.726 198.942 479.338C198.942 479.998 198.828 480.616 198.6 481.192C198.384 481.768 198.072 482.284 197.664 482.74C197.256 483.184 196.782 483.538 196.242 483.802C195.714 484.054 195.132 484.18 194.496 484.18ZM194.208 483.1C194.712 483.1 195.18 482.998 195.612 482.794C196.044 482.59 196.416 482.308 196.728 481.948C197.04 481.588 197.28 481.186 197.448 480.742C197.616 480.286 197.7 479.818 197.7 479.338C197.7 478.678 197.556 478.06 197.268 477.484C196.992 476.896 196.602 476.428 196.098 476.08C195.606 475.72 195.024 475.54 194.352 475.54C193.872 475.54 193.422 475.648 193.002 475.864C192.594 476.08 192.228 476.368 191.904 476.728C191.592 477.076 191.334 477.46 191.13 477.88V480.796C191.178 481.12 191.304 481.426 191.508 481.714C191.712 481.99 191.964 482.23 192.264 482.434C192.576 482.638 192.9 482.8 193.236 482.92C193.572 483.04 193.896 483.1 194.208 483.1ZM205.065 484.18C204.393 484.18 203.769 484.054 203.193 483.802C202.617 483.538 202.119 483.184 201.699 482.74C201.279 482.284 200.949 481.762 200.709 481.174C200.481 480.586 200.367 479.956 200.367 479.284C200.367 478.408 200.565 477.604 200.961 476.872C201.369 476.14 201.927 475.558 202.635 475.126C203.343 474.682 204.147 474.46 205.047 474.46C205.971 474.46 206.775 474.682 207.459 475.126C208.155 475.57 208.701 476.158 209.097 476.89C209.493 477.61 209.691 478.402 209.691 479.266C209.691 479.362 209.691 479.458 209.691 479.554C209.691 479.638 209.685 479.704 209.673 479.752H201.645C201.705 480.424 201.891 481.024 202.203 481.552C202.527 482.068 202.941 482.482 203.445 482.794C203.961 483.094 204.519 483.244 205.119 483.244C205.731 483.244 206.307 483.088 206.847 482.776C207.399 482.464 207.783 482.056 207.999 481.552L209.061 481.84C208.869 482.284 208.575 482.686 208.179 483.046C207.783 483.406 207.315 483.688 206.775 483.892C206.247 484.084 205.677 484.18 205.065 484.18ZM201.609 478.87H208.539C208.491 478.186 208.305 477.586 207.981 477.07C207.669 476.554 207.255 476.152 206.739 475.864C206.235 475.564 205.677 475.414 205.065 475.414C204.453 475.414 203.895 475.564 203.391 475.864C202.887 476.152 202.473 476.56 202.149 477.088C201.837 477.604 201.657 478.198 201.609 478.87ZM218.465 484L214.667 474.622H215.945L219.149 482.776L222.371 474.622H223.577L219.779 484H218.465ZM225.273 484V474.622H226.497V484H225.273ZM225.273 472.66V470.86H226.497V472.66H225.273ZM232.271 484.18C231.503 484.18 230.789 484.054 230.129 483.802C229.469 483.55 228.899 483.166 228.419 482.65L228.923 481.786C229.451 482.278 229.979 482.638 230.507 482.866C231.047 483.082 231.617 483.19 232.217 483.19C232.949 483.19 233.543 483.046 233.999 482.758C234.455 482.458 234.683 482.032 234.683 481.48C234.683 481.108 234.569 480.826 234.341 480.634C234.125 480.43 233.807 480.268 233.387 480.148C232.979 480.016 232.487 479.878 231.911 479.734C231.263 479.554 230.717 479.368 230.273 479.176C229.841 478.972 229.511 478.72 229.283 478.42C229.067 478.108 228.959 477.706 228.959 477.214C228.959 476.602 229.109 476.098 229.409 475.702C229.721 475.294 230.141 474.988 230.669 474.784C231.209 474.568 231.809 474.46 232.469 474.46C233.189 474.46 233.825 474.574 234.377 474.802C234.929 475.03 235.379 475.348 235.727 475.756L235.133 476.584C234.797 476.2 234.395 475.918 233.927 475.738C233.471 475.546 232.961 475.45 232.397 475.45C232.013 475.45 231.647 475.504 231.299 475.612C230.951 475.708 230.663 475.876 230.435 476.116C230.219 476.344 230.111 476.662 230.111 477.07C230.111 477.406 230.195 477.67 230.363 477.862C230.531 478.042 230.783 478.198 231.119 478.33C231.455 478.45 231.869 478.582 232.361 478.726C233.069 478.918 233.687 479.116 234.215 479.32C234.743 479.512 235.151 479.764 235.439 480.076C235.727 480.388 235.871 480.826 235.871 481.39C235.871 482.266 235.541 482.95 234.881 483.442C234.221 483.934 233.351 484.18 232.271 484.18ZM237.894 484V474.622H239.118V484H237.894ZM237.894 472.66V470.86H239.118V472.66H237.894ZM246.404 484.18C245.672 484.18 244.994 483.994 244.37 483.622C243.746 483.238 243.26 482.758 242.912 482.182V484H241.814V470.86H243.038V476.584C243.458 475.948 243.962 475.438 244.55 475.054C245.138 474.658 245.822 474.46 246.602 474.46C247.262 474.46 247.85 474.598 248.366 474.874C248.894 475.15 249.344 475.522 249.716 475.99C250.088 476.446 250.37 476.968 250.562 477.556C250.754 478.132 250.85 478.726 250.85 479.338C250.85 479.998 250.736 480.616 250.508 481.192C250.292 481.768 249.98 482.284 249.572 482.74C249.164 483.184 248.69 483.538 248.15 483.802C247.622 484.054 247.04 484.18 246.404 484.18ZM246.116 483.1C246.62 483.1 247.088 482.998 247.52 482.794C247.952 482.59 248.324 482.308 248.636 481.948C248.948 481.588 249.188 481.186 249.356 480.742C249.524 480.286 249.608 479.818 249.608 479.338C249.608 478.678 249.464 478.06 249.176 477.484C248.9 476.896 248.51 476.428 248.006 476.08C247.514 475.72 246.932 475.54 246.26 475.54C245.78 475.54 245.33 475.648 244.91 475.864C244.502 476.08 244.136 476.368 243.812 476.728C243.5 477.076 243.242 477.46 243.038 477.88V480.796C243.086 481.12 243.212 481.426 243.416 481.714C243.62 481.99 243.872 482.23 244.172 482.434C244.484 482.638 244.808 482.8 245.144 482.92C245.48 483.04 245.804 483.1 246.116 483.1ZM252.977 470.86H254.201V481.876C254.201 482.344 254.285 482.65 254.453 482.794C254.621 482.938 254.825 483.01 255.065 483.01C255.281 483.01 255.497 482.986 255.713 482.938C255.929 482.89 256.115 482.842 256.271 482.794L256.487 483.784C256.259 483.88 255.977 483.958 255.641 484.018C255.317 484.078 255.035 484.108 254.795 484.108C254.243 484.108 253.799 483.946 253.463 483.622C253.139 483.298 252.977 482.854 252.977 482.29V470.86ZM261.878 484.18C261.206 484.18 260.582 484.054 260.006 483.802C259.43 483.538 258.932 483.184 258.512 482.74C258.092 482.284 257.762 481.762 257.522 481.174C257.294 480.586 257.18 479.956 257.18 479.284C257.18 478.408 257.378 477.604 257.774 476.872C258.182 476.14 258.74 475.558 259.448 475.126C260.156 474.682 260.96 474.46 261.86 474.46C262.784 474.46 263.588 474.682 264.272 475.126C264.968 475.57 265.514 476.158 265.91 476.89C266.306 477.61 266.504 478.402 266.504 479.266C266.504 479.362 266.504 479.458 266.504 479.554C266.504 479.638 266.498 479.704 266.486 479.752H258.458C258.518 480.424 258.704 481.024 259.016 481.552C259.34 482.068 259.754 482.482 260.258 482.794C260.774 483.094 261.332 483.244 261.932 483.244C262.544 483.244 263.12 483.088 263.66 482.776C264.212 482.464 264.596 482.056 264.812 481.552L265.874 481.84C265.682 482.284 265.388 482.686 264.992 483.046C264.596 483.406 264.128 483.688 263.588 483.892C263.06 484.084 262.49 484.18 261.878 484.18ZM258.422 478.87H265.352C265.304 478.186 265.118 477.586 264.794 477.07C264.482 476.554 264.068 476.152 263.552 475.864C263.048 475.564 262.49 475.414 261.878 475.414C261.266 475.414 260.708 475.564 260.204 475.864C259.7 476.152 259.286 476.56 258.962 477.088C258.65 477.604 258.47 478.198 258.422 478.87Z" fill="#18181B"/>
<defs>
<filter id="filter0_d_8_79" x="0" y="0" width="330" height="630" filterUnits="userSpaceOnUse" color-interpolation-filters="sRGB">
<feFlood flood-opacity="0" result="BackgroundImageFix"/>
<feColorMatrix in="SourceAlpha" type="matrix" values="0 0 0 0 0 0 0 0 0 0 0 0 0 0 0 0 0 0 127 0" result="hardAlpha"/>
<feMorphology radius="10" operator="dilate" in="SourceAlpha" result="effect1_dropShadow_8_79"/>
<feOffset/>
<feGaussianBlur stdDeviation="2.5"/>
<feComposite in2="hardAlpha" operator="out"/>
<feColorMatrix type="matrix" values="0 0 0 0 0.121569 0 0 0 0 0.117647 0 0 0 0 0.133333 0 0 0 1 0"/>
<feBlend mode="normal" in2="BackgroundImageFix" result="effect1_dropShadow_8_79"/>
<feBlend mode="normal" in="SourceGraphic" in2="effect1_dropShadow_8_79" result="shape"/>
</filter>
<clipPath id="clip0_8_79">
<rect width="245" height="189.318" fill="white" transform="translate(41 130.841)"/>
</clipPath>
</defs>
</svg>
