<svg width="90" height="24" viewBox="0 0 90 24" fill="none" xmlns="http://www.w3.org/2000/svg">
<path d="M27.7794 5.88214H30.0834L31.5414 10.1121L33.0174 5.88214H35.3034L33.1074 11.6961L34.7274 15.7641L38.3454 5.84614H41.0454L35.9334 18.6261H33.7914L31.5414 13.2621L29.3094 18.6261H27.1674L22.0734 5.84614H24.7374L28.3734 15.7641L29.9574 11.6961L27.7794 5.88214ZM45.229 18.8061C44.473 18.8061 43.789 18.6801 43.177 18.4281C42.565 18.1641 42.043 17.8101 41.611 17.3661C41.179 16.9101 40.843 16.3941 40.603 15.8181C40.375 15.2301 40.261 14.6121 40.261 13.9641C40.261 13.0641 40.459 12.2421 40.855 11.4981C41.263 10.7541 41.839 10.1601 42.583 9.71614C43.339 9.26014 44.227 9.03214 45.247 9.03214C46.279 9.03214 47.161 9.26014 47.893 9.71614C48.625 10.1601 49.183 10.7541 49.567 11.4981C49.963 12.2301 50.161 13.0221 50.161 13.8741C50.161 14.0181 50.155 14.1681 50.143 14.3241C50.131 14.4681 50.119 14.5881 50.107 14.6841H42.817C42.865 15.1641 43.003 15.5841 43.231 15.9441C43.471 16.3041 43.771 16.5801 44.131 16.7721C44.503 16.9521 44.899 17.0421 45.319 17.0421C45.799 17.0421 46.249 16.9281 46.669 16.7001C47.101 16.4601 47.395 16.1481 47.551 15.7641L49.621 16.3401C49.393 16.8201 49.063 17.2461 48.631 17.6181C48.211 17.9901 47.713 18.2841 47.137 18.5001C46.561 18.7041 45.925 18.8061 45.229 18.8061ZM42.763 13.1541H47.695C47.647 12.6741 47.509 12.2601 47.281 11.9121C47.065 11.5521 46.777 11.2761 46.417 11.0841C46.057 10.8801 45.655 10.7781 45.211 10.7781C44.779 10.7781 44.383 10.8801 44.023 11.0841C43.675 11.2761 43.387 11.5521 43.159 11.9121C42.943 12.2601 42.811 12.6741 42.763 13.1541ZM66.2824 18.6261H63.8704V13.3341C63.8704 12.5901 63.7384 12.0441 63.4744 11.6961C63.2224 11.3361 62.8684 11.1561 62.4124 11.1561C61.9444 11.1561 61.4944 11.3421 61.0624 11.7141C60.6424 12.0741 60.3424 12.5481 60.1624 13.1361V18.6261H57.7504V13.3341C57.7504 12.5781 57.6184 12.0261 57.3544 11.6781C57.1024 11.3301 56.7484 11.1561 56.2924 11.1561C55.8244 11.1561 55.3744 11.3361 54.9424 11.6961C54.5224 12.0561 54.2224 12.5301 54.0424 13.1181V18.6261H51.6304V9.19414H53.8084V10.9401C54.1684 10.3281 54.6484 9.86014 55.2484 9.53614C55.8484 9.20014 56.5384 9.03214 57.3184 9.03214C58.0984 9.03214 58.7044 9.22414 59.1364 9.60814C59.5804 9.99214 59.8624 10.4661 59.9824 11.0301C60.3664 10.3821 60.8524 9.89014 61.4404 9.55414C62.0404 9.20614 62.7124 9.03214 63.4564 9.03214C64.0444 9.03214 64.5184 9.14014 64.8784 9.35614C65.2504 9.56014 65.5384 9.84214 65.7424 10.2021C65.9464 10.5501 66.0844 10.9461 66.1564 11.3901C66.2404 11.8341 66.2824 12.2841 66.2824 12.7401V18.6261ZM73.7463 18.8061C73.0263 18.8061 72.3843 18.6441 71.8203 18.3201C71.2563 17.9961 70.8123 17.5521 70.4883 16.9881V18.6261H68.3823V5.48614H70.7943V10.8501C71.1303 10.2861 71.5683 9.84214 72.1083 9.51814C72.6603 9.19414 73.3023 9.03214 74.0343 9.03214C74.6463 9.03214 75.2043 9.16414 75.7083 9.42814C76.2123 9.68014 76.6443 10.0341 77.0043 10.4901C77.3763 10.9461 77.6583 11.4681 77.8503 12.0561C78.0543 12.6441 78.1563 13.2741 78.1563 13.9461C78.1563 14.6181 78.0423 15.2481 77.8143 15.8361C77.5983 16.4241 77.2923 16.9461 76.8963 17.4021C76.5003 17.8461 76.0323 18.1941 75.4923 18.4461C74.9643 18.6861 74.3823 18.8061 73.7463 18.8061ZM73.0803 16.7541C73.4643 16.7541 73.8123 16.6821 74.1243 16.5381C74.4483 16.3821 74.7243 16.1781 74.9523 15.9261C75.1923 15.6741 75.3723 15.3801 75.4923 15.0441C75.6243 14.6961 75.6903 14.3361 75.6903 13.9641C75.6903 13.4481 75.5823 12.9741 75.3663 12.5421C75.1623 12.0981 74.8743 11.7441 74.5023 11.4801C74.1423 11.2161 73.7163 11.0841 73.2243 11.0841C72.8763 11.0841 72.5403 11.1681 72.2163 11.3361C71.9043 11.4921 71.6223 11.7081 71.3703 11.9841C71.1303 12.2601 70.9383 12.5721 70.7943 12.9201V15.1701C70.8663 15.4101 70.9803 15.6261 71.1363 15.8181C71.3043 16.0101 71.4963 16.1781 71.7123 16.3221C71.9283 16.4541 72.1503 16.5621 72.3783 16.6461C72.6183 16.7181 72.8523 16.7541 73.0803 16.7541ZM84.1465 18.8061C83.3785 18.8061 82.6885 18.6801 82.0765 18.4281C81.4645 18.1641 80.9425 17.8041 80.5105 17.3481C80.0905 16.8921 79.7665 16.3701 79.5385 15.7821C79.3105 15.1941 79.1965 14.5761 79.1965 13.9281C79.1965 13.2681 79.3105 12.6441 79.5385 12.0561C79.7665 11.4681 80.0905 10.9461 80.5105 10.4901C80.9425 10.0341 81.4645 9.68014 82.0765 9.42814C82.6885 9.16414 83.3785 9.03214 84.1465 9.03214C84.9145 9.03214 85.5985 9.16414 86.1985 9.42814C86.8105 9.68014 87.3325 10.0341 87.7645 10.4901C88.1965 10.9461 88.5205 11.4681 88.7365 12.0561C88.9645 12.6441 89.0785 13.2681 89.0785 13.9281C89.0785 14.5761 88.9645 15.1941 88.7365 15.7821C88.5205 16.3701 88.1965 16.8921 87.7645 17.3481C87.3445 17.8041 86.8285 18.1641 86.2165 18.4281C85.6045 18.6801 84.9145 18.8061 84.1465 18.8061ZM81.6805 13.9281C81.6805 14.4801 81.7885 14.9721 82.0045 15.4041C82.2205 15.8241 82.5145 16.1541 82.8865 16.3941C83.2585 16.6341 83.6785 16.7541 84.1465 16.7541C84.6025 16.7541 85.0165 16.6341 85.3885 16.3941C85.7605 16.1421 86.0545 15.8061 86.2705 15.3861C86.4985 14.9541 86.6125 14.4621 86.6125 13.9101C86.6125 13.3701 86.4985 12.8841 86.2705 12.4521C86.0545 12.0201 85.7605 11.6841 85.3885 11.4441C85.0165 11.2041 84.6025 11.0841 84.1465 11.0841C83.6785 11.0841 83.2585 11.2101 82.8865 11.4621C82.5145 11.7021 82.2205 12.0381 82.0045 12.4701C81.7885 12.8901 81.6805 13.3761 81.6805 13.9281Z" fill="white"/>
<rect width="11.841" height="23.682" rx="3" fill="#0FA5E9"/>
</svg>
