<svg width="526" height="361" viewBox="0 0 526 361" fill="none" xmlns="http://www.w3.org/2000/svg">
<g filter="url(#filter0_d_45_4)">
<rect x="13" y="348" width="335" height="500" rx="25.05" transform="rotate(-90 13 348)" fill="white"/>
</g>
<rect x="38" y="38.125" width="21.4286" height="1.675" rx="0.8375" fill="#18181B"/>
<rect x="38" y="43.1501" width="21.4286" height="1.675" rx="0.8375" fill="#18181B"/>
<rect x="38" y="48.175" width="16.183" height="1.675" rx="0.8375" fill="#18181B"/>
<path d="M467.395 42.4133C467.262 42.2619 467.106 42.1283 466.928 42.0125C466.75 41.8879 466.549 41.781 466.326 41.6919C466.104 41.6028 465.863 41.5316 465.605 41.4781C465.356 41.4247 465.088 41.398 464.803 41.398C463.975 41.398 463.365 41.5583 462.973 41.8789C462.59 42.1907 462.399 42.6182 462.399 43.1615C462.399 43.5356 462.488 43.8295 462.666 44.0433C462.853 44.257 463.142 44.4307 463.534 44.5643C463.926 44.6979 464.425 44.836 465.031 44.9785C465.707 45.121 466.291 45.2902 466.781 45.4862C467.271 45.6821 467.649 45.9493 467.916 46.2878C468.184 46.6173 468.317 47.0671 468.317 47.6371C468.317 48.0735 468.233 48.4521 468.063 48.7727C467.894 49.0934 467.658 49.3606 467.355 49.5743C467.052 49.7881 466.692 49.9484 466.273 50.0553C465.854 50.1532 465.396 50.2022 464.897 50.2022C464.407 50.2022 463.935 50.1532 463.481 50.0553C463.035 49.9484 462.612 49.797 462.212 49.601C461.811 49.3962 461.437 49.1379 461.089 48.8262L461.557 48.0646C461.726 48.2428 461.927 48.412 462.158 48.5723C462.399 48.7237 462.661 48.8618 462.946 48.9865C463.24 49.1112 463.552 49.2091 463.882 49.2804C464.22 49.3427 464.567 49.3739 464.924 49.3739C465.681 49.3739 466.269 49.2359 466.687 48.9598C467.115 48.6836 467.328 48.2739 467.328 47.7306C467.328 47.3387 467.222 47.027 467.008 46.7954C466.794 46.5549 466.473 46.359 466.046 46.2076C465.618 46.0562 465.093 45.9092 464.469 45.7667C463.81 45.6153 463.254 45.4461 462.799 45.259C462.345 45.072 462.002 44.8271 461.771 44.5242C461.548 44.2125 461.437 43.8028 461.437 43.2951C461.437 42.7073 461.579 42.2129 461.864 41.8121C462.158 41.4024 462.559 41.0952 463.067 40.8903C463.574 40.6765 464.158 40.5697 464.817 40.5697C465.235 40.5697 465.623 40.6142 465.979 40.7033C466.344 40.7834 466.678 40.9037 466.981 41.064C467.293 41.2243 467.582 41.4247 467.85 41.6652L467.395 42.4133ZM474.749 50.1221L472.17 46.5549L470.687 47.9444V50.1221H469.779V40.3693H470.687V46.9691L474.629 43.1749H475.631L472.785 46.0205L475.738 50.1221H474.749ZM476.863 50.1221V43.1615H477.772V50.1221H476.863ZM476.863 41.7053V40.3693H477.772V41.7053H476.863ZM483.327 50.2557C482.748 50.2557 482.227 50.1043 481.764 49.8014C481.309 49.4986 480.949 49.1245 480.681 48.6792V52.9678H479.773V43.1615H480.588V44.5109C480.864 44.0744 481.234 43.7226 481.697 43.4554C482.16 43.1793 482.654 43.0413 483.18 43.0413C483.661 43.0413 484.102 43.1437 484.502 43.3485C484.903 43.5445 485.251 43.8117 485.544 44.1501C485.838 44.4886 486.065 44.876 486.226 45.3125C486.395 45.74 486.48 46.1853 486.48 46.6485C486.48 47.2987 486.346 47.8999 486.079 48.4521C485.821 48.9954 485.455 49.4318 484.983 49.7614C484.511 50.0909 483.959 50.2557 483.327 50.2557ZM483.073 49.4541C483.456 49.4541 483.799 49.3784 484.102 49.227C484.404 49.0666 484.663 48.8529 484.876 48.5857C485.099 48.3185 485.268 48.0201 485.384 47.6906C485.5 47.3521 485.558 47.0047 485.558 46.6485C485.558 46.2744 485.491 45.9181 485.357 45.5797C485.233 45.2412 485.05 44.9428 484.81 44.6845C484.569 44.4263 484.293 44.2214 483.981 44.07C483.67 43.9186 483.331 43.8429 482.966 43.8429C482.734 43.8429 482.494 43.8874 482.245 43.9765C481.995 44.0655 481.755 44.1947 481.523 44.3639C481.3 44.5242 481.113 44.7068 480.962 44.9117C480.811 45.1165 480.717 45.3347 480.681 45.5663V47.7039C480.824 48.0335 481.015 48.3318 481.256 48.599C481.496 48.8573 481.772 49.0666 482.084 49.227C482.405 49.3784 482.734 49.4541 483.073 49.4541Z" fill="#18181B"/>
<path d="M365.531 153.08H364.786V132.254C364.786 130.671 364.48 129.103 363.887 127.641C363.293 126.179 362.424 124.85 361.327 123.73C360.23 122.611 358.929 121.723 357.496 121.118C356.063 120.512 354.527 120.2 352.977 120.2H309.748C306.616 120.2 303.613 121.47 301.398 123.73C299.183 125.991 297.939 129.057 297.939 132.254V246.51C297.939 248.093 298.244 249.66 298.838 251.123C299.431 252.585 300.301 253.914 301.398 255.033C302.494 256.153 303.796 257.041 305.229 257.646C306.662 258.252 308.197 258.564 309.748 258.564H352.977C356.109 258.564 359.112 257.294 361.327 255.033C363.542 252.773 364.786 249.707 364.786 246.51V167.905H365.531V153.08Z" fill="#3F3D56"/>
<path d="M353.453 123.336H347.81C348.07 123.986 348.169 124.69 348.099 125.388C348.029 126.085 347.792 126.755 347.408 127.337C347.025 127.919 346.507 128.396 345.901 128.726C345.295 129.055 344.618 129.228 343.931 129.228H319.166C318.479 129.228 317.803 129.055 317.196 128.726C316.59 128.396 316.072 127.919 315.689 127.337C315.306 126.755 315.069 126.085 314.998 125.388C314.928 124.69 315.027 123.986 315.287 123.336H310.017C308.858 123.336 307.712 123.569 306.642 124.021C305.572 124.474 304.599 125.137 303.781 125.973C302.962 126.809 302.312 127.801 301.869 128.893C301.426 129.985 301.198 131.156 301.198 132.338V246.426C301.198 247.609 301.426 248.779 301.869 249.871C302.312 250.963 302.962 251.956 303.781 252.792C304.599 253.627 305.572 254.291 306.642 254.743C307.712 255.195 308.858 255.428 310.017 255.428H353.453C354.611 255.428 355.758 255.195 356.828 254.743C357.898 254.291 358.87 253.627 359.689 252.792C360.508 251.956 361.158 250.963 361.601 249.871C362.044 248.779 362.272 247.609 362.272 246.426V132.338C362.272 131.156 362.044 129.985 361.601 128.893C361.158 127.801 360.508 126.809 359.689 125.973C358.87 125.137 357.898 124.474 356.828 124.021C355.758 123.569 354.611 123.336 353.453 123.336Z" fill="white"/>
<path d="M379.386 258.584H284.083C284.017 258.584 283.954 258.557 283.907 258.509C283.86 258.461 283.833 258.396 283.833 258.329C283.833 258.261 283.86 258.196 283.907 258.148C283.954 258.1 284.017 258.073 284.083 258.073H379.386C379.452 258.073 379.516 258.1 379.563 258.148C379.61 258.196 379.636 258.261 379.636 258.329C379.636 258.396 379.61 258.461 379.563 258.509C379.516 258.557 379.452 258.584 379.386 258.584Z" fill="#CBCBCB"/>
<path d="M331.735 208.459C343.401 208.459 352.858 198.806 352.858 186.898C352.858 174.991 343.401 165.337 331.735 165.337C320.069 165.337 310.612 174.991 310.612 186.898C310.612 198.806 320.069 208.459 331.735 208.459Z" fill="#0FA5E9"/>
<path d="M329.642 195.123C329.166 195.124 328.704 194.967 328.324 194.676L328.3 194.658L323.336 190.782C323.106 190.602 322.913 190.378 322.768 190.122C322.623 189.865 322.529 189.583 322.491 189.29C322.453 188.997 322.472 188.699 322.547 188.413C322.622 188.127 322.751 187.859 322.927 187.625C323.103 187.39 323.323 187.193 323.574 187.045C323.825 186.897 324.102 186.801 324.389 186.762C324.676 186.724 324.968 186.743 325.248 186.82C325.528 186.896 325.79 187.028 326.02 187.208L329.236 189.725L336.834 179.606C337.01 179.372 337.23 179.175 337.481 179.027C337.731 178.879 338.008 178.783 338.295 178.744C338.582 178.706 338.874 178.725 339.154 178.802C339.433 178.878 339.696 179.01 339.926 179.19L339.926 179.19L339.879 179.257L339.927 179.19C340.391 179.554 340.694 180.09 340.771 180.682C340.847 181.274 340.691 181.873 340.335 182.347L331.398 194.242C331.191 194.516 330.926 194.738 330.621 194.891C330.317 195.043 329.982 195.121 329.643 195.12L329.642 195.123Z" fill="white"/>
<path d="M457.49 260.703C457.747 260.279 458.05 259.885 458.392 259.53C458.534 259.38 458.683 259.239 458.836 259.102C459.77 258.254 460.909 257.674 462.135 257.424C463.361 257.173 464.63 257.261 465.812 257.677C466.994 258.093 468.046 258.823 468.86 259.792C469.674 260.761 470.22 261.933 470.443 263.189C471.475 259.295 468.789 255.459 466.089 252.513C463.388 249.567 460.3 246.336 460.316 242.3C460.323 240.055 461.4 238.051 463.025 236.566C463.075 236.521 463.125 236.476 463.176 236.433C465.14 234.714 467.667 233.815 470.252 233.916C475.054 234.178 479.247 237.473 482.16 241.38C486.847 247.668 488.901 256.495 485.619 263.652C482.733 269.948 476.577 273.686 470.295 276.691C469.417 277.111 468.542 277.518 467.668 277.913C467.662 277.914 467.656 277.918 467.65 277.92C467.608 277.939 467.566 277.958 467.527 277.977C467.346 278.058 467.166 278.14 466.987 278.22L467.07 278.275L467.328 278.446C467.239 278.39 467.15 278.337 467.061 278.281C467.034 278.264 467.006 278.249 466.979 278.232C463.893 276.342 460.765 274.343 458.633 271.392C456.422 268.329 455.533 263.941 457.49 260.703Z" fill="#F1F1F1"/>
<path d="M478.078 253.589C478.761 255.175 479.214 256.855 479.422 258.575C479.586 260.109 479.525 261.659 479.239 263.174C478.627 266.288 477.29 269.205 475.343 271.682C473.874 273.562 472.177 275.245 470.295 276.691C469.417 277.111 468.542 277.518 467.668 277.913C467.662 277.914 467.656 277.918 467.65 277.92C467.608 277.939 467.566 277.958 467.527 277.977C467.346 278.058 467.166 278.14 466.987 278.22L467.07 278.275L467.328 278.446C467.239 278.39 467.15 278.337 467.061 278.281C467.034 278.264 467.006 278.249 466.979 278.232C467.658 275.807 467.758 273.252 467.27 270.78C466.783 268.308 465.721 265.991 464.176 264.024C462.622 262.082 460.64 260.542 458.393 259.53C458.534 259.38 458.683 259.239 458.836 259.102C459.702 259.508 460.531 259.991 461.313 260.546C464.112 262.52 466.213 265.362 467.306 268.65C468.282 271.633 468.404 274.838 467.658 277.89C467.813 277.786 467.968 277.68 468.119 277.575C470.994 275.596 473.643 273.22 475.639 270.305C477.36 267.843 478.461 264.985 478.846 261.986C479.228 258.709 478.425 255.487 476.992 252.563C475.409 249.435 473.415 246.543 471.065 243.967C468.704 241.319 466.034 238.976 463.116 236.991C463.05 236.945 463.004 236.876 462.987 236.797C462.97 236.718 462.983 236.635 463.025 236.566C463.056 236.503 463.11 236.455 463.176 236.433C463.209 236.424 463.244 236.423 463.278 236.43C463.312 236.437 463.344 236.452 463.371 236.473C463.731 236.718 464.088 236.966 464.441 237.221C467.38 239.345 470.049 241.833 472.387 244.629C474.646 247.324 476.702 250.318 478.078 253.589Z" fill="white"/>
<path d="M415.166 130.211C417.644 130.211 419.652 128.161 419.652 125.632C419.652 123.104 417.644 121.053 415.166 121.053C412.689 121.053 410.68 123.104 410.68 125.632C410.68 128.161 412.689 130.211 415.166 130.211Z" fill="#F1F1F1"/>
<path d="M470.947 191.488C472.458 191.488 473.682 190.238 473.682 188.696C473.682 187.154 472.458 185.905 470.947 185.905C469.437 185.905 468.212 187.154 468.212 188.696C468.212 190.238 469.437 191.488 470.947 191.488Z" fill="#F1F1F1"/>
<path d="M390.903 199.148C392.413 199.148 393.638 197.898 393.638 196.356C393.638 194.814 392.413 193.564 390.903 193.564C389.392 193.564 388.168 194.814 388.168 196.356C388.168 197.898 389.392 199.148 390.903 199.148Z" fill="#F1F1F1"/>
<path d="M392.447 278.754H487.75C487.816 278.754 487.88 278.727 487.927 278.679C487.974 278.631 488 278.566 488 278.499C488 278.431 487.974 278.366 487.927 278.318C487.88 278.27 487.816 278.243 487.75 278.243H392.447C392.381 278.243 392.317 278.27 392.27 278.318C392.223 278.366 392.197 278.431 392.197 278.499C392.197 278.566 392.223 278.631 392.27 278.679C392.317 278.727 392.381 278.754 392.447 278.754Z" fill="#CBCBCB"/>
<path d="M477.233 144.873C477.358 143.966 477.153 143.044 476.656 142.281C476.16 141.518 475.406 140.968 474.539 140.734C473.671 140.501 472.75 140.6 471.949 141.013C471.149 141.426 470.524 142.125 470.195 142.977L462.461 152.027L464.73 158.496L472.508 147.922C473.015 148.087 473.552 148.138 474.081 148.069C474.61 148 475.117 147.814 475.567 147.523C476.018 147.233 476.401 146.845 476.688 146.387C476.976 145.929 477.162 145.412 477.233 144.873Z" fill="#FFB7B7"/>
<path d="M445.176 180.085L470.847 152.12L467.385 146.501L435.186 174.296L445.176 180.085Z" fill="#3F3D56"/>
<path d="M439.446 163.094C444.419 163.094 448.451 158.979 448.451 153.902C448.451 148.826 444.419 144.711 439.446 144.711C434.473 144.711 430.441 148.826 430.441 153.902C430.441 158.979 434.473 163.094 439.446 163.094Z" fill="#2F2E41"/>
<path d="M440.17 148.71C442.108 146.704 444.453 145.157 447.04 144.176C448.7 143.548 450.508 143.16 452.244 143.516C453.98 143.873 455.622 145.099 456.106 146.838C456.502 148.259 456.093 149.79 455.478 151.128C454.864 152.467 454.043 153.708 453.546 155.096C453.039 156.513 452.887 158.036 453.103 159.528C453.319 161.02 453.896 162.433 454.783 163.639C455.67 164.846 456.838 165.807 458.181 166.436C459.524 167.064 460.999 167.341 462.474 167.24C460.768 167.473 459.195 168.291 457.528 168.727C455.861 169.162 453.893 169.133 452.654 167.914C451.343 166.624 451.317 164.526 451.38 162.669C451.474 159.907 451.568 157.146 451.663 154.385C451.711 152.977 451.752 151.523 451.254 150.209C450.757 148.895 449.574 147.744 448.194 147.756C447.148 147.765 446.222 148.412 445.383 149.05C444.544 149.688 443.656 150.368 442.613 150.463C441.571 150.558 440.381 149.771 440.459 148.706L440.17 148.71Z" fill="#2F2E41"/>
<path d="M405.245 215.619C404.38 215.864 403.458 215.777 402.652 215.374C401.846 214.972 401.213 214.281 400.873 213.434C400.532 212.586 400.508 211.641 400.805 210.777C401.102 209.913 401.699 209.19 402.483 208.745L410.263 199.736L416.843 201.187L407.588 210.439C407.816 210.931 407.935 211.468 407.937 212.012C407.939 212.556 407.825 213.094 407.601 213.588C407.378 214.082 407.051 214.519 406.644 214.87C406.237 215.221 405.759 215.477 405.245 215.619H405.245Z" fill="#FFB7B7"/>
<path d="M430.839 183.368L411.45 208.21L405.539 205.441L428.329 169.225L430.839 183.368Z" fill="#3F3D56"/>
<path d="M415.368 258.382L410.747 258.308L411.303 274.385H415.367L415.368 258.382Z" fill="#FFB7B7"/>
<path d="M416.404 273.03L408.399 273.03H408.399C407.046 273.03 405.749 273.579 404.792 274.555C403.835 275.532 403.298 276.856 403.298 278.237V278.406L416.404 278.407L416.404 273.03Z" fill="#2F2E41"/>
<path d="M445.964 254.118L440.916 257.426L451.014 269.826L454.434 267.585L445.964 254.118Z" fill="#FFB7B7"/>
<path d="M454.59 265.873L447.854 270.287L447.853 270.287C446.715 271.034 445.914 272.211 445.625 273.56C445.337 274.909 445.586 276.32 446.317 277.482L446.406 277.624L457.435 270.397L454.59 265.873Z" fill="#2F2E41"/>
<path d="M447.763 205.027C447.763 205.027 436.546 167.003 432.942 166.489C429.337 165.976 423.53 176.246 423.53 176.246C416 186.052 408.235 217.817 408.235 217.817C408.235 217.817 421.179 218.644 430.641 223.783C440.103 228.921 451.269 223.522 451.269 223.522L447.763 205.027Z" fill="#3F3D56"/>
<path opacity="0.1" d="M447.763 205.028C447.763 205.028 436.546 167.004 432.942 166.49C429.337 165.976 425.005 176.35 425.005 176.35C421.253 192.18 408.235 217.818 408.235 217.818C408.235 217.818 421.179 218.644 430.641 223.783C440.103 228.921 451.269 223.523 451.269 223.523L447.763 205.028Z" fill="black"/>
<path d="M438.561 193.651V212.758L440.764 240.436L451.77 261.372L446.517 265.202L431.508 245.287L425.572 225.512L416.25 269.287L409.246 268.776L414.11 208.084L423.341 191L438.561 193.651Z" fill="#2F2E41"/>
<path d="M427.252 175.17C423.75 178.745 427.002 182.575 427.002 182.575L423 191.766L438.758 196.107L444.265 170.989L440.513 166.904C433.009 166.648 433.005 166.49 433.005 166.49C431.69 167.803 427.252 175.17 427.252 175.17Z" fill="#0FA5E9"/>
<path d="M444.9 168.387C444.184 167.847 443.371 167.459 442.507 167.242C441.643 167.026 440.745 166.987 439.866 167.128C438.988 167.268 438.145 167.585 437.387 168.06C436.629 168.536 435.971 169.16 435.451 169.896C431.489 175.527 427.826 184.619 432.873 195.957C440.977 214.164 448.03 223.485 450.897 223.484C451.022 223.485 451.146 223.465 451.265 223.425C453.03 222.813 455.582 219.765 456.043 217.079C456.209 216.118 456.169 214.779 455.043 213.859C451.807 211.217 445.999 202.992 444.187 192.166C443.185 186.184 445.127 180.735 446.933 177.217C447.695 175.762 447.918 174.074 447.561 172.464C447.204 170.855 446.29 169.43 444.987 168.452V168.452L444.9 168.387Z" fill="#3F3D56"/>
<path d="M439.909 162.191C443.122 160.398 444.302 156.287 442.546 153.009C440.79 149.73 436.763 148.525 433.55 150.317C430.338 152.109 429.158 156.221 430.914 159.499C432.67 162.778 436.697 163.983 439.909 162.191Z" fill="#FFB7B7"/>
<path d="M427.408 155.743H436.979L437.078 154.34L437.568 155.743H439.042L439.237 152.963L440.209 155.743H443.061V155.605C443.059 153.669 442.305 151.814 440.964 150.445C439.623 149.077 437.805 148.307 435.909 148.305H434.56C432.664 148.307 430.846 149.077 429.505 150.445C428.164 151.814 427.41 153.669 427.408 155.605V155.743Z" fill="#2F2E41"/>
<path d="M441.615 160.784L445.7 159.432V149.307H437.984L438.175 149.501C440.833 152.21 443.789 161.822 441.615 160.784Z" fill="#2F2E41"/>
<rect x="38.0009" y="239.12" width="207.143" height="39.3625" rx="13.36" fill="#0FA5E9"/>
<path d="M56.7885 127.409L51.8604 127.408L51.8601 140.196L48.8858 140.196L48.8861 127.408L43.9579 127.408L43.958 124.781L56.7886 124.782L56.7885 127.409ZM55.7723 136.831C55.7724 136.093 55.975 135.448 56.3803 134.898C56.8 134.334 57.379 133.9 58.1171 133.596C58.8552 133.292 59.7019 133.14 60.6572 133.14C61.1348 133.14 61.6197 133.176 62.1117 133.249C62.6038 133.321 63.0308 133.437 63.3926 133.596L63.3926 132.988C63.3927 132.265 63.1756 131.707 62.7414 131.316C62.3217 130.926 61.6921 130.73 60.8526 130.73C60.2303 130.73 59.6369 130.839 59.0724 131.056C58.5079 131.273 57.9145 131.591 57.2922 132.011L56.3587 130.101C57.1113 129.609 57.8784 129.239 58.66 128.993C59.456 128.747 60.2882 128.624 61.1566 128.624C62.7776 128.624 64.0368 129.03 64.9341 129.84C65.8459 130.651 66.3018 131.809 66.3018 133.314L66.3017 136.939C66.3017 137.243 66.3523 137.46 66.4537 137.591C66.5694 137.721 66.7504 137.801 66.9964 137.83L66.9963 140.196C66.7358 140.239 66.497 140.276 66.2799 140.305C66.0773 140.333 65.9036 140.348 65.7589 140.348C65.1799 140.348 64.7385 140.218 64.4346 139.957C64.1451 139.697 63.9642 139.378 63.8918 139.002L63.8267 138.416C63.3346 139.052 62.7195 139.545 61.9813 139.892C61.2432 140.239 60.4906 140.413 59.7235 140.413C58.9709 140.413 58.2906 140.261 57.6828 139.957C57.0894 139.639 56.619 139.212 56.2716 138.676C55.9388 138.126 55.7723 137.511 55.7723 136.831ZM62.8498 137.417C63.009 137.243 63.1393 137.07 63.2406 136.896C63.3419 136.722 63.3926 136.563 63.3926 136.418L63.3926 135.268C63.0452 135.123 62.6689 135.014 62.2637 134.942C61.8584 134.855 61.4749 134.812 61.1131 134.812C60.3604 134.812 59.7381 134.978 59.246 135.311C58.7684 135.629 58.5295 136.056 58.5295 136.592C58.5295 136.881 58.6091 137.156 58.7683 137.417C58.9275 137.677 59.1591 137.887 59.463 138.047C59.767 138.206 60.1288 138.285 60.5485 138.285C60.9827 138.285 61.4097 138.206 61.8294 138.047C62.2491 137.873 62.5893 137.663 62.8498 137.417ZM76.7923 140.196L73.4708 135.29L71.9293 136.809L71.9293 140.196L69.0201 140.196L69.0205 124.348L71.9296 124.348L71.9294 133.944L76.5103 128.842L79.5932 128.842L75.3596 133.661L79.8968 140.196L76.7923 140.196ZM85.8079 140.414C84.8961 140.413 84.0711 140.261 83.333 139.958C82.5948 139.639 81.9652 139.212 81.4442 138.677C80.9232 138.127 80.5179 137.504 80.2285 136.81C79.9535 136.1 79.816 135.355 79.8161 134.573C79.8161 133.488 80.0549 132.496 80.5326 131.599C81.0247 130.702 81.7194 129.985 82.6168 129.45C83.5286 128.9 84.5996 128.625 85.8299 128.625C87.0746 128.625 88.1384 128.9 89.0212 129.45C89.9041 129.986 90.5771 130.702 91.0402 131.599C91.5178 132.482 91.7566 133.437 91.7566 134.465C91.7566 134.639 91.7493 134.82 91.7348 135.008C91.7204 135.182 91.7059 135.326 91.6914 135.442L82.8989 135.442C82.9567 136.021 83.1232 136.527 83.3982 136.962C83.6876 137.396 84.0494 137.729 84.4836 137.96C84.9323 138.177 85.4099 138.286 85.9165 138.286C86.4954 138.286 87.0382 138.148 87.5447 137.873C88.0658 137.584 88.4204 137.208 88.6086 136.745L91.1052 137.439C90.8302 138.018 90.4322 138.532 89.9111 138.981C89.4045 139.429 88.8039 139.784 88.1092 140.044C87.4144 140.291 86.6473 140.414 85.8079 140.414ZM82.8338 133.596L88.7823 133.597C88.7244 133.018 88.558 132.518 88.283 132.099C88.0225 131.664 87.6752 131.332 87.241 131.1C86.8068 130.854 86.3219 130.731 85.7864 130.731C85.2654 130.731 84.7877 130.854 84.3535 131.1C83.9338 131.331 83.5864 131.664 83.3114 132.099C83.0509 132.518 82.8917 133.018 82.8338 133.596ZM98.3893 142.411C98.6498 142.469 98.8886 142.52 99.1057 142.563C99.3373 142.607 99.5327 142.628 99.6919 142.628C99.9669 142.628 100.191 142.556 100.365 142.411C100.553 142.281 100.734 142.035 100.908 141.673C101.081 141.326 101.262 140.834 101.45 140.197L96.9567 128.821L99.9744 128.821L103.035 137.223L105.728 128.821L108.506 128.821L103.73 142.455C103.556 142.961 103.288 143.417 102.927 143.822C102.579 144.242 102.138 144.568 101.602 144.799C101.081 145.045 100.495 145.168 99.8438 145.168C99.6122 145.168 99.3807 145.147 99.1491 145.103C98.9175 145.074 98.6642 145.016 98.3892 144.929L98.3893 142.411ZM114.959 140.414C114.033 140.414 113.2 140.262 112.462 139.958C111.724 139.64 111.095 139.206 110.574 138.656C110.067 138.106 109.676 137.476 109.401 136.767C109.126 136.058 108.989 135.312 108.989 134.531C108.989 133.735 109.126 132.982 109.401 132.273C109.676 131.564 110.067 130.934 110.574 130.384C111.095 129.834 111.724 129.407 112.463 129.103C113.201 128.785 114.033 128.626 114.959 128.626C115.886 128.626 116.711 128.785 117.434 129.103C118.172 129.407 118.802 129.834 119.323 130.384C119.844 130.934 120.235 131.564 120.495 132.273C120.77 132.982 120.908 133.735 120.908 134.531C120.908 135.312 120.77 136.058 120.495 136.767C120.235 137.476 119.844 138.106 119.323 138.656C118.816 139.206 118.194 139.64 117.456 139.958C116.718 140.262 115.885 140.414 114.959 140.414ZM111.985 134.531C111.985 135.196 112.115 135.79 112.376 136.311C112.636 136.818 112.991 137.216 113.439 137.505C113.888 137.794 114.395 137.939 114.959 137.939C115.509 137.939 116.008 137.795 116.457 137.505C116.906 137.201 117.26 136.796 117.521 136.289C117.796 135.768 117.933 135.175 117.933 134.509C117.933 133.858 117.796 133.272 117.521 132.751C117.26 132.23 116.906 131.824 116.457 131.535C116.009 131.245 115.509 131.101 114.959 131.101C114.395 131.101 113.888 131.253 113.439 131.556C112.991 131.846 112.636 132.251 112.376 132.772C112.115 133.279 111.985 133.865 111.985 134.531ZM122.763 135.942L122.763 128.821L125.672 128.821L125.672 135.313C125.672 136.181 125.831 136.84 126.149 137.288C126.468 137.722 126.938 137.94 127.561 137.94C127.937 137.94 128.306 137.867 128.668 137.722C129.044 137.563 129.384 137.332 129.688 137.028C130.007 136.724 130.274 136.34 130.491 135.877L130.492 128.821L133.401 128.821L133.401 136.941C133.401 137.245 133.451 137.462 133.552 137.592C133.668 137.723 133.849 137.802 134.095 137.831L134.095 140.198C133.806 140.241 133.56 140.27 133.357 140.284C133.169 140.313 132.995 140.328 132.836 140.328C132.315 140.328 131.888 140.212 131.555 139.98C131.237 139.734 131.049 139.401 130.991 138.982L130.926 138.07C130.419 138.837 129.768 139.423 128.972 139.828C128.176 140.219 127.3 140.414 126.345 140.414C125.172 140.414 124.282 140.038 123.674 139.285C123.067 138.518 122.763 137.404 122.763 135.942ZM143.065 131.34C142.182 131.34 141.393 131.514 140.699 131.861C140.004 132.194 139.505 132.679 139.201 133.316L139.201 140.198L136.291 140.198L136.292 128.822L138.962 128.822L138.962 131.253C139.367 130.472 139.881 129.856 140.503 129.408C141.126 128.959 141.784 128.713 142.479 128.67C142.638 128.67 142.761 128.67 142.848 128.67C142.935 128.67 143.007 128.677 143.065 128.691L143.065 131.34ZM150.11 131.644L148.612 131.644L148.612 129.43L150.11 129.43L150.11 128.735C150.11 128.098 150.211 127.505 150.414 126.955C150.631 126.405 150.935 125.92 151.326 125.5C151.731 125.066 152.216 124.733 152.78 124.502C153.359 124.256 154.011 124.133 154.734 124.133C155.284 124.133 155.798 124.191 156.276 124.306C156.768 124.422 157.231 124.589 157.665 124.806C158.114 125.023 158.541 125.269 158.946 125.544L157.795 127.715C157.419 127.382 156.978 127.114 156.471 126.912C155.964 126.709 155.451 126.608 154.93 126.608C154.51 126.608 154.155 126.702 153.866 126.89C153.576 127.078 153.359 127.324 153.215 127.628C153.084 127.932 153.019 128.265 153.019 128.627L153.019 129.43L159.12 129.43L159.119 140.198L156.21 140.198L156.21 131.644L153.019 131.644L153.019 140.198L150.11 140.198L150.11 131.644ZM168.528 131.341C167.645 131.341 166.856 131.514 166.161 131.862C165.467 132.194 164.967 132.679 164.663 133.316L164.663 140.198L161.754 140.198L161.754 128.822L164.425 128.822L164.425 131.254C164.83 130.472 165.344 129.857 165.966 129.408C166.588 128.96 167.247 128.714 167.942 128.67C168.101 128.67 168.224 128.67 168.311 128.67C168.398 128.67 168.47 128.678 168.528 128.692L168.528 131.341ZM174.34 140.416C173.37 140.416 172.444 140.256 171.561 139.938C170.678 139.619 169.918 139.149 169.281 138.527L170.323 136.638C171.004 137.188 171.669 137.593 172.321 137.854C172.987 138.114 173.623 138.245 174.231 138.245C174.796 138.245 175.244 138.143 175.577 137.941C175.925 137.738 176.098 137.434 176.098 137.029C176.098 136.754 176.004 136.544 175.816 136.399C175.628 136.24 175.353 136.103 174.991 135.987C174.644 135.871 174.217 135.741 173.71 135.596C172.871 135.321 172.169 135.053 171.604 134.793C171.04 134.532 170.613 134.206 170.324 133.816C170.049 133.41 169.911 132.897 169.911 132.274C169.911 131.522 170.099 130.878 170.476 130.342C170.866 129.792 171.402 129.365 172.082 129.061C172.777 128.757 173.587 128.605 174.514 128.605C175.324 128.605 176.091 128.736 176.815 128.996C177.539 129.242 178.197 129.647 178.791 130.212L177.618 132.057C177.039 131.609 176.489 131.283 175.968 131.08C175.447 130.863 174.919 130.755 174.383 130.755C174.079 130.755 173.79 130.791 173.515 130.863C173.254 130.935 173.037 131.059 172.864 131.232C172.704 131.391 172.625 131.623 172.625 131.927C172.625 132.202 172.697 132.419 172.842 132.578C173.001 132.723 173.233 132.853 173.537 132.969C173.855 133.085 174.239 133.215 174.687 133.36C175.599 133.62 176.366 133.888 176.989 134.163C177.625 134.438 178.103 134.778 178.421 135.184C178.74 135.574 178.899 136.117 178.899 136.812C178.899 137.941 178.486 138.824 177.661 139.46C176.836 140.097 175.729 140.416 174.34 140.416ZM187.631 139.613C187.385 139.714 187.088 139.83 186.741 139.96C186.393 140.09 186.017 140.191 185.612 140.264C185.221 140.351 184.823 140.394 184.418 140.394C183.882 140.394 183.39 140.3 182.941 140.112C182.493 139.924 182.131 139.627 181.856 139.222C181.595 138.802 181.465 138.259 181.465 137.593L181.465 131.059L179.967 131.059L179.967 128.823L181.465 128.823L181.466 125.132L184.375 125.132L184.375 128.823L186.763 128.823L186.763 131.059L184.375 131.059L184.374 136.617C184.389 137.007 184.497 137.29 184.7 137.463C184.903 137.637 185.156 137.724 185.46 137.724C185.764 137.724 186.061 137.673 186.35 137.572C186.639 137.471 186.871 137.384 187.045 137.311L187.631 139.613ZM198.551 140.416C197.582 140.416 196.655 140.257 195.773 139.938C194.89 139.62 194.13 139.15 193.493 138.527L194.535 136.638C195.215 137.188 195.881 137.594 196.533 137.854C197.198 138.115 197.835 138.245 198.443 138.245C199.007 138.245 199.456 138.144 199.789 137.941C200.136 137.739 200.31 137.435 200.31 137.029C200.31 136.754 200.216 136.545 200.028 136.4C199.84 136.241 199.565 136.103 199.203 135.987C198.856 135.871 198.429 135.741 197.922 135.596C197.083 135.321 196.381 135.054 195.816 134.793C195.252 134.533 194.825 134.207 194.535 133.816C194.26 133.411 194.123 132.897 194.123 132.275C194.123 131.522 194.311 130.878 194.687 130.343C195.078 129.793 195.614 129.366 196.294 129.062C196.989 128.758 197.799 128.606 198.725 128.606C199.536 128.606 200.303 128.736 201.027 128.997C201.75 129.243 202.409 129.648 203.002 130.213L201.83 132.058C201.251 131.609 200.701 131.283 200.18 131.081C199.659 130.864 199.131 130.755 198.595 130.755C198.291 130.755 198.002 130.791 197.727 130.864C197.466 130.936 197.249 131.059 197.075 131.233C196.916 131.392 196.837 131.624 196.837 131.927C196.837 132.202 196.909 132.42 197.054 132.579C197.213 132.723 197.444 132.854 197.748 132.97C198.067 133.085 198.45 133.216 198.899 133.36C199.811 133.621 200.578 133.889 201.2 134.164C201.837 134.439 202.315 134.779 202.633 135.184C202.951 135.575 203.111 136.118 203.111 136.812C203.111 137.941 202.698 138.824 201.873 139.461C201.048 140.098 199.941 140.416 198.551 140.416ZM211.843 139.613C211.597 139.714 211.3 139.83 210.952 139.96C210.605 140.091 210.229 140.192 209.824 140.264C209.433 140.351 209.035 140.395 208.63 140.395C208.094 140.395 207.602 140.301 207.153 140.112C206.705 139.924 206.343 139.627 206.068 139.222C205.807 138.802 205.677 138.26 205.677 137.594L205.677 131.059L204.179 131.059L204.179 128.823L205.677 128.823L205.677 125.132L208.586 125.132L208.586 128.823L210.974 128.823L210.974 131.059L208.586 131.059L208.586 136.617C208.601 137.008 208.709 137.29 208.912 137.464C209.114 137.637 209.368 137.724 209.672 137.724C209.976 137.724 210.272 137.674 210.562 137.572C210.851 137.471 211.083 137.384 211.256 137.312L211.843 139.613ZM218.506 140.417C217.594 140.417 216.769 140.265 216.031 139.961C215.293 139.642 214.663 139.215 214.142 138.68C213.621 138.13 213.216 137.507 212.927 136.813C212.652 136.103 212.514 135.358 212.514 134.576C212.514 133.491 212.753 132.5 213.231 131.602C213.723 130.705 214.418 129.988 215.315 129.453C216.227 128.903 217.298 128.628 218.528 128.628C219.773 128.628 220.836 128.903 221.719 129.453C222.602 129.989 223.275 130.705 223.738 131.602C224.216 132.485 224.455 133.441 224.455 134.468C224.455 134.642 224.447 134.823 224.433 135.011C224.418 135.185 224.404 135.329 224.39 135.445L215.597 135.445C215.655 136.024 215.821 136.53 216.096 136.965C216.386 137.399 216.748 137.732 217.182 137.963C217.63 138.18 218.108 138.289 218.615 138.289C219.194 138.289 219.736 138.152 220.243 137.877C220.764 137.587 221.119 137.211 221.307 136.748L223.803 137.442C223.528 138.021 223.13 138.535 222.609 138.984C222.103 139.432 221.502 139.787 220.807 140.048C220.113 140.294 219.345 140.417 218.506 140.417ZM215.532 133.6L221.48 133.6C221.423 133.021 221.256 132.521 220.981 132.102C220.721 131.667 220.373 131.335 219.939 131.103C219.505 130.857 219.02 130.734 218.485 130.734C217.963 130.734 217.486 130.857 217.052 131.103C216.632 131.334 216.285 131.667 216.01 132.102C215.749 132.521 215.59 133.021 215.532 133.6ZM233.044 140.417C232.161 140.417 231.379 140.221 230.699 139.831C230.033 139.425 229.512 138.883 229.136 138.202L229.136 144.824L226.227 144.824L226.227 128.824L228.767 128.824L228.767 130.778C229.201 130.112 229.751 129.591 230.417 129.214C231.083 128.824 231.843 128.628 232.697 128.628C233.464 128.628 234.166 128.78 234.803 129.084C235.454 129.388 236.018 129.815 236.496 130.365C236.973 130.901 237.343 131.523 237.603 132.232C237.878 132.927 238.015 133.68 238.015 134.49C238.015 135.59 237.798 136.589 237.364 137.486C236.944 138.383 236.358 139.1 235.606 139.635C234.867 140.156 234.013 140.417 233.044 140.417ZM232.067 137.942C232.516 137.942 232.921 137.848 233.283 137.66C233.644 137.472 233.956 137.218 234.216 136.9C234.491 136.567 234.694 136.198 234.824 135.793C234.969 135.373 235.041 134.939 235.041 134.49C235.041 134.012 234.962 133.571 234.802 133.166C234.658 132.761 234.441 132.406 234.151 132.102C233.862 131.784 233.522 131.538 233.131 131.364C232.754 131.19 232.342 131.103 231.893 131.103C231.618 131.103 231.336 131.154 231.047 131.255C230.772 131.342 230.504 131.472 230.243 131.646C229.983 131.82 229.751 132.022 229.549 132.254C229.36 132.485 229.223 132.739 229.136 133.014L229.136 135.684C229.31 136.104 229.541 136.487 229.831 136.835C230.135 137.182 230.482 137.457 230.873 137.66C231.264 137.848 231.662 137.942 232.067 137.942Z" fill="#18181B"/>
<path opacity="0.7" d="M44.9122 176.283L44.9124 168.452L45.9344 168.452L45.9342 176.283L44.9122 176.283ZM44.9124 166.814L44.9125 165.311L45.9345 165.311L45.9345 166.814L44.9124 166.814ZM51.9428 175.907C51.8627 175.937 51.7374 175.992 51.5671 176.073C51.3967 176.153 51.1913 176.223 50.9509 176.283C50.7104 176.343 50.4499 176.373 50.1693 176.373C49.8787 176.373 49.6032 176.318 49.3426 176.208C49.0922 176.098 48.8918 175.932 48.7415 175.712C48.5912 175.481 48.516 175.201 48.516 174.87L48.5162 169.264L47.434 169.264L47.434 168.452L48.5162 168.452L48.5162 165.807L49.5383 165.807L49.5382 168.452L51.3418 168.452L51.3418 169.264L49.5382 169.264L49.5381 174.585C49.5581 174.865 49.6583 175.076 49.8387 175.216C50.029 175.356 50.2445 175.426 50.4849 175.426C50.7655 175.426 51.021 175.381 51.2515 175.291C51.4819 175.191 51.6222 175.121 51.6723 175.081L51.9428 175.907ZM68.6989 176.283L67.6769 176.283L67.677 171.91C67.677 170.998 67.5317 170.326 67.2412 169.896C66.9506 169.465 66.5197 169.249 65.9486 169.249C65.3574 169.249 64.8264 169.46 64.3554 169.881C63.8945 170.301 63.5688 170.842 63.3784 171.504L63.3783 176.283L62.3563 176.283L62.3564 171.91C62.3564 170.988 62.2161 170.316 61.9356 169.896C61.655 169.465 61.2242 169.249 60.643 169.249C60.0619 169.249 59.5358 169.455 59.0649 169.865C58.5939 170.276 58.2632 170.817 58.0728 171.489L58.0727 176.283L57.0507 176.283L57.0509 168.453L57.9827 168.453L57.9827 170.226C58.3134 169.615 58.7342 169.144 59.2452 168.813C59.7663 168.483 60.3424 168.317 60.9737 168.317C61.625 168.317 62.151 168.503 62.5518 168.873C62.9526 169.244 63.1981 169.73 63.2883 170.331C63.649 169.67 64.0799 169.169 64.5809 168.828C65.0919 168.488 65.6681 168.317 66.3094 168.317C66.7502 168.317 67.121 168.398 67.4216 168.558C67.7322 168.718 67.9777 168.949 68.158 169.249C68.3484 169.54 68.4837 169.896 68.5638 170.317C68.654 170.727 68.6991 171.188 68.699 171.699L68.6989 176.283ZM70.8624 176.283L70.8626 168.453L71.8847 168.453L71.8845 176.283L70.8624 176.283ZM70.8627 166.815L70.8627 165.312L71.8847 165.312L71.8847 166.815L70.8627 166.815ZM77.2768 176.389C76.7458 176.389 76.2548 176.279 75.8039 176.058C75.353 175.838 74.9622 175.542 74.6316 175.171C74.311 174.791 74.0605 174.36 73.8801 173.879C73.6998 173.398 73.6096 172.902 73.6096 172.391C73.6096 171.84 73.6948 171.324 73.8652 170.843C74.0455 170.352 74.296 169.916 74.6167 169.535C74.9474 169.154 75.3331 168.859 75.774 168.648C76.2149 168.428 76.7059 168.318 77.247 168.318C77.9183 168.318 78.4995 168.488 78.9904 168.829C79.4914 169.169 79.9123 169.59 80.2529 170.091L80.253 168.453L81.1698 168.453L81.1696 176.314C81.1696 177.035 80.9942 177.641 80.6435 178.132C80.3028 178.633 79.8369 179.009 79.2457 179.26C78.6645 179.51 78.0283 179.635 77.3369 179.635C76.4451 179.635 75.7237 179.475 75.1726 179.154C74.6215 178.834 74.1706 178.403 73.8199 177.862L74.4512 177.366C74.7618 177.857 75.1726 178.222 75.6836 178.463C76.2046 178.703 76.7557 178.824 77.3369 178.824C77.8479 178.824 78.3139 178.729 78.7347 178.538C79.1656 178.358 79.5063 178.082 79.7568 177.712C80.0173 177.341 80.1476 176.875 80.1476 176.314L80.1476 174.766C79.847 175.257 79.4362 175.652 78.9151 175.953C78.3941 176.244 77.848 176.389 77.2768 176.389ZM77.5624 175.532C77.873 175.532 78.1686 175.477 78.4492 175.367C78.7398 175.257 79.0053 175.111 79.2458 174.931C79.4863 174.741 79.6867 174.53 79.847 174.3C80.0073 174.069 80.1075 173.834 80.1476 173.593L80.1477 171.173C79.9974 170.793 79.782 170.457 79.5014 170.166C79.2209 169.866 78.9002 169.635 78.5395 169.475C78.1888 169.305 77.8231 169.22 77.4423 169.22C77.0015 169.22 76.6057 169.315 76.255 169.505C75.9143 169.685 75.6237 169.931 75.3832 170.242C75.1527 170.542 74.9724 170.883 74.8421 171.264C74.7118 171.644 74.6467 172.025 74.6467 172.406C74.6467 172.827 74.7218 173.227 74.8721 173.608C75.0224 173.979 75.2278 174.315 75.4883 174.615C75.7588 174.906 76.0695 175.131 76.4202 175.292C76.7809 175.452 77.1616 175.532 77.5624 175.532ZM90.0097 176.284L88.9877 176.284L88.9878 171.91C88.9878 171.028 88.8325 170.367 88.5219 169.926C88.2113 169.475 87.7654 169.25 87.1842 169.25C86.8035 169.25 86.4227 169.35 86.042 169.55C85.6712 169.741 85.3405 170.006 85.05 170.347C84.7694 170.678 84.569 171.058 84.4487 171.489L84.4486 176.284L83.4266 176.284L83.4268 165.312L84.4489 165.312L84.4488 170.227C84.7594 169.646 85.1903 169.185 85.7414 168.844C86.3025 168.493 86.8987 168.318 87.53 168.318C87.9809 168.318 88.3616 168.398 88.6722 168.558C88.9929 168.719 89.2484 168.954 89.4387 169.265C89.6391 169.565 89.7844 169.921 89.8746 170.332C89.9648 170.733 90.0098 171.189 90.0098 171.7L90.0097 176.284ZM95.8733 175.908C95.7931 175.938 95.6679 175.993 95.4976 176.074C95.3272 176.154 95.1218 176.224 94.8813 176.284C94.6408 176.344 94.3803 176.374 94.0998 176.374C93.8092 176.374 93.5336 176.319 93.2731 176.209C93.0226 176.099 92.8222 175.933 92.6719 175.713C92.5216 175.482 92.4465 175.202 92.4465 174.871L92.4466 169.265L91.3645 169.265L91.3645 168.453L92.4466 168.453L92.4467 165.808L93.4687 165.808L93.4687 168.453L95.2723 168.453L95.2723 169.265L93.4687 169.265L93.4685 174.586C93.4886 174.866 93.5888 175.077 93.7691 175.217C93.9595 175.357 94.1749 175.427 94.4154 175.427C94.696 175.427 94.9515 175.382 95.1819 175.292C95.4124 175.192 95.5527 175.122 95.6028 175.082L95.8733 175.908ZM104.739 175.908C104.658 175.939 104.533 175.994 104.363 176.074C104.193 176.154 103.987 176.224 103.747 176.284C103.506 176.344 103.246 176.374 102.965 176.374C102.675 176.374 102.399 176.319 102.138 176.209C101.888 176.099 101.688 175.933 101.537 175.713C101.387 175.483 101.312 175.202 101.312 174.871L101.312 169.265L100.23 169.265L100.23 168.454L101.312 168.454L101.312 165.808L102.334 165.808L102.334 168.454L104.138 168.454L104.138 169.265L102.334 169.265L102.334 174.586C102.354 174.866 102.454 175.077 102.634 175.217C102.825 175.357 103.04 175.427 103.281 175.428C103.561 175.428 103.817 175.382 104.047 175.292C104.278 175.192 104.418 175.122 104.468 175.082L104.739 175.908ZM105.384 174.03C105.384 173.539 105.525 173.118 105.805 172.767C106.086 172.407 106.472 172.131 106.963 171.941C107.464 171.74 108.04 171.64 108.691 171.64C109.072 171.64 109.468 171.67 109.878 171.73C110.289 171.79 110.655 171.881 110.976 172.001L110.976 171.34C110.976 170.678 110.78 170.152 110.389 169.761C109.999 169.371 109.458 169.175 108.766 169.175C108.345 169.175 107.93 169.255 107.519 169.416C107.118 169.566 106.697 169.791 106.256 170.092L105.865 169.37C106.376 169.02 106.878 168.759 107.368 168.589C107.859 168.409 108.36 168.318 108.871 168.318C109.833 168.318 110.595 168.594 111.156 169.145C111.717 169.696 111.998 170.458 111.998 171.43L111.998 175.052C111.998 175.192 112.028 175.297 112.088 175.368C112.148 175.428 112.243 175.463 112.373 175.473L112.373 176.284C112.263 176.294 112.168 176.304 112.088 176.314C112.008 176.324 111.947 176.324 111.907 176.314C111.657 176.304 111.466 176.224 111.336 176.074C111.206 175.924 111.136 175.763 111.126 175.593L111.111 175.022C110.76 175.473 110.304 175.823 109.743 176.074C109.182 176.314 108.611 176.435 108.03 176.435C107.529 176.435 107.073 176.329 106.662 176.119C106.261 175.899 105.945 175.608 105.715 175.247C105.495 174.876 105.384 174.471 105.384 174.03ZM110.63 174.631C110.74 174.491 110.825 174.356 110.885 174.225C110.946 174.095 110.976 173.98 110.976 173.88L110.976 172.737C110.635 172.607 110.279 172.507 109.908 172.437C109.548 172.367 109.182 172.331 108.811 172.331C108.08 172.331 107.489 172.477 107.038 172.767C106.587 173.058 106.361 173.454 106.361 173.955C106.361 174.245 106.436 174.521 106.587 174.781C106.737 175.032 106.958 175.242 107.248 175.413C107.539 175.573 107.879 175.653 108.27 175.653C108.761 175.653 109.217 175.558 109.638 175.368C110.069 175.177 110.399 174.932 110.63 174.631ZM119.797 176.285L116.896 172.272L115.228 173.835L115.228 176.284L114.206 176.284L114.206 165.313L115.228 165.313L115.228 172.737L119.662 168.469L120.789 168.469L117.588 171.67L120.909 176.285L119.797 176.285ZM125.147 176.435C124.585 176.435 124.064 176.33 123.583 176.119C123.103 175.899 122.687 175.603 122.336 175.233C121.985 174.852 121.71 174.416 121.509 173.925C121.319 173.434 121.224 172.908 121.224 172.347C121.224 171.615 121.389 170.944 121.72 170.333C122.061 169.722 122.527 169.236 123.118 168.875C123.709 168.504 124.38 168.319 125.132 168.319C125.903 168.319 126.575 168.504 127.146 168.875C127.727 169.246 128.183 169.737 128.513 170.348C128.844 170.949 129.009 171.61 129.009 172.332C129.009 172.412 129.009 172.492 129.009 172.572C129.009 172.643 129.004 172.698 128.994 172.738L122.291 172.738C122.341 173.299 122.496 173.8 122.757 174.241C123.027 174.671 123.373 175.017 123.794 175.278C124.225 175.528 124.691 175.653 125.192 175.653C125.703 175.653 126.184 175.523 126.635 175.263C127.095 175.002 127.416 174.662 127.597 174.241L128.483 174.481C128.323 174.852 128.077 175.188 127.747 175.488C127.416 175.789 127.025 176.024 126.574 176.195C126.134 176.355 125.658 176.435 125.147 176.435ZM122.261 172.001L128.047 172.001C128.007 171.43 127.852 170.929 127.582 170.498C127.321 170.067 126.975 169.732 126.545 169.491C126.124 169.241 125.658 169.115 125.147 169.115C124.636 169.115 124.17 169.241 123.749 169.491C123.328 169.732 122.982 170.072 122.712 170.513C122.451 170.944 122.301 171.44 122.261 172.001ZM133.786 174.03C133.786 173.539 133.926 173.119 134.207 172.768C134.487 172.407 134.873 172.132 135.364 171.941C135.865 171.741 136.441 171.641 137.092 171.641C137.473 171.641 137.869 171.671 138.28 171.731C138.691 171.791 139.056 171.881 139.377 172.001L139.377 171.34C139.377 170.679 139.182 170.153 138.791 169.762C138.4 169.371 137.859 169.176 137.168 169.176C136.747 169.176 136.331 169.256 135.92 169.416C135.519 169.567 135.099 169.792 134.658 170.093L134.267 169.371C134.778 169.02 135.279 168.76 135.77 168.59C136.261 168.409 136.762 168.319 137.273 168.319C138.235 168.319 138.996 168.595 139.557 169.146C140.119 169.697 140.399 170.458 140.399 171.43L140.399 175.053C140.399 175.193 140.429 175.298 140.489 175.368C140.549 175.428 140.644 175.463 140.775 175.473L140.775 176.285C140.665 176.295 140.569 176.305 140.489 176.315C140.409 176.325 140.349 176.325 140.309 176.315C140.058 176.305 139.868 176.225 139.738 176.075C139.607 175.924 139.537 175.764 139.527 175.594L139.512 175.023C139.162 175.473 138.706 175.824 138.144 176.075C137.583 176.315 137.012 176.435 136.431 176.435C135.93 176.435 135.474 176.33 135.063 176.12C134.663 175.899 134.347 175.609 134.116 175.248C133.896 174.877 133.786 174.471 133.786 174.03ZM139.031 174.632C139.142 174.491 139.227 174.356 139.287 174.226C139.347 174.096 139.377 173.98 139.377 173.88L139.377 172.738C139.036 172.608 138.681 172.507 138.31 172.437C137.949 172.367 137.583 172.332 137.213 172.332C136.481 172.332 135.89 172.477 135.439 172.768C134.988 173.059 134.763 173.454 134.763 173.955C134.763 174.246 134.838 174.521 134.988 174.782C135.138 175.032 135.359 175.243 135.65 175.413C135.94 175.574 136.281 175.654 136.672 175.654C137.163 175.654 137.618 175.559 138.039 175.368C138.47 175.178 138.801 174.932 139.031 174.632ZM155.872 168.455L156.879 168.455L153.512 176.285L152.626 176.285L150.987 172.393L149.364 176.285L148.477 176.285L145.111 168.455L146.103 168.455L148.958 175.233L150.401 171.701L149.079 168.47L149.996 168.47L150.987 171.01L151.995 168.47L152.896 168.47L151.589 171.701L153.031 175.233L155.872 168.455ZM164.822 176.286L163.8 176.286L163.8 171.912C163.8 171.03 163.645 170.369 163.334 169.928C163.024 169.477 162.578 169.252 161.997 169.252C161.616 169.252 161.235 169.352 160.854 169.552C160.484 169.742 160.153 170.008 159.862 170.349C159.582 170.679 159.381 171.06 159.261 171.491L159.261 176.285L158.239 176.285L158.239 165.314L159.261 165.314L159.261 170.228C159.572 169.647 160.003 169.186 160.554 168.846C161.115 168.495 161.711 168.32 162.342 168.32C162.793 168.32 163.174 168.4 163.485 168.56C163.805 168.721 164.061 168.956 164.251 169.267C164.452 169.567 164.597 169.923 164.687 170.334C164.777 170.735 164.822 171.19 164.822 171.701L164.822 176.286ZM167.002 176.286L167.002 168.455L168.024 168.455L168.024 176.286L167.002 176.286ZM167.002 166.817L167.002 165.314L168.024 165.314L168.024 166.817L167.002 166.817ZM170.32 165.314L171.342 165.314L171.342 174.512C171.342 174.903 171.412 175.159 171.552 175.279C171.693 175.399 171.863 175.459 172.063 175.459C172.244 175.459 172.424 175.439 172.604 175.399C172.785 175.359 172.94 175.319 173.07 175.279L173.251 176.105C173.06 176.186 172.825 176.251 172.544 176.301C172.274 176.351 172.038 176.376 171.838 176.376C171.377 176.376 171.006 176.241 170.726 175.97C170.455 175.7 170.32 175.329 170.32 174.858L170.32 165.314ZM177.752 176.436C177.19 176.436 176.669 176.331 176.188 176.121C175.707 175.9 175.292 175.605 174.941 175.234C174.59 174.853 174.315 174.417 174.114 173.926C173.924 173.435 173.829 172.909 173.829 172.348C173.829 171.617 173.994 170.945 174.325 170.334C174.666 169.723 175.132 169.237 175.723 168.876C176.314 168.505 176.985 168.32 177.737 168.32C178.508 168.32 179.18 168.505 179.751 168.876C180.332 169.247 180.788 169.738 181.118 170.349C181.449 170.95 181.614 171.612 181.614 172.333C181.614 172.413 181.614 172.493 181.614 172.574C181.614 172.644 181.609 172.699 181.599 172.739L174.896 172.739C174.946 173.3 175.101 173.801 175.362 174.242C175.632 174.673 175.978 175.018 176.399 175.279C176.83 175.529 177.296 175.655 177.797 175.655C178.308 175.655 178.789 175.524 179.24 175.264C179.7 175.003 180.021 174.663 180.202 174.242L181.088 174.482C180.928 174.853 180.682 175.189 180.352 175.489C180.021 175.79 179.63 176.025 179.179 176.196C178.739 176.356 178.263 176.436 177.752 176.436ZM174.866 172.002L180.652 172.002C180.612 171.431 180.457 170.93 180.187 170.499C179.926 170.069 179.58 169.733 179.15 169.492C178.729 169.242 178.263 169.117 177.752 169.117C177.241 169.117 176.775 169.242 176.354 169.492C175.933 169.733 175.587 170.073 175.317 170.514C175.056 170.945 174.906 171.441 174.866 172.002ZM187.398 176.286L187.398 169.267L186.316 169.267L186.316 168.455L187.398 168.456L187.398 168.245C187.398 167.604 187.488 167.053 187.669 166.592C187.859 166.131 188.124 165.78 188.465 165.54C188.816 165.289 189.227 165.164 189.698 165.164C190.008 165.164 190.309 165.209 190.599 165.299C190.89 165.389 191.141 165.51 191.351 165.66L191.035 166.396C190.905 166.286 190.735 166.201 190.524 166.141C190.314 166.081 190.103 166.051 189.893 166.051C189.422 166.051 189.056 166.236 188.796 166.607C188.545 166.978 188.42 167.514 188.42 168.215L188.42 168.456L190.584 168.456L190.584 169.267L188.42 169.267L188.42 176.286L187.398 176.286ZM195.07 176.437C194.509 176.437 193.988 176.331 193.507 176.121C193.036 175.901 192.625 175.605 192.275 175.234C191.934 174.853 191.669 174.423 191.478 173.942C191.288 173.451 191.193 172.935 191.193 172.393C191.193 171.832 191.288 171.311 191.478 170.83C191.669 170.339 191.939 169.909 192.29 169.538C192.641 169.157 193.051 168.861 193.522 168.651C194.003 168.431 194.524 168.32 195.085 168.32C195.647 168.32 196.163 168.431 196.634 168.651C197.104 168.862 197.515 169.157 197.866 169.538C198.217 169.909 198.487 170.34 198.678 170.831C198.868 171.311 198.963 171.833 198.963 172.394C198.963 172.935 198.868 173.451 198.678 173.942C198.487 174.423 198.217 174.854 197.866 175.234C197.525 175.605 197.114 175.901 196.633 176.121C196.162 176.331 195.641 176.437 195.07 176.437ZM192.23 172.409C192.23 172.99 192.355 173.521 192.605 174.002C192.866 174.473 193.212 174.848 193.642 175.129C194.073 175.4 194.549 175.535 195.07 175.535C195.591 175.535 196.067 175.395 196.498 175.114C196.929 174.833 197.275 174.453 197.535 173.972C197.796 173.481 197.926 172.95 197.926 172.379C197.926 171.797 197.796 171.266 197.535 170.785C197.275 170.304 196.929 169.924 196.498 169.643C196.067 169.363 195.591 169.222 195.07 169.222C194.549 169.222 194.073 169.367 193.643 169.658C193.222 169.949 192.881 170.334 192.62 170.815C192.36 171.286 192.23 171.817 192.23 172.409ZM204.58 169.358C203.899 169.378 203.298 169.568 202.777 169.929C202.266 170.29 201.905 170.785 201.694 171.417L201.694 176.286L200.672 176.286L200.672 168.456L201.634 168.456L201.634 170.335C201.905 169.783 202.261 169.338 202.702 168.997C203.152 168.656 203.628 168.466 204.129 168.426C204.23 168.416 204.315 168.411 204.385 168.411C204.465 168.411 204.53 168.416 204.58 168.426L204.58 169.358ZM209.46 178.691C209.6 178.701 209.736 178.706 209.866 178.706C209.996 178.717 210.091 178.712 210.152 178.691C210.272 178.671 210.387 178.601 210.497 178.481C210.607 178.361 210.738 178.13 210.888 177.79C211.038 177.449 211.249 176.948 211.519 176.287L208.108 168.456L209.19 168.456L212.06 175.235L214.706 168.456L215.728 168.456L211.67 178.556C211.599 178.747 211.494 178.922 211.354 179.082C211.214 179.253 211.038 179.383 210.828 179.473C210.627 179.573 210.377 179.628 210.076 179.638C209.986 179.648 209.891 179.648 209.791 179.638C209.701 179.638 209.59 179.628 209.46 179.608L209.46 178.691ZM220.213 176.437C219.652 176.437 219.131 176.332 218.65 176.122C218.179 175.901 217.768 175.605 217.418 175.235C217.077 174.854 216.811 174.423 216.621 173.942C216.431 173.451 216.336 172.935 216.336 172.394C216.336 171.833 216.431 171.312 216.621 170.831C216.812 170.34 217.082 169.909 217.433 169.538C217.784 169.158 218.194 168.862 218.665 168.652C219.146 168.431 219.667 168.321 220.228 168.321C220.79 168.321 221.306 168.431 221.776 168.652C222.247 168.862 222.658 169.158 223.009 169.538C223.36 169.909 223.63 170.34 223.821 170.831C224.011 171.312 224.106 171.833 224.106 172.394C224.106 172.935 224.011 173.451 223.82 173.942C223.63 174.423 223.36 174.854 223.009 175.235C222.668 175.606 222.257 175.901 221.776 176.122C221.305 176.332 220.784 176.437 220.213 176.437ZM217.373 172.409C217.373 172.99 217.498 173.521 217.748 174.002C218.009 174.473 218.355 174.849 218.785 175.13C219.216 175.4 219.692 175.535 220.213 175.535C220.734 175.535 221.21 175.395 221.641 175.115C222.072 174.834 222.418 174.453 222.678 173.972C222.939 173.481 223.069 172.95 223.069 172.379C223.069 171.798 222.939 171.267 222.678 170.786C222.418 170.305 222.072 169.924 221.641 169.644C221.21 169.363 220.734 169.223 220.213 169.223C219.692 169.223 219.216 169.368 218.785 169.659C218.365 169.949 218.024 170.335 217.763 170.816C217.503 171.287 217.373 171.818 217.373 172.409ZM225.74 173.056L225.74 168.456L226.762 168.456L226.762 172.875C226.762 173.767 226.913 174.433 227.213 174.874C227.524 175.315 227.98 175.536 228.581 175.536C228.982 175.536 229.367 175.45 229.738 175.28C230.119 175.1 230.455 174.849 230.745 174.529C231.036 174.198 231.256 173.817 231.407 173.386L231.407 168.457L232.429 168.457L232.429 175.055C232.429 175.195 232.459 175.3 232.519 175.37C232.579 175.43 232.669 175.466 232.789 175.476L232.789 176.287C232.669 176.297 232.574 176.302 232.504 176.302C232.433 176.312 232.368 176.317 232.308 176.317C232.108 176.297 231.932 176.217 231.782 176.077C231.642 175.936 231.567 175.766 231.557 175.566L231.527 174.514C231.186 175.115 230.72 175.586 230.129 175.926C229.548 176.267 228.916 176.437 228.235 176.437C227.413 176.437 226.792 176.152 226.371 175.581C225.951 175.009 225.74 174.168 225.74 173.056ZM238.647 169.358C237.966 169.379 237.365 169.569 236.844 169.93C236.333 170.29 235.972 170.786 235.762 171.418L235.761 176.287L234.739 176.287L234.74 168.457L235.701 168.457L235.701 170.335C235.972 169.784 236.328 169.338 236.769 168.998C237.219 168.657 237.695 168.467 238.196 168.427C238.297 168.417 238.382 168.412 238.452 168.412C238.532 168.412 238.597 168.417 238.647 168.427L238.647 169.358ZM60.4188 193.907C60.3387 193.938 60.2134 193.993 60.0431 194.073C59.8727 194.153 59.6673 194.223 59.4268 194.283C59.1864 194.343 58.9258 194.373 58.6453 194.373C58.3547 194.373 58.0791 194.318 57.8186 194.208C57.5681 194.098 57.3677 193.932 57.2174 193.712C57.0671 193.482 56.992 193.201 56.992 192.87L56.9921 187.264L55.91 187.264L55.91 186.452L56.9922 186.453L56.9922 183.807L58.0143 183.807L58.0142 186.453L59.8178 186.453L59.8178 187.264L58.0142 187.264L58.0141 192.585C58.0341 192.865 58.1343 193.076 58.3146 193.216C58.505 193.356 58.7204 193.426 58.9609 193.426C59.2415 193.426 59.497 193.381 59.7275 193.291C59.9579 193.191 60.0982 193.121 60.1483 193.081L60.4188 193.907ZM65.6037 187.355C64.9224 187.375 64.3212 187.565 63.8001 187.926C63.2891 188.286 62.9284 188.782 62.7179 189.414L62.7178 194.283L61.6958 194.283L61.696 186.453L62.6579 186.453L62.6578 188.331C62.9284 187.78 63.2841 187.334 63.725 186.994C64.1759 186.653 64.6519 186.463 65.1529 186.423C65.2531 186.413 65.3382 186.408 65.4084 186.408C65.4885 186.408 65.5537 186.413 65.6038 186.423L65.6037 187.355ZM66.3045 192.029C66.3045 191.538 66.4448 191.117 66.7254 190.766C67.006 190.406 67.3917 190.13 67.8827 189.94C68.3837 189.739 68.9599 189.639 69.6112 189.639C69.9919 189.639 70.3877 189.669 70.7985 189.729C71.2094 189.79 71.5751 189.88 71.8957 190L71.8957 189.339C71.8958 188.677 71.7004 188.151 71.3096 187.76C70.9188 187.37 70.3778 187.174 69.6864 187.174C69.2655 187.174 68.8497 187.254 68.4389 187.415C68.0381 187.565 67.6172 187.79 67.1764 188.091L66.7856 187.37C67.2966 187.019 67.7976 186.758 68.2886 186.588C68.7796 186.408 69.2806 186.318 69.7916 186.318C70.7535 186.318 71.515 186.593 72.0762 187.144C72.6373 187.695 72.9178 188.457 72.9178 189.429L72.9177 193.051C72.9177 193.191 72.9478 193.297 73.0079 193.367C73.068 193.427 73.1632 193.462 73.2934 193.472L73.2934 194.284C73.1832 194.294 73.088 194.304 73.0079 194.314C72.9277 194.324 72.8676 194.324 72.8275 194.314C72.577 194.304 72.3866 194.223 72.2564 194.073C72.1261 193.923 72.056 193.762 72.0459 193.592L72.0309 193.021C71.6802 193.472 71.2243 193.823 70.6632 194.073C70.1021 194.314 69.5309 194.434 68.9497 194.434C68.4487 194.434 67.9928 194.328 67.582 194.118C67.1812 193.898 66.8656 193.607 66.6352 193.246C66.4147 192.876 66.3045 192.47 66.3045 192.029ZM71.55 192.63C71.6602 192.49 71.7454 192.355 71.8055 192.224C71.8656 192.094 71.8957 191.979 71.8957 191.879L71.8957 190.736C71.555 190.606 71.1993 190.506 70.8286 190.436C70.4679 190.366 70.1021 190.331 69.7314 190.331C68.9999 190.331 68.4088 190.476 67.9579 190.766C67.5069 191.057 67.2815 191.453 67.2815 191.954C67.2815 192.244 67.3566 192.52 67.5069 192.78C67.6572 193.031 67.8776 193.241 68.1682 193.412C68.4588 193.572 68.7995 193.652 69.1902 193.652C69.6812 193.652 70.1371 193.557 70.558 193.367C70.9888 193.176 71.3195 192.931 71.55 192.63ZM81.7091 194.284L80.687 194.284L80.6871 189.91C80.6871 188.988 80.5519 188.317 80.2813 187.896C80.0108 187.465 79.585 187.25 79.0038 187.25C78.603 187.25 78.2072 187.35 77.8164 187.55C77.4256 187.741 77.08 188.006 76.7793 188.347C76.4888 188.677 76.2783 189.058 76.1481 189.489L76.1479 194.284L75.1259 194.284L75.1261 186.453L76.0579 186.453L76.0579 188.226C76.2683 187.846 76.5439 187.515 76.8846 187.235C77.2253 186.944 77.611 186.719 78.0419 186.558C78.4728 186.398 78.9187 186.318 79.3796 186.318C79.8104 186.318 80.1762 186.398 80.4768 186.558C80.7774 186.719 81.0178 186.949 81.1982 187.25C81.3785 187.54 81.5088 187.896 81.5889 188.317C81.6691 188.728 81.7092 189.189 81.7092 189.7L81.7091 194.284ZM86.4586 194.434C85.8174 194.434 85.2212 194.329 84.6701 194.118C84.119 193.908 83.643 193.587 83.2422 193.157L83.6631 192.435C84.104 192.846 84.5448 193.147 84.9857 193.337C85.4366 193.517 85.9126 193.607 86.4136 193.607C87.0248 193.607 87.5208 193.487 87.9015 193.247C88.2823 192.996 88.4727 192.641 88.4727 192.18C88.4727 191.869 88.3775 191.634 88.1872 191.473C88.0068 191.303 87.7413 191.168 87.3906 191.067C87.0499 190.957 86.6391 190.842 86.1581 190.722C85.617 190.571 85.1611 190.416 84.7904 190.256C84.4297 190.085 84.1541 189.875 83.9638 189.624C83.7834 189.364 83.6932 189.028 83.6933 188.617C83.6933 188.106 83.8185 187.686 84.069 187.355C84.3296 187.014 84.6803 186.759 85.1211 186.588C85.5721 186.408 86.0731 186.318 86.6242 186.318C87.2254 186.318 87.7564 186.413 88.2173 186.604C88.6782 186.794 89.054 187.059 89.3446 187.4L88.8486 188.092C88.568 187.771 88.2323 187.535 87.8416 187.385C87.4608 187.225 87.035 187.145 86.564 187.145C86.2434 187.145 85.9378 187.19 85.6472 187.28C85.3566 187.36 85.1161 187.5 84.9257 187.701C84.7454 187.891 84.6552 188.157 84.6552 188.497C84.6552 188.778 84.7253 188.998 84.8656 189.159C85.0059 189.309 85.2163 189.439 85.4968 189.549C85.7774 189.65 86.1231 189.76 86.5339 189.88C87.1251 190.04 87.6411 190.206 88.082 190.376C88.5228 190.536 88.8635 190.747 89.104 191.007C89.3445 191.268 89.4647 191.634 89.4647 192.105C89.4647 192.836 89.1891 193.407 88.638 193.818C88.0869 194.229 87.3604 194.434 86.4586 194.434ZM90.5228 192.029C90.5228 191.538 90.6631 191.118 90.9437 190.767C91.2242 190.406 91.61 190.131 92.101 189.94C92.602 189.74 93.1781 189.64 93.8294 189.64C94.2102 189.64 94.606 189.67 95.0168 189.73C95.4276 189.79 95.7934 189.88 96.114 190L96.114 189.339C96.114 188.678 95.9186 188.152 95.5279 187.761C95.1371 187.37 94.596 187.175 93.9046 187.175C93.4838 187.175 93.068 187.255 92.6572 187.415C92.2563 187.566 91.8355 187.791 91.3946 188.092L91.0039 187.37C91.5149 187.019 92.0159 186.759 92.5069 186.589C92.9979 186.408 93.4989 186.318 94.0099 186.318C94.9718 186.318 95.7333 186.594 96.2944 187.145C96.8555 187.696 97.1361 188.457 97.136 189.429L97.136 193.052C97.136 193.192 97.166 193.297 97.2261 193.367C97.2863 193.427 97.3814 193.462 97.5117 193.472L97.5117 194.284C97.4015 194.294 97.3063 194.304 97.2261 194.314C97.146 194.324 97.0858 194.324 97.0458 194.314C96.7953 194.304 96.6049 194.224 96.4746 194.074C96.3444 193.923 96.2742 193.763 96.2642 193.593L96.2492 193.022C95.8985 193.472 95.4426 193.823 94.8814 194.074C94.3203 194.314 93.7492 194.434 93.168 194.434C92.667 194.434 92.2111 194.329 91.8003 194.119C91.3995 193.898 91.0839 193.608 90.8534 193.247C90.633 192.876 90.5228 192.47 90.5228 192.029ZM95.7682 192.631C95.8785 192.49 95.9636 192.355 96.0238 192.225C96.0839 192.095 96.1139 191.979 96.1139 191.879L96.114 190.737C95.7733 190.607 95.4176 190.506 95.0469 190.436C94.6861 190.366 94.3204 190.331 93.9497 190.331C93.2182 190.331 92.627 190.476 92.1761 190.767C91.7252 191.058 91.4997 191.453 91.4997 191.954C91.4997 192.245 91.5749 192.52 91.7252 192.781C91.8755 193.031 92.0959 193.242 92.3865 193.412C92.677 193.573 93.0177 193.653 93.4085 193.653C93.8995 193.653 94.3554 193.558 94.7762 193.367C95.2071 193.177 95.5378 192.931 95.7682 192.631ZM102.741 194.434C102.17 194.434 101.644 194.329 101.163 194.119C100.692 193.898 100.276 193.598 99.9153 193.217C99.5646 192.836 99.2891 192.4 99.0887 191.909C98.8983 191.418 98.8032 190.897 98.8032 190.346C98.8032 189.605 98.9685 188.928 99.2992 188.317C99.6299 187.706 100.091 187.22 100.682 186.859C101.273 186.499 101.955 186.318 102.726 186.318C103.458 186.318 104.104 186.489 104.665 186.829C105.226 187.16 105.642 187.611 105.912 188.182L104.92 188.498C104.7 188.097 104.389 187.786 103.989 187.566C103.598 187.335 103.162 187.22 102.681 187.22C102.16 187.22 101.684 187.355 101.253 187.626C100.822 187.896 100.477 188.267 100.216 188.738C99.9655 189.209 99.8403 189.745 99.8403 190.346C99.8402 190.937 99.9705 191.474 100.231 191.954C100.492 192.435 100.837 192.821 101.268 193.112C101.699 193.392 102.175 193.533 102.696 193.533C103.037 193.533 103.362 193.473 103.673 193.352C103.993 193.232 104.269 193.072 104.499 192.871C104.74 192.661 104.9 192.436 104.98 192.195L105.987 192.496C105.847 192.866 105.612 193.202 105.281 193.503C104.96 193.793 104.58 194.024 104.139 194.194C103.708 194.354 103.242 194.435 102.741 194.434ZM111.351 193.909C111.27 193.939 111.145 193.994 110.975 194.074C110.804 194.154 110.599 194.224 110.359 194.284C110.118 194.344 109.858 194.375 109.577 194.375C109.286 194.375 109.011 194.319 108.75 194.209C108.5 194.099 108.299 193.934 108.149 193.713C107.999 193.483 107.924 193.202 107.924 192.871L107.924 187.265L106.842 187.265L106.842 186.454L107.924 186.454L107.924 183.808L108.946 183.808L108.946 186.454L110.75 186.454L110.75 187.265L108.946 187.265L108.946 192.586C108.966 192.867 109.066 193.077 109.246 193.217C109.437 193.358 109.652 193.428 109.893 193.428C110.173 193.428 110.429 193.383 110.659 193.292C110.89 193.192 111.03 193.122 111.08 193.082L111.351 193.909ZM112.628 194.284L112.628 186.454L113.65 186.454L113.65 194.284L112.628 194.284ZM112.628 184.816L112.628 183.313L113.65 183.313L113.65 184.816L112.628 184.816ZM119.237 194.435C118.676 194.435 118.155 194.33 117.674 194.119C117.203 193.899 116.792 193.603 116.442 193.232C116.101 192.852 115.836 192.421 115.645 191.94C115.455 191.449 115.36 190.933 115.36 190.392C115.36 189.831 115.455 189.31 115.645 188.829C115.836 188.338 116.106 187.907 116.457 187.536C116.808 187.155 117.218 186.86 117.689 186.649C118.17 186.429 118.691 186.319 119.253 186.319C119.814 186.319 120.33 186.429 120.801 186.649C121.272 186.86 121.682 187.155 122.033 187.536C122.384 187.907 122.654 188.338 122.845 188.829C123.035 189.31 123.13 189.831 123.13 190.392C123.13 190.933 123.035 191.449 122.845 191.94C122.654 192.421 122.384 192.852 122.033 193.233C121.692 193.603 121.281 193.899 120.8 194.119C120.329 194.33 119.808 194.435 119.237 194.435ZM116.397 190.407C116.397 190.988 116.522 191.519 116.772 192C117.033 192.471 117.379 192.847 117.809 193.127C118.24 193.398 118.716 193.533 119.237 193.533C119.758 193.533 120.234 193.393 120.665 193.112C121.096 192.832 121.442 192.451 121.702 191.97C121.963 191.479 122.093 190.948 122.093 190.377C122.093 189.796 121.963 189.265 121.702 188.784C121.442 188.303 121.096 187.922 120.665 187.641C120.234 187.361 119.759 187.22 119.237 187.22C118.716 187.22 118.24 187.366 117.81 187.656C117.389 187.947 117.048 188.333 116.788 188.814C116.527 189.285 116.397 189.816 116.397 190.407ZM131.423 194.285L130.4 194.285L130.401 189.911C130.401 188.989 130.265 188.318 129.995 187.897C129.724 187.466 129.298 187.251 128.717 187.251C128.316 187.251 127.921 187.351 127.53 187.551C127.139 187.742 126.793 188.007 126.493 188.348C126.202 188.679 125.992 189.059 125.862 189.49L125.861 194.285L124.839 194.285L124.84 186.454L125.771 186.454L125.771 188.228C125.982 187.847 126.257 187.516 126.598 187.236C126.939 186.945 127.325 186.72 127.755 186.559C128.186 186.399 128.632 186.319 129.093 186.319C129.524 186.319 129.89 186.399 130.19 186.559C130.491 186.72 130.731 186.95 130.912 187.251C131.092 187.541 131.222 187.897 131.302 188.318C131.383 188.729 131.423 189.19 131.423 189.701L131.423 194.285ZM136.172 194.435C135.531 194.435 134.935 194.33 134.384 194.12C133.832 193.909 133.357 193.589 132.956 193.158L133.377 192.436C133.817 192.847 134.258 193.148 134.699 193.338C135.15 193.518 135.626 193.609 136.127 193.609C136.738 193.609 137.234 193.488 137.615 193.248C137.996 192.997 138.186 192.642 138.186 192.181C138.186 191.87 138.091 191.635 137.901 191.474C137.72 191.304 137.455 191.169 137.104 191.069C136.763 190.958 136.353 190.843 135.872 190.723C135.331 190.573 134.875 190.417 134.504 190.257C134.143 190.087 133.868 189.876 133.677 189.626C133.497 189.365 133.407 189.029 133.407 188.619C133.407 188.108 133.532 187.687 133.783 187.356C134.043 187.015 134.394 186.76 134.835 186.59C135.286 186.409 135.787 186.319 136.338 186.319C136.939 186.319 137.47 186.414 137.931 186.605C138.392 186.795 138.767 187.061 139.058 187.401L138.562 188.093C138.281 187.772 137.946 187.537 137.555 187.386C137.174 187.226 136.748 187.146 136.278 187.146C135.957 187.146 135.651 187.191 135.361 187.281C135.07 187.361 134.83 187.501 134.639 187.702C134.459 187.892 134.369 188.158 134.369 188.498C134.369 188.779 134.439 188.999 134.579 189.16C134.719 189.31 134.93 189.44 135.21 189.55C135.491 189.651 135.837 189.761 136.247 189.881C136.839 190.042 137.355 190.207 137.795 190.377C138.236 190.538 138.577 190.748 138.817 191.008C139.058 191.269 139.178 191.635 139.178 192.106C139.178 192.837 138.903 193.408 138.351 193.819C137.8 194.23 137.074 194.435 136.172 194.435ZM148.456 193.91C148.376 193.94 148.25 193.995 148.08 194.075C147.91 194.155 147.704 194.225 147.464 194.285C147.223 194.345 146.963 194.375 146.682 194.375C146.392 194.375 146.116 194.32 145.856 194.21C145.605 194.1 145.405 193.934 145.254 193.714C145.104 193.484 145.029 193.203 145.029 192.872L145.029 187.266L143.947 187.266L143.947 186.455L145.029 186.455L145.029 183.809L146.051 183.809L146.051 186.455L147.855 186.455L147.855 187.266L146.051 187.266L146.051 192.587C146.071 192.867 146.171 193.078 146.352 193.218C146.542 193.358 146.758 193.429 146.998 193.429C147.279 193.429 147.534 193.383 147.765 193.293C147.995 193.193 148.135 193.123 148.185 193.083L148.456 193.91ZM152.937 194.436C152.376 194.436 151.855 194.33 151.374 194.12C150.903 193.9 150.493 193.604 150.142 193.233C149.801 192.852 149.536 192.422 149.345 191.941C149.155 191.45 149.06 190.934 149.06 190.392C149.06 189.831 149.155 189.31 149.345 188.829C149.536 188.338 149.806 187.908 150.157 187.537C150.508 187.156 150.919 186.86 151.389 186.65C151.87 186.43 152.391 186.319 152.953 186.319C153.514 186.319 154.03 186.43 154.501 186.65C154.972 186.861 155.382 187.156 155.733 187.537C156.084 187.908 156.354 188.339 156.545 188.83C156.735 189.311 156.83 189.832 156.83 190.393C156.83 190.934 156.735 191.45 156.545 191.941C156.354 192.422 156.084 192.853 155.733 193.233C155.392 193.604 154.981 193.9 154.501 194.12C154.03 194.33 153.509 194.436 152.937 194.436ZM150.097 190.408C150.097 190.989 150.222 191.52 150.473 192.001C150.733 192.472 151.079 192.847 151.51 193.128C151.94 193.399 152.416 193.534 152.937 193.534C153.458 193.534 153.934 193.394 154.365 193.113C154.796 192.832 155.142 192.452 155.402 191.971C155.663 191.48 155.793 190.949 155.793 190.378C155.793 189.796 155.663 189.265 155.402 188.784C155.142 188.303 154.796 187.923 154.365 187.642C153.935 187.362 153.459 187.221 152.938 187.221C152.417 187.221 151.941 187.367 151.51 187.657C151.089 187.948 150.748 188.333 150.488 188.814C150.227 189.285 150.097 189.816 150.097 190.408ZM166.203 194.436C165.592 194.436 165.026 194.281 164.505 193.97C163.984 193.649 163.578 193.249 163.287 192.768L163.287 194.286L162.37 194.286L162.371 183.314L163.393 183.314L163.393 188.093C163.743 187.562 164.164 187.136 164.655 186.816C165.146 186.485 165.717 186.32 166.369 186.32C166.92 186.32 167.411 186.435 167.841 186.665C168.282 186.896 168.658 187.207 168.969 187.597C169.279 187.978 169.515 188.414 169.675 188.905C169.835 189.386 169.916 189.882 169.916 190.393C169.916 190.944 169.82 191.46 169.63 191.941C169.45 192.422 169.189 192.853 168.848 193.234C168.508 193.604 168.112 193.9 167.661 194.12C167.22 194.331 166.734 194.436 166.203 194.436ZM165.963 193.534C166.383 193.534 166.774 193.449 167.135 193.279C167.496 193.108 167.806 192.873 168.067 192.572C168.327 192.272 168.528 191.936 168.668 191.565C168.808 191.185 168.878 190.794 168.878 190.393C168.878 189.842 168.758 189.326 168.518 188.845C168.287 188.354 167.962 187.963 167.541 187.672C167.13 187.372 166.644 187.222 166.083 187.222C165.682 187.222 165.306 187.312 164.956 187.492C164.615 187.672 164.309 187.913 164.039 188.213C163.778 188.504 163.563 188.825 163.393 189.175L163.392 191.61C163.433 191.881 163.538 192.136 163.708 192.377C163.878 192.607 164.089 192.808 164.339 192.978C164.6 193.148 164.87 193.284 165.151 193.384C165.431 193.484 165.702 193.534 165.963 193.534ZM175.028 194.436C174.467 194.436 173.946 194.331 173.465 194.12C172.984 193.9 172.569 193.604 172.218 193.234C171.867 192.853 171.592 192.417 171.391 191.926C171.201 191.435 171.106 190.909 171.106 190.348C171.106 189.616 171.271 188.945 171.602 188.334C171.942 187.723 172.408 187.237 173 186.876C173.591 186.505 174.262 186.32 175.014 186.32C175.785 186.32 176.456 186.505 177.028 186.876C177.609 187.247 178.065 187.738 178.395 188.349C178.726 188.95 178.891 189.612 178.891 190.333C178.891 190.413 178.891 190.493 178.891 190.574C178.891 190.644 178.886 190.699 178.876 190.739L172.173 190.739C172.223 191.3 172.378 191.801 172.639 192.242C172.909 192.673 173.255 193.018 173.676 193.279C174.107 193.529 174.573 193.655 175.074 193.655C175.585 193.655 176.066 193.524 176.516 193.264C176.977 193.003 177.298 192.663 177.478 192.242L178.365 192.482C178.205 192.853 177.959 193.189 177.629 193.489C177.298 193.79 176.907 194.025 176.456 194.196C176.015 194.356 175.539 194.436 175.028 194.436ZM172.143 190.002L177.929 190.002C177.889 189.431 177.734 188.93 177.463 188.499C177.203 188.069 176.857 187.733 176.426 187.492C176.006 187.242 175.54 187.117 175.029 187.117C174.518 187.117 174.052 187.242 173.631 187.492C173.21 187.733 172.864 188.073 172.594 188.514C172.333 188.945 172.183 189.441 172.143 190.002ZM186.218 194.286L183.046 186.455L184.114 186.455L186.789 193.264L189.479 186.456L190.486 186.456L187.315 194.286L186.218 194.286ZM191.902 194.286L191.902 186.456L192.924 186.456L192.924 194.286L191.902 194.286ZM191.902 184.817L191.902 183.314L192.924 183.314L192.924 184.817L191.902 184.817ZM197.745 194.437C197.104 194.437 196.508 194.331 195.957 194.121C195.406 193.911 194.93 193.59 194.529 193.159L194.95 192.438C195.391 192.848 195.831 193.149 196.272 193.339C196.723 193.52 197.199 193.61 197.7 193.61C198.311 193.61 198.807 193.49 199.188 193.249C199.569 192.999 199.759 192.643 199.759 192.182C199.759 191.872 199.664 191.636 199.474 191.476C199.293 191.305 199.028 191.17 198.677 191.07C198.336 190.96 197.926 190.845 197.445 190.724C196.904 190.574 196.448 190.419 196.077 190.258C195.716 190.088 195.441 189.878 195.25 189.627C195.07 189.367 194.98 189.031 194.98 188.62C194.98 188.109 195.105 187.688 195.356 187.357C195.616 187.017 195.967 186.761 196.408 186.591C196.859 186.411 197.36 186.32 197.911 186.32C198.512 186.321 199.043 186.416 199.504 186.606C199.965 186.796 200.341 187.062 200.631 187.403L200.135 188.094C199.855 187.773 199.519 187.538 199.128 187.388C198.747 187.227 198.322 187.147 197.851 187.147C197.53 187.147 197.224 187.192 196.934 187.282C196.643 187.363 196.403 187.503 196.212 187.703C196.032 187.894 195.942 188.159 195.942 188.5C195.942 188.78 196.012 189.001 196.152 189.161C196.292 189.311 196.503 189.442 196.783 189.552C197.064 189.652 197.41 189.762 197.82 189.883C198.412 190.043 198.928 190.208 199.369 190.379C199.809 190.539 200.15 190.749 200.391 191.01C200.631 191.27 200.751 191.636 200.751 192.107C200.751 192.839 200.476 193.41 199.925 193.821C199.373 194.231 198.647 194.437 197.745 194.437ZM202.441 194.286L202.441 186.456L203.463 186.456L203.463 194.287L202.441 194.286ZM202.441 184.818L202.441 183.315L203.463 183.315L203.463 184.818L202.441 184.818ZM209.546 194.437C208.935 194.437 208.369 194.282 207.848 193.971C207.327 193.65 206.921 193.25 206.631 192.769L206.631 194.287L205.714 194.287L205.714 183.315L206.736 183.315L206.736 188.094C207.087 187.563 207.507 187.137 207.998 186.817C208.489 186.486 209.061 186.321 209.712 186.321C210.263 186.321 210.754 186.436 211.185 186.666C211.626 186.897 212.001 187.208 212.312 187.598C212.623 187.979 212.858 188.415 213.018 188.906C213.179 189.387 213.259 189.883 213.259 190.394C213.259 190.945 213.164 191.461 212.973 191.942C212.793 192.423 212.532 192.854 212.192 193.235C211.851 193.605 211.455 193.901 211.004 194.121C210.563 194.332 210.077 194.437 209.546 194.437ZM209.306 193.535C209.727 193.535 210.118 193.45 210.478 193.28C210.839 193.109 211.15 192.874 211.41 192.573C211.671 192.273 211.871 191.937 212.011 191.566C212.152 191.186 212.222 190.795 212.222 190.394C212.222 189.843 212.102 189.327 211.861 188.846C211.631 188.355 211.305 187.964 210.884 187.673C210.473 187.373 209.987 187.223 209.426 187.223C209.025 187.223 208.65 187.313 208.299 187.493C207.958 187.673 207.653 187.914 207.382 188.214C207.122 188.505 206.906 188.826 206.736 189.176L206.736 191.611C206.776 191.882 206.881 192.137 207.051 192.378C207.222 192.608 207.432 192.809 207.683 192.979C207.943 193.149 208.214 193.285 208.494 193.385C208.775 193.485 209.045 193.535 209.306 193.535ZM215.035 183.315L216.057 183.315L216.057 192.513C216.057 192.904 216.127 193.16 216.268 193.28C216.408 193.4 216.578 193.46 216.779 193.46C216.959 193.46 217.139 193.44 217.32 193.4C217.5 193.36 217.655 193.32 217.786 193.28L217.966 194.106C217.776 194.187 217.54 194.252 217.26 194.302C216.989 194.352 216.754 194.377 216.553 194.377C216.092 194.377 215.722 194.242 215.441 193.971C215.17 193.701 215.035 193.33 215.035 192.859L215.035 183.315ZM222.467 194.437C221.906 194.437 221.385 194.332 220.904 194.122C220.423 193.901 220.007 193.606 219.656 193.235C219.306 192.854 219.03 192.418 218.83 191.927C218.639 191.436 218.544 190.91 218.544 190.349C218.544 189.618 218.71 188.946 219.04 188.335C219.381 187.724 219.847 187.238 220.438 186.877C221.029 186.506 221.701 186.321 222.452 186.321C223.224 186.321 223.895 186.506 224.466 186.877C225.047 187.248 225.503 187.739 225.834 188.35C226.164 188.951 226.33 189.613 226.33 190.334C226.33 190.414 226.33 190.494 226.33 190.575C226.33 190.645 226.325 190.7 226.315 190.74L219.611 190.74C219.661 191.301 219.817 191.802 220.077 192.243C220.348 192.674 220.693 193.019 221.114 193.28C221.545 193.53 222.011 193.656 222.512 193.656C223.023 193.656 223.504 193.525 223.955 193.265C224.416 193.004 224.736 192.664 224.917 192.243L225.804 192.483C225.643 192.854 225.398 193.19 225.067 193.49C224.736 193.791 224.346 194.026 223.895 194.197C223.454 194.357 222.978 194.437 222.467 194.437ZM219.581 190.003L225.368 190.003C225.328 189.432 225.172 188.931 224.902 188.5C224.641 188.07 224.296 187.734 223.865 187.493C223.444 187.243 222.978 187.118 222.467 187.118C221.956 187.118 221.49 187.243 221.069 187.493C220.648 187.734 220.303 188.075 220.032 188.515C219.772 188.946 219.621 189.442 219.581 190.003Z" fill="#18181B"/>
<path d="M113.829 258.035C113.829 257.456 113.927 256.89 114.123 256.338C114.327 255.777 114.621 255.269 115.004 254.815C115.387 254.352 115.859 253.987 116.421 253.719C116.982 253.443 117.619 253.305 118.331 253.305C119.177 253.305 119.899 253.501 120.495 253.893C121.101 254.276 121.546 254.771 121.831 255.376L121.097 255.83C120.892 255.412 120.633 255.082 120.322 254.842C120.01 254.592 119.676 254.414 119.32 254.307C118.972 254.2 118.625 254.147 118.278 254.147C117.708 254.147 117.204 254.263 116.768 254.494C116.331 254.717 115.962 255.02 115.659 255.403C115.365 255.777 115.142 256.2 114.991 256.672C114.84 257.135 114.764 257.607 114.764 258.088C114.764 258.614 114.853 259.117 115.031 259.598C115.209 260.079 115.458 260.506 115.779 260.88C116.1 261.246 116.474 261.54 116.901 261.762C117.338 261.976 117.81 262.083 118.317 262.083C118.674 262.083 119.039 262.021 119.413 261.896C119.787 261.771 120.134 261.58 120.455 261.321C120.785 261.063 121.047 260.729 121.243 260.319L122.018 260.72C121.822 261.192 121.519 261.593 121.11 261.923C120.7 262.252 120.241 262.502 119.734 262.671C119.235 262.84 118.745 262.925 118.264 262.925C117.614 262.925 117.017 262.786 116.474 262.51C115.93 262.225 115.458 261.851 115.058 261.388C114.666 260.916 114.363 260.39 114.149 259.812C113.935 259.224 113.829 258.631 113.829 258.035ZM126.394 262.978C125.895 262.978 125.432 262.885 125.005 262.698C124.586 262.502 124.221 262.239 123.909 261.909C123.606 261.571 123.37 261.188 123.201 260.76C123.032 260.324 122.947 259.865 122.947 259.384C122.947 258.885 123.032 258.422 123.201 257.995C123.371 257.558 123.611 257.175 123.923 256.846C124.234 256.507 124.6 256.245 125.018 256.058C125.446 255.862 125.909 255.764 126.408 255.764C126.907 255.764 127.365 255.862 127.784 256.058C128.202 256.245 128.568 256.508 128.879 256.846C129.191 257.176 129.432 257.559 129.601 257.995C129.77 258.422 129.855 258.886 129.855 259.384C129.855 259.865 129.77 260.324 129.601 260.76C129.431 261.188 129.191 261.571 128.879 261.909C128.576 262.239 128.211 262.502 127.784 262.698C127.365 262.885 126.902 262.978 126.394 262.978ZM123.869 259.398C123.869 259.914 123.981 260.386 124.203 260.814C124.435 261.232 124.742 261.566 125.125 261.816C125.508 262.056 125.931 262.177 126.394 262.177C126.857 262.177 127.28 262.052 127.663 261.803C128.046 261.553 128.354 261.215 128.585 260.787C128.817 260.351 128.933 259.879 128.933 259.371C128.933 258.854 128.817 258.382 128.585 257.955C128.354 257.527 128.047 257.189 127.664 256.939C127.281 256.69 126.858 256.565 126.394 256.565C125.931 256.565 125.508 256.694 125.125 256.953C124.751 257.211 124.448 257.554 124.217 257.981C123.985 258.4 123.869 258.872 123.869 259.398ZM137.226 262.845L136.317 262.845L136.317 258.957C136.317 258.138 136.197 257.541 135.956 257.167C135.716 256.784 135.337 256.592 134.821 256.592C134.465 256.592 134.113 256.681 133.765 256.859C133.418 257.029 133.111 257.265 132.844 257.568C132.585 257.861 132.398 258.2 132.282 258.583L132.282 262.845L131.374 262.845L131.374 255.884L132.202 255.884L132.202 257.461C132.389 257.122 132.634 256.828 132.937 256.579C133.24 256.321 133.583 256.12 133.966 255.978C134.349 255.835 134.745 255.764 135.155 255.764C135.538 255.764 135.863 255.835 136.13 255.978C136.397 256.12 136.611 256.325 136.771 256.592C136.932 256.851 137.048 257.167 137.119 257.541C137.19 257.906 137.226 258.316 137.226 258.77L137.226 262.845ZM142.438 262.511C142.366 262.538 142.255 262.587 142.104 262.658C141.952 262.729 141.77 262.791 141.556 262.845C141.342 262.898 141.11 262.925 140.861 262.925C140.603 262.925 140.358 262.876 140.126 262.778C139.904 262.68 139.726 262.533 139.592 262.337C139.458 262.132 139.392 261.883 139.392 261.589L139.392 256.606L138.43 256.606L138.43 255.884L139.392 255.884L139.392 253.533L140.3 253.533L140.3 255.884L141.903 255.884L141.903 256.606L140.3 256.606L140.3 261.335C140.318 261.585 140.407 261.772 140.567 261.896C140.736 262.021 140.928 262.083 141.142 262.083C141.391 262.083 141.618 262.043 141.823 261.963C142.028 261.874 142.153 261.812 142.197 261.776L142.438 262.511ZM143.573 262.845L143.573 255.884L144.481 255.884L144.481 262.845L143.573 262.845ZM143.573 254.428L143.573 253.092L144.481 253.092L144.481 254.428L143.573 254.428ZM152.334 262.845L151.425 262.845L151.425 258.957C151.425 258.138 151.305 257.541 151.065 257.167C150.824 256.784 150.446 256.593 149.929 256.593C149.573 256.593 149.221 256.682 148.874 256.86C148.526 257.029 148.219 257.265 147.952 257.568C147.694 257.862 147.506 258.2 147.391 258.583L147.391 262.845L146.482 262.845L146.482 255.884L147.311 255.884L147.311 257.461C147.498 257.123 147.743 256.829 148.045 256.579C148.348 256.321 148.691 256.121 149.074 255.978C149.457 255.836 149.853 255.764 150.263 255.764C150.646 255.764 150.971 255.836 151.238 255.978C151.506 256.121 151.719 256.325 151.88 256.593C152.04 256.851 152.156 257.167 152.227 257.541C152.298 257.906 152.334 258.316 152.334 258.77L152.334 262.845ZM154.204 259.973L154.204 255.885L155.113 255.885L155.113 259.812C155.113 260.605 155.246 261.197 155.514 261.589C155.79 261.981 156.195 262.177 156.729 262.177C157.086 262.177 157.429 262.102 157.758 261.95C158.097 261.79 158.395 261.567 158.653 261.282C158.912 260.988 159.107 260.65 159.241 260.267L159.241 255.885L160.15 255.885L160.15 261.75C160.15 261.875 160.176 261.968 160.23 262.03C160.283 262.084 160.363 262.115 160.47 262.124L160.47 262.845C160.363 262.854 160.279 262.859 160.216 262.859C160.154 262.868 160.096 262.872 160.043 262.872C159.865 262.854 159.709 262.783 159.575 262.658C159.45 262.534 159.384 262.382 159.375 262.204L159.348 261.269C159.045 261.803 158.631 262.222 158.105 262.525C157.589 262.827 157.028 262.979 156.422 262.979C155.692 262.979 155.14 262.725 154.765 262.217C154.391 261.71 154.204 260.961 154.204 259.973ZM165.21 262.979C164.711 262.979 164.248 262.886 163.82 262.698C163.393 262.503 163.023 262.24 162.711 261.91C162.4 261.572 162.155 261.184 161.977 260.748C161.807 260.311 161.723 259.844 161.723 259.345C161.723 258.695 161.87 258.098 162.164 257.555C162.466 257.012 162.881 256.58 163.406 256.259C163.932 255.929 164.528 255.765 165.196 255.765C165.882 255.765 166.479 255.929 166.987 256.259C167.503 256.589 167.908 257.025 168.202 257.568C168.496 258.103 168.643 258.691 168.643 259.332C168.643 259.403 168.643 259.474 168.643 259.546C168.643 259.608 168.639 259.657 168.63 259.693L162.671 259.692C162.716 260.191 162.854 260.637 163.085 261.028C163.326 261.411 163.633 261.719 164.007 261.95C164.39 262.173 164.804 262.284 165.25 262.284C165.704 262.284 166.131 262.169 166.532 261.937C166.942 261.705 167.227 261.403 167.387 261.029L168.176 261.242C168.033 261.572 167.815 261.87 167.521 262.137C167.227 262.405 166.88 262.614 166.479 262.765C166.087 262.908 165.664 262.979 165.21 262.979ZM162.645 259.038L167.788 259.038C167.753 258.53 167.615 258.085 167.374 257.702C167.142 257.319 166.835 257.021 166.452 256.807C166.078 256.584 165.664 256.473 165.21 256.473C164.756 256.473 164.341 256.584 163.967 256.807C163.593 257.02 163.286 257.323 163.045 257.715C162.814 258.098 162.68 258.539 162.645 259.038Z" fill="white"/>
<defs>
<filter id="filter0_d_45_4" x="0.474984" y="0.474999" width="525.05" height="360.05" filterUnits="userSpaceOnUse" color-interpolation-filters="sRGB">
<feFlood flood-opacity="0" result="BackgroundImageFix"/>
<feColorMatrix in="SourceAlpha" type="matrix" values="0 0 0 0 0 0 0 0 0 0 0 0 0 0 0 0 0 0 127 0" result="hardAlpha"/>
<feMorphology radius="8.35" operator="dilate" in="SourceAlpha" result="effect1_dropShadow_45_4"/>
<feOffset/>
<feGaussianBlur stdDeviation="2.0875"/>
<feComposite in2="hardAlpha" operator="out"/>
<feColorMatrix type="matrix" values="0 0 0 0 0.121569 0 0 0 0 0.117647 0 0 0 0 0.133333 0 0 0 1 0"/>
<feBlend mode="normal" in2="BackgroundImageFix" result="effect1_dropShadow_45_4"/>
<feBlend mode="normal" in="SourceGraphic" in2="effect1_dropShadow_45_4" result="shape"/>
</filter>
</defs>
</svg>
